<svg width="38" height="38" viewBox="0 0 38 38" fill="none" xmlns="http://www.w3.org/2000/svg">
<path d="M20.2263 28.6039L20.1391 28.6152V28.703V30.4114V30.5114H20.2391H23.9565C24.2591 30.5114 24.549 30.6299 24.7625 30.8404C24.976 31.0508 25.0957 31.3359 25.0957 31.6328C25.0957 31.9298 24.976 32.2149 24.7625 32.4253C24.549 32.6358 24.2591 32.7542 23.9565 32.7542H14.0435C13.7409 32.7542 13.451 32.6358 13.2375 32.4253C13.024 32.2149 12.9043 31.9298 12.9043 31.6328C12.9043 31.3359 13.024 31.0508 13.2375 30.8404C13.451 30.6299 13.7409 30.5114 14.0435 30.5114H17.7609H17.8609V30.4114V28.703V28.6152L17.7737 28.6039C15.5121 28.3106 13.4361 27.2168 11.9325 25.5268C10.4288 23.8368 9.59995 21.6659 9.6 19.4185C9.6 19.1216 9.71966 18.8365 9.93313 18.6261C10.1467 18.4156 10.4366 18.2971 10.7391 18.2971C11.0417 18.2971 11.3316 18.4156 11.5451 18.6261C11.7586 18.8365 11.8783 19.1216 11.8783 19.4185C11.8783 21.2812 12.6289 23.0673 13.9647 24.3839C15.3004 25.7006 17.1117 26.44 19 26.44C20.8883 26.44 22.6996 25.7006 24.0353 24.3839C25.3711 23.0673 26.1217 21.2812 26.1217 19.4185C26.1217 19.1216 26.2414 18.8365 26.4549 18.6261C26.6684 18.4156 26.9583 18.2971 27.2609 18.2971C27.5634 18.2971 27.8533 18.4156 28.0669 18.6261C28.2803 18.8365 28.4 19.1216 28.4 19.4185C28.4 21.6659 27.5712 23.8368 26.0675 25.5268C24.5639 27.2168 22.4879 28.3106 20.2263 28.6039ZM13.7304 9.64711C13.7304 8.27034 14.2853 6.94967 15.2733 5.97571C16.2615 5.0017 17.602 4.45425 19 4.45425C20.398 4.45425 21.7385 5.0017 22.7267 5.97571C23.7147 6.94967 24.2696 8.27034 24.2696 9.64711V19.4185C24.2696 20.7953 23.7147 22.116 22.7267 23.0899C21.7385 24.0639 20.398 24.6114 19 24.6114C17.602 24.6114 16.2615 24.0639 15.2733 23.0899C14.2853 22.116 13.7304 20.7953 13.7304 19.4185V9.64711ZM19 6.69711C18.2071 6.69711 17.4464 7.00756 16.8853 7.56063C16.3242 8.11375 16.0087 8.86425 16.0087 9.64711V19.4185C16.0087 20.2014 16.3242 20.9519 16.8853 21.505C17.4464 22.0581 18.2071 22.3685 19 22.3685C19.7929 22.3685 20.5536 22.0581 21.1147 21.505C21.6758 20.9519 21.9913 20.2014 21.9913 19.4185V9.64711C21.9913 8.86425 21.6758 8.11375 21.1147 7.56063C20.5536 7.00756 19.7929 6.69711 19 6.69711Z" fill="#6D57DE" stroke="white" stroke-width="0.2"/>
</svg>
