<svg width="38" height="38" viewBox="0 0 38 38" fill="none" xmlns="http://www.w3.org/2000/svg">
<path d="M8.76985 32.4666L8.76992 32.4666C9.4033 33.0554 10.1657 33.35 11.0515 33.35H27.5261C28.2607 33.35 28.8895 33.0904 29.4065 32.5733L29.4066 32.5733C29.9236 32.0552 30.1832 31.4265 30.1832 30.6929V8.70829C30.1832 8.45668 30.0984 8.24209 29.9272 8.07208C29.7564 7.90248 29.5423 7.8178 29.292 7.81663C29.0409 7.81545 28.8262 7.90043 28.6553 8.07258C28.4847 8.24432 28.3998 8.45851 28.3998 8.70829V30.6913C28.3998 30.9528 28.317 31.1602 28.1552 31.322C27.9933 31.4839 27.7864 31.5666 27.5261 31.5666H11.0531C10.6565 31.5666 10.3159 31.4449 10.0264 31.2021C9.74147 30.963 9.59984 30.6562 9.59984 30.2733C9.59984 29.9797 9.70761 29.7369 9.92646 29.5383C10.1531 29.3326 10.4167 29.1949 10.7187 29.1248C10.719 29.1247 10.7192 29.1247 10.7194 29.1246L22.7293 26.5108L22.7301 26.5106C23.3293 26.3748 23.8288 26.0662 24.2258 25.5871C24.624 25.1067 24.8236 24.5511 24.8236 23.9241V5.98971C24.8236 5.13953 24.4934 4.44966 23.8357 3.92897C23.1789 3.40902 22.4354 3.23628 21.6137 3.41239C21.6137 3.4124 21.6136 3.41242 21.6135 3.41243L10.8031 5.68757C9.96331 5.86288 9.2552 6.26841 8.68151 6.90271C8.10572 7.53934 7.8165 8.28302 7.8165 9.12946V30.2717C7.8165 31.1417 8.13513 31.8755 8.76985 32.4666ZM22.3625 24.82L22.3625 24.82L22.3591 24.8207L13.3761 26.7657L13.3777 6.98422L21.9721 5.15207C21.9724 5.15202 21.9726 5.15197 21.9728 5.15192C22.2474 5.09797 22.4912 5.16091 22.7122 5.34461C22.9342 5.52914 23.0418 5.75528 23.0418 6.02929V23.9748C23.0418 24.1754 22.9786 24.3572 22.8492 24.5229C22.7215 24.6866 22.5604 24.7844 22.3625 24.82ZM9.59984 27.7472V9.12946C9.59984 8.72116 9.7344 8.36928 10.0048 8.06905L10.0052 8.06865C10.2755 7.76522 10.6154 7.56941 11.0282 7.48082L11.0286 7.48072L11.5928 7.35694V27.1371L10.6757 27.3398C10.6755 27.3398 10.6754 27.3399 10.6753 27.3399C10.4556 27.3875 10.2453 27.4525 10.0445 27.535C9.89547 27.5963 9.74724 27.667 9.59984 27.7472Z" fill="#6D57DE" stroke="#6D57DE" stroke-width="0.2"/>
</svg>
