<svg width="71" height="71" viewBox="0 0 71 71" fill="none" xmlns="http://www.w3.org/2000/svg">
<g clip-path="url(#clip0_2301_1972)">
<mask id="path-2-inside-1_2301_1972" fill="white">
<path fill-rule="evenodd" clip-rule="evenodd" d="M52.8137 51.0664L52.8004 51.0856L52.7474 51.2418L52.7238 51.2771L52.6973 51.2918L52.5411 51.3449C52.5205 51.3557 52.5112 51.3699 52.5132 51.3876L52.522 51.4082L53.1275 52.0638L53.1643 52.0859L53.1982 52.0903L53.4604 52.0461L53.4884 52.0299L53.5002 52.0063L53.5444 51.7441L53.5385 51.7028L53.5193 51.6719L52.8652 51.0679C52.8456 51.0561 52.8284 51.0556 52.8137 51.0664ZM53.0376 50.5096L53.0214 50.5317L52.8859 50.9412L52.8859 50.9707L52.8976 50.9913L53.5576 51.5983L53.5827 51.6086L53.6047 51.6071L54.0379 51.448C54.0614 51.4342 54.0717 51.4161 54.0688 51.3935L54.0541 51.367L53.0995 50.5125C53.0769 50.4998 53.0563 50.4988 53.0376 50.5096ZM51.9872 51.5658C51.9768 51.5684 51.9678 51.5749 51.962 51.5839C51.9563 51.593 51.9542 51.6039 51.9563 51.6145L51.9681 51.6439L52.8225 52.5985C52.8412 52.6152 52.8613 52.6186 52.8829 52.6088L52.9021 52.5838L53.0612 52.1507L53.0641 52.1242L53.0538 52.1021L52.4454 51.4436L52.4233 51.4303L52.3938 51.4303L51.9872 51.5658Z"/>
</mask>
<path d="M52.8137 51.0664L52.2223 50.26L52.087 50.3593L51.9914 50.4973L52.8137 51.0664ZM52.8004 51.0856L51.9782 50.5164L51.8985 50.6315L51.8535 50.764L52.8004 51.0856ZM52.7474 51.2418L53.5794 51.7965L53.6521 51.6874L53.6943 51.5633L52.7474 51.2418ZM52.7238 51.2771L53.2095 52.1513L53.4214 52.0335L53.5559 51.8318L52.7238 51.2771ZM52.6973 51.2918L53.0189 52.2387L53.1042 52.2097L53.183 52.166L52.6973 51.2918ZM52.5411 51.3449L52.2196 50.398L52.146 50.423L52.0771 50.459L52.5411 51.3449ZM52.5132 51.3876L51.5193 51.498L51.5356 51.6453L51.594 51.7815L52.5132 51.3876ZM52.522 51.4082L51.6029 51.8022L51.6706 51.9603L51.7874 52.0867L52.522 51.4082ZM53.1275 52.0638L52.3928 52.7422L52.4901 52.8475L52.613 52.9213L53.1275 52.0638ZM53.1643 52.0859L52.6498 52.9434L52.8284 53.0505L53.0349 53.0775L53.1643 52.0859ZM53.1982 52.0903L53.0688 53.0819L53.217 53.1012L53.3644 53.0764L53.1982 52.0903ZM53.4604 52.0461L53.6266 53.0322L53.8049 53.0021L53.9614 52.9115L53.4604 52.0461ZM53.4884 52.0299L53.9894 52.8953L54.2488 52.7451L54.3828 52.4771L53.4884 52.0299ZM53.5002 52.0063L54.3946 52.4535L54.4614 52.3199L54.4862 52.1725L53.5002 52.0063ZM53.5444 51.7441L54.5304 51.9103L54.5563 51.7568L54.5343 51.6027L53.5444 51.7441ZM53.5385 51.7028L54.5284 51.5614L54.4988 51.3543L54.3887 51.1765L53.5385 51.7028ZM53.5193 51.6719L54.3696 51.1455L54.2978 51.0297L54.1977 50.9372L53.5193 51.6719ZM52.8652 51.0679L53.5436 50.3332L53.468 50.2634L53.3797 50.2104L52.8652 51.0679ZM53.0376 50.5096L52.5366 49.6442L52.3552 49.7492L52.2312 49.9182L53.0376 50.5096ZM53.0214 50.5317L52.215 49.9403L52.1216 50.0676L52.072 50.2175L53.0214 50.5317ZM52.8859 50.9412L51.9365 50.6271L51.8859 50.7801L51.8859 50.9412L52.8859 50.9412ZM52.8859 50.9707L51.8859 50.9707L51.8859 51.2363L52.0176 51.4669L52.8859 50.9707ZM52.8976 50.9913L52.0294 51.4875L52.1065 51.6223L52.2207 51.7274L52.8976 50.9913ZM53.5576 51.5983L52.8807 52.3343L53.012 52.455L53.1769 52.5229L53.5576 51.5983ZM53.5827 51.6086L53.2019 52.5333L53.4171 52.6218L53.6492 52.6063L53.5827 51.6086ZM53.6047 51.6071L53.6713 52.6049L53.8147 52.5953L53.9496 52.5458L53.6047 51.6071ZM54.0379 51.448L54.3827 52.3867L54.4655 52.3562L54.5417 52.3118L54.0379 51.448ZM54.0688 51.3935L55.0604 51.2641L55.0357 51.0748L54.9429 50.9078L54.0688 51.3935ZM54.0541 51.367L54.9282 50.8813L54.8464 50.7341L54.721 50.6218L54.0541 51.367ZM53.0995 50.5125L53.7664 49.7674L53.6857 49.6952L53.5915 49.642L53.0995 50.5125ZM51.9872 51.5658L52.2255 52.5371L52.2649 52.5274L52.3035 52.5145L51.9872 51.5658ZM51.9563 51.6145L50.9756 51.81L50.9936 51.9003L51.0278 51.9858L51.9563 51.6145ZM51.9681 51.6439L51.0396 52.0153L51.1052 52.1793L51.223 52.3109L51.9681 51.6439ZM52.8225 52.5985L52.0774 53.2654L52.1144 53.3068L52.1557 53.3438L52.8225 52.5985ZM52.8829 52.6088L53.2967 53.5192L53.525 53.4154L53.6773 53.2162L52.8829 52.6088ZM52.9021 52.5838L53.6965 53.1912L53.7885 53.0708L53.8407 52.9286L52.9021 52.5838ZM53.0612 52.1507L53.9998 52.4955L54.0416 52.3817L54.055 52.2612L53.0612 52.1507ZM53.0641 52.1242L54.058 52.2346L54.089 51.9556L53.9703 51.7013L53.0641 52.1242ZM53.0538 52.1021L53.96 51.6792L53.8941 51.5379L53.7883 51.4234L53.0538 52.1021ZM52.4454 51.4436L53.1799 50.765L53.0827 50.6597L52.9599 50.5861L52.4454 51.4436ZM52.4233 51.4303L52.9378 50.5728L52.7003 50.4303L52.4233 50.4303L52.4233 51.4303ZM52.3938 51.4303L52.3938 50.4303H52.2316L52.0776 50.4816L52.3938 51.4303ZM51.9914 50.4973L51.9782 50.5164L53.6226 51.6548L53.6359 51.6356L51.9914 50.4973ZM51.8535 50.764L51.8005 50.9202L53.6943 51.5633L53.7473 51.4072L51.8535 50.764ZM51.9153 50.687L51.8918 50.7224L53.5559 51.8318L53.5794 51.7965L51.9153 50.687ZM52.2382 50.403L52.2116 50.4177L53.183 52.166L53.2095 52.1513L52.2382 50.403ZM52.3757 50.345L52.2196 50.398L52.8627 52.2918L53.0189 52.2387L52.3757 50.345ZM52.0771 50.459C51.9689 50.5157 51.8083 50.6232 51.6822 50.8156C51.5441 51.0264 51.4938 51.2692 51.5193 51.498L53.507 51.2772C53.5305 51.4883 53.4839 51.7151 53.3551 51.9117C53.2384 52.0899 53.0927 52.1848 53.0052 52.2307L52.0771 50.459ZM51.594 51.7815L51.6029 51.8022L53.4411 51.0143L53.4323 50.9936L51.594 51.7815ZM51.7874 52.0867L52.3928 52.7422L53.8621 51.3853L53.2566 50.7297L51.7874 52.0867ZM52.613 52.9213L52.6498 52.9434L53.6788 51.2284L53.6419 51.2063L52.613 52.9213ZM53.0349 53.0775L53.0688 53.0819L53.3275 51.0987L53.2936 51.0943L53.0349 53.0775ZM53.3644 53.0764L53.6266 53.0322L53.2942 51.06L53.032 51.1042L53.3644 53.0764ZM53.9614 52.9115L53.9894 52.8953L52.9873 51.1645L52.9593 51.1807L53.9614 52.9115ZM54.3828 52.4771L54.3946 52.4535L52.6057 51.5591L52.594 51.5826L54.3828 52.4771ZM54.4862 52.1725L54.5304 51.9103L52.5583 51.5779L52.5141 51.8401L54.4862 52.1725ZM54.5343 51.6027L54.5284 51.5614L52.5485 51.8443L52.5544 51.8855L54.5343 51.6027ZM54.3887 51.1765L54.3696 51.1455L52.6691 52.1983L52.6882 52.2292L54.3887 51.1765ZM54.1977 50.9372L53.5436 50.3332L52.1868 51.8026L52.8409 52.4066L54.1977 50.9372ZM53.3797 50.2104C53.27 50.1446 53.0939 50.0656 52.8662 50.0591C52.6208 50.0521 52.3971 50.1319 52.2223 50.26L53.405 51.8729C53.245 51.9902 53.0373 52.0648 52.809 52.0583C52.5985 52.0523 52.4408 51.9795 52.3507 51.9254L53.3797 50.2104ZM52.2312 49.9182L52.215 49.9403L53.8277 51.1231L53.844 51.101L52.2312 49.9182ZM52.072 50.2175L51.9365 50.6271L53.8352 51.2554L53.9708 50.8459L52.072 50.2175ZM51.8859 50.9412L51.8859 50.9707L53.8859 50.9707L53.8859 50.9412L51.8859 50.9412ZM52.0176 51.4669L52.0294 51.4875L53.7659 50.4951L53.7541 50.4745L52.0176 51.4669ZM52.2207 51.7274L52.8807 52.3343L54.2345 50.8622L53.5746 50.2553L52.2207 51.7274ZM53.1769 52.5229L53.2019 52.5333L53.9634 50.6839L53.9383 50.6736L53.1769 52.5229ZM53.6492 52.6063L53.6713 52.6049L53.5382 50.6093L53.5161 50.6108L53.6492 52.6063ZM53.9496 52.5458L54.3827 52.3867L53.693 50.5093L53.2599 50.6684L53.9496 52.5458ZM54.5417 52.3118C54.6605 52.2425 54.8179 52.1204 54.9329 51.9177C55.0551 51.7024 55.0873 51.4702 55.0604 51.2641L53.0772 51.5228C53.0533 51.3393 53.0817 51.1275 53.1936 50.9304C53.2983 50.7459 53.4388 50.6397 53.534 50.5842L54.5417 52.3118ZM54.9429 50.9078L54.9282 50.8813L53.1799 51.8526L53.1946 51.8791L54.9429 50.9078ZM54.721 50.6218L53.7664 49.7674L52.4325 51.2577L53.3871 52.1121L54.721 50.6218ZM53.5915 49.642C53.3341 49.4965 52.9288 49.4171 52.5366 49.6442L53.5386 51.375C53.3895 51.4614 53.2099 51.5102 53.0195 51.5011C52.8388 51.4925 52.6981 51.4344 52.6074 51.3831L53.5915 49.642ZM51.749 50.5946C51.4882 50.6586 51.2624 50.8208 51.1184 51.0471L52.8057 52.1208C52.6732 52.329 52.4654 52.4782 52.2255 52.5371L51.749 50.5946ZM51.1184 51.0471C50.9743 51.2734 50.9231 51.5467 50.9756 51.81L52.937 51.4189C52.9853 51.6612 52.9382 51.9126 52.8057 52.1208L51.1184 51.0471ZM51.0278 51.9858L51.0396 52.0153L52.8966 51.2726L52.8848 51.2431L51.0278 51.9858ZM51.223 52.3109L52.0774 53.2654L53.5676 51.9316L52.7132 50.977L51.223 52.3109ZM52.1557 53.3438C52.2735 53.4492 52.4498 53.5595 52.6833 53.5994C52.921 53.6399 53.1341 53.5931 53.2967 53.5192L52.4691 51.6985C52.6101 51.6344 52.8023 51.5907 53.0199 51.6279C53.2332 51.6643 53.3901 51.7646 53.4893 51.8533L52.1557 53.3438ZM53.6773 53.2162L53.6965 53.1912L52.1077 51.9764L52.0885 52.0014L53.6773 53.2162ZM53.8407 52.9286L53.9998 52.4955L52.1225 51.8059L51.9634 52.239L53.8407 52.9286ZM54.055 52.2612L54.058 52.2346L52.0702 52.0137L52.0673 52.0402L54.055 52.2612ZM53.9703 51.7013L53.96 51.6792L52.1476 52.525L52.1579 52.5471L53.9703 51.7013ZM53.7883 51.4234L53.1799 50.765L51.7109 52.1222L52.3193 52.7807L53.7883 51.4234ZM52.9599 50.5861L52.9378 50.5728L51.9088 52.2878L51.9309 52.3011L52.9599 50.5861ZM52.4233 50.4303L52.3938 50.4303L52.3938 52.4303L52.4233 52.4303L52.4233 50.4303ZM52.0776 50.4816L51.671 50.6172L52.3035 52.5145L52.7101 52.379L52.0776 50.4816Z" fill="white" mask="url(#path-2-inside-1_2301_1972)"/>
<path d="M38.4814 37.9814H37.9814V38.4814L37.9814 54.1025L37.9813 54.1025L37.9815 54.1115C37.9877 54.46 37.9245 54.8062 37.7954 55.13C37.6664 55.4538 37.4742 55.7487 37.23 55.9974C36.9858 56.2461 36.6945 56.4437 36.3731 56.5786C36.0517 56.7136 35.7067 56.7831 35.3581 56.7833C35.0096 56.7835 34.6645 56.7142 34.343 56.5796C34.0215 56.4449 33.73 56.2476 33.4856 55.9991C33.2411 55.7507 33.0486 55.456 32.9193 55.1323C32.79 54.8086 32.7264 54.4624 32.7323 54.1139L32.7324 54.1139L32.7324 54.1055L32.7324 38.4784V37.9784L32.2323 37.9784L16.6038 37.9799L16.6038 37.9798L16.5954 37.98C16.2469 37.9859 15.9007 37.9223 15.577 37.793C15.2533 37.6636 14.9586 37.4711 14.7102 37.2267C14.4617 36.9823 14.2644 36.6908 14.1297 36.3693C13.9951 36.0478 13.9258 35.7027 13.926 35.3541C13.9262 35.0056 13.9958 34.6605 14.1307 34.3391C14.2656 34.0178 14.4632 33.7265 14.7119 33.4823C14.9606 33.2381 15.2555 33.0459 15.5793 32.9168C15.9031 32.7878 16.2493 32.7245 16.5978 32.7308L16.5978 32.7308L16.6068 32.7308L32.2309 32.7308H32.7309L32.7309 32.2308L32.7294 16.6082L32.7294 16.6081C32.7293 16.2633 32.7971 15.9219 32.929 15.6034C33.0609 15.2849 33.2542 14.9954 33.4979 14.7516C33.7416 14.5077 34.031 14.3143 34.3495 14.1823C34.6679 14.0503 35.0093 13.9823 35.3541 13.9822C35.6988 13.9821 36.0402 14.0499 36.3587 14.1818C36.6773 14.3137 36.9667 14.507 37.2106 14.7507C37.4544 14.9944 37.6479 15.2838 37.7799 15.6023L38.2418 15.4108L37.7799 15.6023C37.9119 15.9207 37.9799 16.2621 37.9799 16.6069L37.9785 32.2323L37.9784 32.7324L38.4786 32.7323L54.1055 32.7294C54.1055 32.7294 54.1056 32.7294 54.1056 32.7294C54.802 32.7294 55.4699 33.0061 55.9624 33.4985C56.4549 33.991 56.7315 34.6589 56.7315 35.3554C56.7315 36.0518 56.4549 36.7198 55.9624 37.2122C55.4699 37.7047 54.802 37.9814 54.1055 37.9814L38.4814 37.9814Z" fill="#333333" stroke="white"/>
</g>
<defs>
<clipPath id="clip0_2301_1972">
<rect y="35.3553" width="50" height="50" rx="15" transform="rotate(-45 0 35.3553)" fill="white"/>
</clipPath>
</defs>
</svg>
