<svg width="24" height="24" viewBox="0 0 24 24" fill="none" xmlns="http://www.w3.org/2000/svg">
<path d="M12 16.4762C11.5359 16.4762 11.0908 16.2855 10.7626 15.9462C10.4344 15.6068 10.25 15.1466 10.25 14.6667C10.25 13.6624 11.0287 12.8571 12 12.8571C12.4641 12.8571 12.9092 13.0478 13.2374 13.3871C13.5656 13.7265 13.75 14.1868 13.75 14.6667C13.75 15.1466 13.5656 15.6068 13.2374 15.9462C12.9092 16.2855 12.4641 16.4762 12 16.4762ZM17.25 19.1905V10.1429H6.75V19.1905H17.25ZM17.25 8.33333C17.7141 8.33333 18.1592 8.52398 18.4874 8.86333C18.8156 9.20268 19 9.66294 19 10.1429V19.1905C19 19.6704 18.8156 20.1307 18.4874 20.47C18.1592 20.8094 17.7141 21 17.25 21H6.75C6.28587 21 5.84075 20.8094 5.51256 20.47C5.18437 20.1307 5 19.6704 5 19.1905V10.1429C5 9.13857 5.77875 8.33333 6.75 8.33333H7.625V6.52381C7.625 5.32402 8.08594 4.17337 8.90641 3.32499C9.72688 2.47661 10.8397 2 12 2C12.5745 2 13.1434 2.11701 13.6742 2.34435C14.205 2.5717 14.6873 2.90492 15.0936 3.32499C15.4998 3.74507 15.8221 4.24377 16.042 4.79262C16.2618 5.34148 16.375 5.92973 16.375 6.52381V8.33333H17.25ZM12 3.80952C11.3038 3.80952 10.6361 4.09549 10.1438 4.60452C9.65156 5.11355 9.375 5.80394 9.375 6.52381V8.33333H14.625V6.52381C14.625 5.80394 14.3484 5.11355 13.8562 4.60452C13.3639 4.09549 12.6962 3.80952 12 3.80952Z" fill="#333333"/>
</svg>
