<svg width="70" height="49" viewBox="0 0 70 49" fill="none" xmlns="http://www.w3.org/2000/svg">
<path d="M12.0873 0.863998C12.4713 0.735998 13.3033 0.69333 14.5833 0.735996C15.9059 0.778665 16.8019 0.863998 17.2713 0.991997C17.6979 1.16266 18.2313 1.248 18.8713 1.248C20.1939 1.248 21.6659 1.76 23.2873 2.784C24.9086 3.808 25.9113 4.87467 26.2953 5.984C26.5513 6.70933 26.8286 7.37067 27.1273 7.968C27.7673 9.29067 28.1086 10.336 28.1513 11.104C28.2366 11.872 28.0659 12.896 27.6393 14.176C27.2126 15.456 26.9353 16.4587 26.8073 17.184C26.5939 18.2933 25.5913 19.5733 23.7993 21.024C22.0499 22.432 20.4073 23.3067 18.8713 23.648C18.3166 23.776 17.9753 23.9253 17.8472 24.096C17.7193 24.2667 17.6339 24.736 17.5913 25.504C17.5913 26.1013 17.6126 26.464 17.6553 26.592C17.6979 26.6773 17.8686 26.6987 18.1673 26.656C18.6366 26.6133 18.9139 26.5493 18.9993 26.464C19.1273 26.336 19.4473 26.2933 19.9593 26.336C20.5139 26.336 21.0259 26.4 21.4953 26.528C22.0499 26.6987 23.3939 26.7627 25.5273 26.72C27.0206 26.6773 27.9379 26.6773 28.2793 26.72C28.6633 26.72 28.9833 26.8053 29.2393 26.976C29.6659 27.232 30.0286 27.3173 30.3273 27.232C30.7113 27.1467 30.9886 27.2533 31.1593 27.552C31.3726 27.808 31.5006 28.2987 31.5433 29.024C31.6286 29.8773 31.6073 30.4533 31.4793 30.752C31.3513 31.008 31.0313 31.1787 30.5193 31.264C30.0073 31.3067 29.4953 31.4987 28.9833 31.84C28.0873 32.48 27.1913 32.608 26.2953 32.224C25.8686 32.0533 25.3566 32.0107 24.7593 32.096C24.1619 32.1387 23.5859 32.096 23.0313 31.968C22.5193 31.84 21.9646 31.8613 21.3673 32.032C20.8126 32.16 19.7459 32.1813 18.1673 32.096C16.9726 32.0107 16.2473 31.9893 15.9913 32.032C15.7353 32.032 15.4366 32.16 15.0953 32.416C14.0286 33.184 13.0899 33.3973 12.2793 33.056C11.7673 32.8427 10.8286 32.7147 9.46325 32.672C8.09792 32.6293 7.03125 32.672 6.26325 32.8C5.53792 32.928 4.79125 32.8853 4.02325 32.672C3.25525 32.416 2.74325 32.288 2.48725 32.288C2.01792 32.288 1.59125 32.0533 1.20725 31.584C0.82325 31.072 0.63125 30.5173 0.63125 29.92C0.63125 29.664 0.780583 29.28 1.07925 28.768C1.42058 28.256 1.69792 27.9573 1.91125 27.872C2.29525 27.744 2.91392 27.6587 3.76725 27.616C4.62058 27.5307 5.26058 27.5307 5.68725 27.616C6.32725 27.744 6.83925 27.7013 7.22325 27.488C7.56458 27.232 8.22592 27.104 9.20725 27.104C10.0606 27.104 10.6153 27.04 10.8713 26.912C11.1699 26.7413 11.3406 26.3573 11.3833 25.76C11.4686 25.12 11.1913 24.48 10.5513 23.84C9.91125 23.2 9.05792 22.7093 7.99125 22.368C7.43658 22.1973 7.05258 21.8773 6.83925 21.408C6.62592 20.9387 6.28458 20.448 5.81525 19.936C4.96192 19.04 4.40725 17.9947 4.15125 16.8C3.68192 14.7947 3.57525 13.3867 3.83125 12.576C3.95925 11.9787 4.04458 11.2747 4.08725 10.464C4.25792 8.88533 4.81258 7.34933 5.75125 5.856C6.73258 4.32 7.71392 3.38133 8.69525 3.04C9.33525 2.82666 9.95392 2.44266 10.5513 1.888C11.1486 1.376 11.6606 1.03467 12.0873 0.863998ZM19.2553 6.24C18.7433 6.112 17.7833 6.00533 16.3753 5.92C14.9673 5.83467 14.0713 5.83467 13.6873 5.92C12.9193 6.13333 12.2793 6.496 11.7673 7.008C11.6393 7.136 11.3833 7.34933 10.9993 7.648C10.6579 7.86133 10.4233 8.096 10.2953 8.352C10.1673 8.56533 9.99658 9.03466 9.78325 9.76C9.56992 10.5707 9.39925 11.168 9.27125 11.552C8.88725 12.4907 8.86592 13.408 9.20725 14.304C9.20725 14.304 9.44192 14.9653 9.91125 16.288C10.1673 17.0133 10.3593 17.4827 10.4873 17.696C10.6579 17.8667 10.9353 17.9947 11.3193 18.08C11.5326 18.1227 11.9593 18.272 12.5993 18.528C13.6659 18.912 14.8179 19.0187 16.0553 18.848C17.2926 18.6347 18.3166 18.1653 19.1273 17.44C19.7673 16.928 20.3219 16.5227 20.7913 16.224C21.1326 16.0107 21.3673 15.8187 21.4953 15.648C21.6233 15.4347 21.7726 15.072 21.9433 14.56C22.1993 13.792 22.3913 13.3227 22.5193 13.152C22.8606 12.8107 22.9886 12.192 22.9033 11.296C22.8179 10.3573 22.6046 9.73866 22.2633 9.44C21.8366 9.056 21.6233 8.736 21.6233 8.48C21.6233 7.968 21.4099 7.52 20.9833 7.136C20.5566 6.70933 19.9806 6.41066 19.2553 6.24ZM3.31925 35.232C4.04458 34.6347 4.79125 34.592 5.55925 35.104C5.90058 35.3173 6.22058 35.4667 6.51925 35.552C7.07392 35.7227 7.20192 36.6187 6.90325 38.24C6.81792 38.7093 6.86058 39.3493 7.03125 40.16C7.24458 41.0987 7.41525 41.6747 7.54325 41.888C7.67125 42.0587 7.90592 42.1653 8.24725 42.208C8.67392 42.2933 9.18592 42.4213 9.78325 42.592C11.2339 42.976 12.8553 43.168 14.6473 43.168C14.7753 43.168 15.0953 43.168 15.6073 43.168C16.1619 43.1253 16.5459 43.104 16.7593 43.104C17.5699 43.104 18.2739 43.04 18.8713 42.912C19.3833 42.7413 20.9193 42.6773 23.4793 42.72C26.0819 42.72 27.5113 42.8053 27.7673 42.976C28.0233 43.104 28.3433 43.5307 28.7273 44.256C29.1113 45.024 29.3033 45.5787 29.3033 45.92C29.3033 46.6453 28.8766 47.072 28.0233 47.2C27.5966 47.2853 27.1273 47.4347 26.6153 47.648C26.1459 47.8613 25.3566 47.968 24.2473 47.968C23.1806 47.9253 21.8579 47.9467 20.2793 48.032C18.8286 48.1173 17.1859 48.1813 15.3513 48.224C13.5593 48.224 12.4286 48.2667 11.9593 48.352C11.4473 48.4373 10.9566 48.3947 10.4873 48.224C9.97525 48.0533 9.42058 47.968 8.82325 47.968C7.75658 47.968 6.92458 47.6693 6.32725 47.072C6.02858 46.816 5.62325 46.56 5.11125 46.304C4.17258 45.92 3.36192 45.1947 2.67925 44.128C2.03925 43.0613 1.71925 42.0587 1.71925 41.12C1.76192 40.992 1.78325 40.8 1.78325 40.544C1.78325 40.288 1.78325 39.9893 1.78325 39.648C1.78325 39.3067 1.78325 39.0507 1.78325 38.88C1.82592 37.344 2.33792 36.128 3.31925 35.232ZM65.1548 9.632C65.6668 9.41866 66.2641 9.44 66.9468 9.696C67.4161 9.86667 67.8001 9.952 68.0988 9.952C69.3361 9.952 69.7627 12.5333 69.3787 17.696C69.2081 20.5547 69.1228 22.88 69.1228 24.672C69.1228 25.5253 69.0161 26.1867 68.8028 26.656C68.5468 27.1253 68.4614 27.6587 68.5468 28.256C68.7174 29.3227 68.8028 31.1787 68.8028 33.824C68.8454 36.4693 68.8028 37.92 68.6748 38.176C68.5894 38.3467 68.2268 38.6667 67.5868 39.136C66.9894 39.6053 66.5841 39.8613 66.3708 39.904C66.1574 39.9467 65.8161 39.8613 65.3468 39.648C64.8774 39.392 64.5148 39.136 64.2588 38.88C64.0881 38.624 63.9601 38.1973 63.8748 37.6C63.8321 36.96 63.6828 36.4053 63.4268 35.936C63.2134 35.552 63.0641 34.464 62.9788 32.672C62.9361 30.8373 63.0001 29.536 63.1708 28.768C63.2561 28.2987 63.2348 27.808 63.1068 27.296C62.9788 26.7413 62.9788 26.208 63.1068 25.696C63.2348 25.184 63.2134 24.608 63.0428 23.968C62.8721 23.328 62.8721 22.6453 63.0428 21.92C63.4268 20.5547 63.6401 18.2293 63.6828 14.944C63.7254 12.896 63.7894 11.744 63.8748 11.488C64.0028 11.104 64.1948 10.72 64.4508 10.336C64.7494 9.952 64.9841 9.71733 65.1548 9.632ZM42.6908 10.4C43.0748 10.2293 43.8214 10.1653 44.9308 10.208C46.0828 10.2507 46.9148 10.3573 47.4268 10.528C47.8108 10.6133 48.2588 10.6347 48.7708 10.592C49.6668 10.464 50.4348 10.72 51.0748 11.36C51.5441 11.744 51.9494 12 52.2908 12.128C52.6748 12.256 53.0161 12.4907 53.3148 12.832C53.6134 13.1307 53.8054 13.4507 53.8908 13.792C53.8908 13.792 53.9121 13.92 53.9548 14.176C53.9974 14.3893 54.0401 14.5387 54.0828 14.624C54.1254 14.88 54.2748 15.1787 54.5308 15.52C54.7014 15.776 54.8081 16.096 54.8508 16.48C54.8934 16.864 54.9361 18.144 54.9788 20.32C55.0214 20.832 55.0001 21.216 54.9148 21.472C54.8294 21.728 54.5308 22.2827 54.0188 23.136C53.2934 24.3733 52.7814 25.312 52.4828 25.952C52.0988 26.6773 51.5654 27.3813 50.8828 28.064C50.2428 28.7467 49.7734 29.3653 49.4748 29.92C49.2614 30.304 48.9201 30.688 48.4508 31.072C48.0241 31.4133 46.9148 32.2453 45.1228 33.568C44.3548 34.1227 43.7574 34.592 43.3308 34.976C42.9041 35.36 42.4134 35.68 41.8588 35.936C41.3041 36.192 40.8988 36.448 40.6428 36.704C39.8748 37.3867 38.9574 37.5787 37.8908 37.28C36.8668 36.9813 36.2268 36.3413 35.9708 35.36C35.8001 34.6773 36.0134 33.888 36.6108 32.992C37.2081 32.0533 37.8694 31.52 38.5948 31.392C39.3201 31.2213 40.2801 30.624 41.4748 29.6C42.0721 29.0027 42.7121 28.512 43.3948 28.128C44.6321 27.36 45.7841 26.2293 46.8508 24.736C47.9601 23.2 48.6214 21.8133 48.8348 20.576C48.9201 19.8933 49.0268 19.488 49.1548 19.36C49.2828 19.1893 49.3468 18.8267 49.3468 18.272C49.3894 17.4613 49.0908 16.864 48.4508 16.48C47.8108 16.096 46.8081 15.904 45.4428 15.904C41.4321 15.9467 38.8508 16.096 37.6988 16.352C36.8454 16.5227 36.2054 16.5227 35.7788 16.352C35.3948 16.1387 35.1601 15.6693 35.0748 14.944C34.9041 13.7493 34.8188 13.0453 34.8188 12.832C34.8188 12.576 34.9468 12.32 35.2028 12.064C35.6294 11.5093 36.1628 11.1467 36.8028 10.976C37.4854 10.7627 38.4668 10.656 39.7468 10.656C41.2401 10.656 42.2214 10.5707 42.6908 10.4Z" fill="#6D57DE"/>
</svg>
