<svg width="110" height="99" viewBox="0 0 110 99" fill="none" xmlns="http://www.w3.org/2000/svg">
<path d="M39.0331 93.1301C38.2757 93.1301 37.5124 93.1411 36.7596 93.152C34.6215 93.1829 32.5686 93.2126 30.9802 92.9846C29.887 92.8276 28.7601 92.523 27.8884 91.8355C26.9259 91.0764 26.446 89.9905 26.446 88.6939C26.446 87.4851 26.8559 86.1768 27.4803 84.9491C28.1143 83.7025 29.0178 82.443 30.1214 81.3155C32.3091 79.0805 35.4437 77.2112 39.0331 77.2112C42.6225 77.2112 45.7571 79.0805 47.9447 81.3155C49.0483 82.443 49.9518 83.7025 50.5859 84.9491C51.2103 86.1768 51.6201 87.4851 51.6201 88.6939C51.6201 89.9905 51.1402 91.0764 50.1777 91.8355C49.3061 92.523 48.1792 92.8276 47.086 92.9846C45.4976 93.2126 43.4446 93.1829 41.3066 93.152C40.5538 93.1411 39.7904 93.1301 39.0331 93.1301Z" fill="#F36A98" stroke="#F5F5F5" stroke-width="3"/>
<g filter="url(#filter0_i_2234_1211)">
<ellipse cx="12.4729" cy="11.9899" rx="12.4729" ry="11.9899" transform="matrix(-1 0 0 1 27.9458 15.197)" fill="#F36A98"/>
</g>
<path d="M15.4729 40.6768C7.81225 40.6768 1.49997 34.6924 1.49997 27.1869C1.49997 19.6814 7.81225 13.697 15.4729 13.697C23.1335 13.697 29.4458 19.6814 29.4458 27.1869C29.4458 34.6924 23.1335 40.6768 15.4729 40.6768Z" stroke="#F5F5F5" stroke-width="3"/>
<g filter="url(#filter1_i_2234_1211)">
<ellipse cx="46.427" cy="43.4228" rx="46.427" ry="43.4228" transform="matrix(-1 0 0 1 109.02 4.17944)" fill="#FF87B0"/>
</g>
<path d="M17.6661 47.6022C17.6661 70.6626 37.6845 89.525 62.5931 89.525C87.5016 89.525 107.52 70.6626 107.52 47.6022C107.52 24.5418 87.5016 5.67944 62.5931 5.67944C37.6845 5.67944 17.6661 24.5418 17.6661 47.6022Z" stroke="#F5F5F5" stroke-width="3"/>
<path d="M78.8771 97.0185C78.1479 97.0185 77.4112 97.0295 76.6836 97.0404C74.6098 97.0714 72.6092 97.1013 71.0625 96.872C69.9953 96.7138 68.8888 96.4057 68.0336 95.7094C67.0934 94.944 66.6365 93.8614 66.6365 92.5824C66.6365 90.2626 68.1134 87.4152 70.1939 85.2211C72.3131 82.9862 75.3656 81.0996 78.8771 81.0996C82.3886 81.0996 85.4411 82.9862 87.5603 85.2211C89.6408 87.4152 91.1177 90.2626 91.1177 92.5824C91.1177 93.8614 90.6609 94.944 89.7207 95.7094C88.8654 96.4057 87.7589 96.7138 86.6918 96.872C85.145 97.1013 83.1445 97.0714 81.0706 97.0404C80.343 97.0295 79.6063 97.0185 78.8771 97.0185Z" fill="#FF87B0" stroke="#F5F5F5" stroke-width="3"/>
<g filter="url(#filter2_i_2234_1211)">
<ellipse cx="12.4729" cy="11.9899" rx="12.4729" ry="11.9899" transform="matrix(-1 0 0 1 103.477 53.4351)" fill="#FF87B0"/>
</g>
<path d="M91.0036 78.9148C83.343 78.9148 77.0307 72.9305 77.0307 65.4249C77.0307 57.9194 83.343 51.9351 91.0036 51.9351C98.6643 51.9351 104.977 57.9194 104.977 65.4249C104.977 72.9305 98.6643 78.9148 91.0036 78.9148Z" stroke="#F5F5F5" stroke-width="3"/>
<path d="M54.834 47.5957C54.834 56.4273 39.5746 57.752 38.8964 47.5957" stroke="#F5F5F5" stroke-width="2" stroke-linecap="round"/>
<path fill-rule="evenodd" clip-rule="evenodd" d="M50.9653 24.51C50.683 24.5379 50.4873 24.7755 50.5283 25.0408C50.6826 26.0406 50.8993 26.8212 51.3233 27.5036C51.3636 27.5685 51.4056 27.6322 51.4492 27.6947C51.3641 27.8245 51.2814 27.9678 51.2014 28.1235C50.7349 27.7602 50.4171 27.4206 50.1828 27.0435C49.861 26.5256 49.669 25.8928 49.5218 24.9397C49.4809 24.6745 49.2188 24.4821 48.9365 24.51C48.6542 24.5379 48.4585 24.7755 48.4995 25.0408C48.6538 26.0406 48.8705 26.8212 49.2945 27.5036C49.6558 28.0852 50.1478 28.564 50.81 29.0442C50.2407 30.6466 49.8823 32.9794 49.8823 35.5764C49.8823 40.4086 51.1232 44.3258 52.654 44.3258C54.1848 44.3258 55.4258 40.4086 55.4258 35.5764C55.4258 30.7443 54.1848 26.8271 52.654 26.8271C52.4866 26.8271 52.3227 26.8739 52.1635 26.9636C51.8704 26.4605 51.6903 25.8444 51.5506 24.9397C51.5097 24.6745 51.2476 24.4821 50.9653 24.51Z" fill="#F5F5F5"/>
<path fill-rule="evenodd" clip-rule="evenodd" d="M39.9155 24.51C39.6332 24.5379 39.4375 24.7755 39.4785 25.0408C39.6328 26.0406 39.8495 26.8212 40.2735 27.5036C40.3079 27.5591 40.3436 27.6136 40.3804 27.6672C40.2926 27.7987 40.2074 27.9443 40.125 28.1031C39.6727 27.7474 39.3624 27.4136 39.1325 27.0435C38.8107 26.5256 38.6187 25.8928 38.4715 24.9397C38.4306 24.6745 38.1685 24.4821 37.8862 24.51C37.6039 24.5379 37.4082 24.7755 37.4492 25.0408C37.6035 26.0406 37.8202 26.8212 38.2442 27.5036C38.6002 28.0766 39.083 28.5499 39.7306 29.023C39.157 30.626 38.7953 32.9679 38.7953 35.5764C38.7953 40.4086 40.0363 44.3258 41.5671 44.3258C43.0979 44.3258 44.3389 40.4086 44.3389 35.5764C44.3389 30.7443 43.0979 26.8271 41.5671 26.8271C41.4096 26.8271 41.2552 26.8686 41.1048 26.9482C40.817 26.4479 40.6391 25.8351 40.5008 24.9397C40.4599 24.6745 40.1978 24.4821 39.9155 24.51Z" fill="#F5F5F5"/>
<mask id="path-12-inside-1_2234_1211" fill="white">
<path fill-rule="evenodd" clip-rule="evenodd" d="M78.0999 15.1631L83.2316 17.2146L90.5271 26.317C91.4594 27.4801 93.3761 27.2092 94.0088 25.8248L99.7941 13.1656C100.427 11.7812 99.3116 10.2982 97.7684 10.4717L85.6929 11.8298L85.7147 11.7822L79.9062 9.46009L79.8593 9.56264L72.7804 0.730535C71.8481 -0.432615 69.9313 -0.161669 69.2987 1.2227L63.5134 13.8819C62.8807 15.2663 63.9959 16.7493 65.539 16.5758L78.0999 15.1631Z"/>
</mask>
<path fill-rule="evenodd" clip-rule="evenodd" d="M78.0999 15.1631L83.2316 17.2146L90.5271 26.317C91.4594 27.4801 93.3761 27.2092 94.0088 25.8248L99.7941 13.1656C100.427 11.7812 99.3116 10.2982 97.7684 10.4717L85.6929 11.8298L85.7147 11.7822L79.9062 9.46009L79.8593 9.56264L72.7804 0.730535C71.8481 -0.432615 69.9313 -0.161669 69.2987 1.2227L63.5134 13.8819C62.8807 15.2663 63.9959 16.7493 65.539 16.5758L78.0999 15.1631Z" fill="#FF216C"/>
<path d="M78.0999 15.1631L77.9881 14.1694L78.2378 14.1413L78.4711 14.2346L78.0999 15.1631ZM83.2316 17.2146L83.6028 16.2861L83.8472 16.3838L84.0119 16.5892L83.2316 17.2146ZM90.5271 26.317L91.3074 25.6916H91.3074L90.5271 26.317ZM94.0088 25.8248L94.9183 26.2405L94.0088 25.8248ZM99.7941 13.1656L98.8846 12.7499H98.8846L99.7941 13.1656ZM97.7684 10.4717L97.6567 9.47799H97.6567L97.7684 10.4717ZM85.6929 11.8298L85.8046 12.8235L84.049 13.021L84.7834 11.4141L85.6929 11.8298ZM85.7147 11.7822L86.0859 10.8536L87.0604 11.2432L86.6242 12.1978L85.7147 11.7822ZM79.9062 9.46009L78.9967 9.04444L79.3927 8.17786L80.2774 8.53154L79.9062 9.46009ZM79.8593 9.56264L80.7688 9.97829L80.0942 11.4546L79.079 10.188L79.8593 9.56264ZM72.7804 0.730535L72.0001 1.35594L72.7804 0.730535ZM69.2987 1.2227L70.2082 1.63835V1.63835L69.2987 1.2227ZM63.5134 13.8819L62.6038 13.4663L62.6039 13.4663L63.5134 13.8819ZM65.539 16.5758L65.6508 17.5695L65.539 16.5758ZM78.4711 14.2346L83.6028 16.2861L82.8604 18.1432L77.7287 16.0917L78.4711 14.2346ZM84.0119 16.5892L91.3074 25.6916L89.7468 26.9424L82.4513 17.84L84.0119 16.5892ZM91.3074 25.6916C91.7472 26.2403 92.7582 26.1556 93.0993 25.4092L94.9183 26.2405C93.9941 28.2627 91.1716 28.72 89.7468 26.9424L91.3074 25.6916ZM93.0993 25.4092L98.8846 12.7499L100.704 13.5812L94.9183 26.2405L93.0993 25.4092ZM98.8846 12.7499C99.1743 12.116 98.6986 11.3734 97.8802 11.4655L97.6567 9.47799C99.9245 9.22294 101.679 11.4465 100.704 13.5812L98.8846 12.7499ZM97.8802 11.4655L85.8046 12.8235L85.5811 10.8361L97.6567 9.47799L97.8802 11.4655ZM84.7834 11.4141L84.8051 11.3665L86.6242 12.1978L86.6024 12.2455L84.7834 11.4141ZM85.3435 12.7107L79.535 10.3886L80.2774 8.53154L86.0859 10.8536L85.3435 12.7107ZM80.8157 9.87574L80.7688 9.97829L78.9498 9.14699L78.9967 9.04444L80.8157 9.87574ZM79.079 10.188L72.0001 1.35594L73.5607 0.105125L80.6396 8.93723L79.079 10.188ZM72.0001 1.35594C71.5603 0.807219 70.5493 0.891893 70.2082 1.63835L68.3891 0.807044C69.3133 -1.21523 72.1359 -1.67245 73.5607 0.105125L72.0001 1.35594ZM70.2082 1.63835L64.4229 14.2976L62.6039 13.4663L68.3891 0.807043L70.2082 1.63835ZM64.4229 14.2976C64.1332 14.9316 64.6089 15.6741 65.4273 15.5821L65.6508 17.5695C63.3829 17.8246 61.6283 15.601 62.6038 13.4663L64.4229 14.2976ZM65.4273 15.5821L77.9881 14.1694L78.2116 16.1569L65.6508 17.5695L65.4273 15.5821Z" fill="#F5F5F5" mask="url(#path-12-inside-1_2234_1211)"/>
<line y1="-0.5" x2="5.66906" y2="-0.5" transform="matrix(-0.525275 -0.850932 -0.879909 0.475143 79.5415 45.4363)" stroke="#FF216C"/>
<line y1="-0.5" x2="5.66906" y2="-0.5" transform="matrix(-0.525275 -0.850932 -0.879909 0.475143 24.7959 45.4363)" stroke="#FF216C"/>
<line y1="-0.5" x2="5.66906" y2="-0.5" transform="matrix(-0.525275 -0.850932 -0.879909 0.475143 75.9468 45.4363)" stroke="#FF216C"/>
<line y1="-0.5" x2="5.66906" y2="-0.5" transform="matrix(-0.525275 -0.850932 -0.879909 0.475143 21.2012 45.4363)" stroke="#FF216C"/>
<line y1="-0.5" x2="5.66906" y2="-0.5" transform="matrix(-0.525275 -0.850932 -0.879909 0.475143 72.3525 45.4363)" stroke="#FF216C"/>
<line y1="-0.5" x2="5.66906" y2="-0.5" transform="matrix(-0.525275 -0.850932 -0.879909 0.475143 17.6064 45.4363)" stroke="#FF216C"/>
<defs>
<filter id="filter0_i_2234_1211" x="0" y="8.19702" width="34.9458" height="33.9797" filterUnits="userSpaceOnUse" color-interpolation-filters="sRGB">
<feFlood flood-opacity="0" result="BackgroundImageFix"/>
<feBlend mode="normal" in="SourceGraphic" in2="BackgroundImageFix" result="shape"/>
<feColorMatrix in="SourceAlpha" type="matrix" values="0 0 0 0 0 0 0 0 0 0 0 0 0 0 0 0 0 0 127 0" result="hardAlpha"/>
<feOffset dx="15" dy="-15"/>
<feGaussianBlur stdDeviation="2"/>
<feComposite in2="hardAlpha" operator="arithmetic" k2="-1" k3="1"/>
<feColorMatrix type="matrix" values="0 0 0 0 1 0 0 0 0 0.127821 0 0 0 0 0.424636 0 0 0 0.29 0"/>
<feBlend mode="normal" in2="shape" result="effect1_innerShadow_2234_1211"/>
</filter>
<filter id="filter1_i_2234_1211" x="16.166" y="0.179443" width="96.854" height="90.8455" filterUnits="userSpaceOnUse" color-interpolation-filters="sRGB">
<feFlood flood-opacity="0" result="BackgroundImageFix"/>
<feBlend mode="normal" in="SourceGraphic" in2="BackgroundImageFix" result="shape"/>
<feColorMatrix in="SourceAlpha" type="matrix" values="0 0 0 0 0 0 0 0 0 0 0 0 0 0 0 0 0 0 127 0" result="hardAlpha"/>
<feOffset dx="15" dy="-15"/>
<feGaussianBlur stdDeviation="2"/>
<feComposite in2="hardAlpha" operator="arithmetic" k2="-1" k3="1"/>
<feColorMatrix type="matrix" values="0 0 0 0 1 0 0 0 0 0.127821 0 0 0 0 0.424636 0 0 0 0.29 0"/>
<feBlend mode="normal" in2="shape" result="effect1_innerShadow_2234_1211"/>
</filter>
<filter id="filter2_i_2234_1211" x="75.5308" y="46.4351" width="34.9458" height="33.9797" filterUnits="userSpaceOnUse" color-interpolation-filters="sRGB">
<feFlood flood-opacity="0" result="BackgroundImageFix"/>
<feBlend mode="normal" in="SourceGraphic" in2="BackgroundImageFix" result="shape"/>
<feColorMatrix in="SourceAlpha" type="matrix" values="0 0 0 0 0 0 0 0 0 0 0 0 0 0 0 0 0 0 127 0" result="hardAlpha"/>
<feOffset dx="7" dy="-7"/>
<feGaussianBlur stdDeviation="2"/>
<feComposite in2="hardAlpha" operator="arithmetic" k2="-1" k3="1"/>
<feColorMatrix type="matrix" values="0 0 0 0 1 0 0 0 0 0.127821 0 0 0 0 0.424636 0 0 0 0.29 0"/>
<feBlend mode="normal" in2="shape" result="effect1_innerShadow_2234_1211"/>
</filter>
</defs>
</svg>
