<svg width="110" height="101" viewBox="0 0 110 101" fill="none" xmlns="http://www.w3.org/2000/svg">
<path d="M39.7152 95.1003C38.9624 95.1003 38.2254 95.1106 37.5037 95.1216C37.4416 95.1226 37.3797 95.1235 37.3178 95.1245C36.6638 95.1345 36.0203 95.1444 35.4038 95.1461C34.0666 95.1498 32.7735 95.1164 31.6479 94.9436C30.5431 94.774 29.406 94.444 28.5325 93.7074C27.5809 92.905 27.1282 91.783 27.1282 90.461C27.1282 88.0365 28.6258 85.0223 30.7691 82.6811C32.9441 80.3053 36.0877 78.2876 39.7152 78.2876C43.3427 78.2876 46.4863 80.3053 48.6613 82.6811C50.8046 85.0223 52.3022 88.0365 52.3022 90.461C52.3022 91.783 51.8495 92.905 50.8979 93.7074C50.0244 94.444 48.8873 94.774 47.7826 94.9436C46.6569 95.1164 45.3638 95.1498 44.0266 95.1461C43.4101 95.1444 42.7666 95.1345 42.1126 95.1245C42.0508 95.1235 41.9888 95.1226 41.9268 95.1216C41.2051 95.1106 40.468 95.1003 39.7152 95.1003Z" fill="#F2C200" stroke="#F5F5F5" stroke-width="3"/>
<g filter="url(#filter0_i_2055_1002)">
<ellipse cx="12.4729" cy="12.8194" rx="12.4729" ry="12.8194" transform="matrix(-1 0 0 1 28.6282 11.8792)" fill="#F2C200"/>
</g>
<path d="M16.1553 39.0179C8.39976 39.0179 2.18234 32.5679 2.18234 24.6985C2.18234 16.8292 8.39976 10.3792 16.1553 10.3792C23.9108 10.3792 30.1282 16.8292 30.1282 24.6985C30.1282 32.5679 23.9108 39.0179 16.1553 39.0179Z" stroke="#F5F5F5" stroke-width="3"/>
<g filter="url(#filter1_i_2055_1002)">
<circle cx="46.427" cy="46.427" r="46.427" transform="matrix(-1 0 0 1 109.702 0.0993652)" fill="#FFCC00"/>
</g>
<circle cx="46.427" cy="46.427" r="44.927" transform="matrix(-1 0 0 1 109.702 0.0993652)" stroke="#F5F5F5" stroke-width="3"/>
<path d="M79.559 99.2577C78.8305 99.2577 78.1171 99.2681 77.418 99.2791C77.3579 99.28 77.2978 99.281 77.2378 99.282C76.6044 99.292 75.9804 99.3019 75.3826 99.3036C74.0864 99.3073 72.8275 99.274 71.7295 99.1C70.6502 98.9289 69.5339 98.5949 68.6776 97.8495C67.7499 97.042 67.3184 95.9243 67.3184 94.6185C67.3184 92.2104 68.7619 89.2017 70.842 86.8561C72.9476 84.482 76.0084 82.4451 79.559 82.4451C83.1096 82.4451 86.1704 84.482 88.276 86.8561C90.3561 89.2017 91.7996 92.2104 91.7996 94.6185C91.7996 95.9243 91.3681 97.042 90.4404 97.8495C89.5841 98.5949 88.4678 98.9289 87.3885 99.1C86.2904 99.274 85.0316 99.3073 83.7354 99.3036C83.1376 99.3019 82.5136 99.292 81.8802 99.282C81.8202 99.281 81.7601 99.28 81.7 99.2791C81.0008 99.2681 80.2875 99.2577 79.559 99.2577Z" fill="#FFCC00" stroke="#F5F5F5" stroke-width="3"/>
<g filter="url(#filter2_i_2055_1002)">
<ellipse cx="12.4729" cy="12.8194" rx="12.4729" ry="12.8194" transform="matrix(-1 0 0 1 104.159 52.7629)" fill="#FFCC00"/>
</g>
<path d="M91.6858 79.9017C83.9303 79.9017 77.7129 73.4517 77.7129 65.5823C77.7129 57.713 83.9303 51.2629 91.6858 51.2629C99.4413 51.2629 105.659 57.713 105.659 65.5823C105.659 73.4517 99.4413 79.9017 91.6858 79.9017Z" stroke="#F5F5F5" stroke-width="3"/>
<ellipse cx="2.77176" cy="9.35469" rx="2.77176" ry="9.35469" transform="matrix(-1 0 0 1 56.1077 24.314)" fill="#F5F5F5"/>
<ellipse cx="2.77176" cy="9.35469" rx="2.77176" ry="9.35469" transform="matrix(-1 0 0 1 45.0212 24.314)" fill="#F5F5F5"/>
<path d="M55.5164 46.5195C55.5164 55.9621 40.2569 57.3785 39.5787 46.5195" stroke="#F5F5F5" stroke-width="2" stroke-linecap="round"/>
<defs>
<filter id="filter0_i_2055_1002" x="-3.31763" y="4.87915" width="34.9458" height="35.6387" filterUnits="userSpaceOnUse" color-interpolation-filters="sRGB">
<feFlood flood-opacity="0" result="BackgroundImageFix"/>
<feBlend mode="normal" in="SourceGraphic" in2="BackgroundImageFix" result="shape"/>
<feColorMatrix in="SourceAlpha" type="matrix" values="0 0 0 0 0 0 0 0 0 0 0 0 0 0 0 0 0 0 127 0" result="hardAlpha"/>
<feOffset dx="-7" dy="-7"/>
<feGaussianBlur stdDeviation="2"/>
<feComposite in2="hardAlpha" operator="arithmetic" k2="-1" k3="1"/>
<feColorMatrix type="matrix" values="0 0 0 0 0.631565 0 0 0 0 0.538941 0 0 0 0 0.168444 0 0 0 0.3 0"/>
<feBlend mode="normal" in2="shape" result="effect1_innerShadow_2055_1002"/>
</filter>
<filter id="filter1_i_2055_1002" x="12.8481" y="-3.90063" width="96.854" height="96.854" filterUnits="userSpaceOnUse" color-interpolation-filters="sRGB">
<feFlood flood-opacity="0" result="BackgroundImageFix"/>
<feBlend mode="normal" in="SourceGraphic" in2="BackgroundImageFix" result="shape"/>
<feColorMatrix in="SourceAlpha" type="matrix" values="0 0 0 0 0 0 0 0 0 0 0 0 0 0 0 0 0 0 127 0" result="hardAlpha"/>
<feOffset dx="-15" dy="-15"/>
<feGaussianBlur stdDeviation="2"/>
<feComposite in2="hardAlpha" operator="arithmetic" k2="-1" k3="1"/>
<feColorMatrix type="matrix" values="0 0 0 0 0.631565 0 0 0 0 0.538941 0 0 0 0 0.168444 0 0 0 0.3 0"/>
<feBlend mode="normal" in2="shape" result="effect1_innerShadow_2055_1002"/>
</filter>
<filter id="filter2_i_2055_1002" x="72.2129" y="45.7629" width="34.9458" height="35.6387" filterUnits="userSpaceOnUse" color-interpolation-filters="sRGB">
<feFlood flood-opacity="0" result="BackgroundImageFix"/>
<feBlend mode="normal" in="SourceGraphic" in2="BackgroundImageFix" result="shape"/>
<feColorMatrix in="SourceAlpha" type="matrix" values="0 0 0 0 0 0 0 0 0 0 0 0 0 0 0 0 0 0 127 0" result="hardAlpha"/>
<feOffset dx="-7" dy="-7"/>
<feGaussianBlur stdDeviation="2"/>
<feComposite in2="hardAlpha" operator="arithmetic" k2="-1" k3="1"/>
<feColorMatrix type="matrix" values="0 0 0 0 0.631565 0 0 0 0 0.538941 0 0 0 0 0.168444 0 0 0 0.3 0"/>
<feBlend mode="normal" in2="shape" result="effect1_innerShadow_2055_1002"/>
</filter>
</defs>
</svg>
