<svg width="110" height="106" viewBox="0 0 110 106" fill="none" xmlns="http://www.w3.org/2000/svg">
<path d="M70.8607 100.1C71.6135 100.1 72.3506 100.111 73.0723 100.122C73.1343 100.123 73.1963 100.124 73.2581 100.124C73.9121 100.135 74.5557 100.144 75.1721 100.146C76.5093 100.15 77.8024 100.116 78.9281 99.9436C80.0328 99.774 81.1699 99.444 82.0435 98.7074C82.995 97.905 83.4478 96.783 83.4478 95.461C83.4478 93.0365 81.9502 90.0223 79.8068 87.6811C77.6318 85.3053 74.4882 83.2876 70.8607 83.2876C67.2333 83.2876 64.0896 85.3053 61.9146 87.6811C59.7713 90.0223 58.2737 93.0365 58.2737 95.461C58.2737 96.783 58.7264 97.905 59.678 98.7074C60.5515 99.444 61.6886 99.774 62.7934 99.9436C63.919 100.116 65.2121 100.15 66.5493 100.146C67.1658 100.144 67.8093 100.135 68.4633 100.124C68.5252 100.124 68.5871 100.123 68.6492 100.122C69.3709 100.111 70.1079 100.1 70.8607 100.1Z" fill="#F36A98" stroke="#F5F5F5" stroke-width="3"/>
<g filter="url(#filter0_i_2093_1060)">
<ellipse cx="94.4207" cy="29.699" rx="12.4729" ry="12.8194" fill="#F36A98"/>
</g>
<path d="M94.4207 44.0184C102.176 44.0184 108.394 37.5684 108.394 29.699C108.394 21.8297 102.176 15.3796 94.4207 15.3796C86.6652 15.3796 80.4478 21.8297 80.4478 29.699C80.4478 37.5684 86.6652 44.0184 94.4207 44.0184Z" stroke="#F5F5F5" stroke-width="3"/>
<g filter="url(#filter1_i_2093_1060)">
<circle cx="47.3007" cy="51.5266" r="46.427" fill="#FF87B0"/>
</g>
<circle cx="47.3007" cy="51.5266" r="44.927" stroke="#F5F5F5" stroke-width="3"/>
<path d="M31.0167 104.258C31.7451 104.258 32.4585 104.268 33.1577 104.279C33.2178 104.28 33.2779 104.281 33.3379 104.282C33.9713 104.292 34.5953 104.302 35.1931 104.304C36.4893 104.308 37.7481 104.274 38.8462 104.1C39.9255 103.929 41.0417 103.595 41.8981 102.85C42.8258 102.042 43.2573 100.925 43.2573 99.6187C43.2573 97.2106 41.8138 94.2019 39.7336 91.8564C37.6281 89.4823 34.5673 87.4453 31.0167 87.4453C27.4661 87.4453 24.4053 89.4823 22.2997 91.8564C20.2195 94.2019 18.7761 97.2106 18.7761 99.6187C18.7761 100.925 19.2076 102.042 20.1353 102.85C20.9916 103.595 22.1079 103.929 23.1872 104.1C24.2852 104.274 25.5441 104.308 26.8403 104.304C27.4381 104.302 28.0621 104.292 28.6955 104.282C28.7555 104.281 28.8156 104.28 28.8757 104.279C29.5748 104.268 30.2882 104.258 31.0167 104.258Z" fill="#FF87B0" stroke="#F5F5F5" stroke-width="3"/>
<g filter="url(#filter2_i_2093_1060)">
<ellipse cx="18.8902" cy="70.5823" rx="12.4729" ry="12.8194" fill="#FF87B0"/>
</g>
<path d="M18.8902 84.9017C26.6457 84.9017 32.8631 78.4517 32.8631 70.5823C32.8631 62.713 26.6457 56.2629 18.8902 56.2629C11.1346 56.2629 4.91724 62.713 4.91724 70.5823C4.91724 78.4517 11.1346 84.9017 18.8902 84.9017Z" stroke="#F5F5F5" stroke-width="3"/>
<path d="M55.0596 51.5198C55.0596 60.9624 70.319 62.3788 70.9972 51.5198" stroke="#F5F5F5" stroke-width="2" stroke-linecap="round"/>
<path fill-rule="evenodd" clip-rule="evenodd" d="M58.9251 26.8588C59.2009 26.8945 59.3927 27.1435 59.3535 27.4149C59.1993 28.4825 58.9835 29.3111 58.5635 30.0339C58.524 30.102 58.4828 30.1688 58.44 30.2344C58.5283 30.3777 58.6139 30.5364 58.6967 30.7093C59.1621 30.3209 59.4817 29.9558 59.718 29.549C60.0438 28.9883 60.2367 28.3058 60.384 27.2854C60.4232 27.0141 60.6786 26.823 60.9543 26.8588C61.2301 26.8945 61.4219 27.1435 61.3827 27.4149C61.2285 28.4825 61.0127 29.3111 60.5927 30.0339C60.2338 30.6516 59.7439 31.1612 59.0804 31.6746C59.6516 33.3881 60.0115 35.8867 60.0115 38.669C60.0115 43.8354 58.7706 48.0236 57.2398 48.0236C55.709 48.0236 54.468 43.8354 54.468 38.669C54.468 33.5025 55.709 29.3143 57.2398 29.3143C57.4094 29.3143 57.5754 29.3657 57.7366 29.4641C58.0337 28.9194 58.2149 28.2549 58.3548 27.2854C58.394 27.0141 58.6494 26.823 58.9251 26.8588Z" fill="#F5F5F5"/>
<path fill-rule="evenodd" clip-rule="evenodd" d="M69.975 26.8588C70.2508 26.8945 70.4426 27.1435 70.4034 27.4149C70.2492 28.4825 70.0334 29.3111 69.6134 30.0339C69.5797 30.092 69.5448 30.1491 69.5087 30.2054C69.5995 30.3502 69.6876 30.5112 69.7727 30.6872C70.2239 30.307 70.5358 29.9481 70.7677 29.549C71.0934 28.9883 71.2863 28.3058 71.4337 27.2854C71.4729 27.0141 71.7282 26.823 72.004 26.8588C72.2797 26.8945 72.4715 27.1435 72.4323 27.4149C72.2782 28.4825 72.0623 29.3111 71.6424 30.0339C71.2888 30.6424 70.808 31.1461 70.1594 31.6518C70.7351 33.3659 71.0982 35.8743 71.0982 38.669C71.0982 43.8354 69.8572 48.0236 68.3264 48.0236C66.7956 48.0236 65.5547 43.8354 65.5547 38.669C65.5547 33.5025 66.7956 29.3143 68.3264 29.3143C68.4863 29.3143 68.643 29.3599 68.7955 29.4476C69.0873 28.906 69.2662 28.2451 69.4048 27.2854C69.444 27.0141 69.6993 26.823 69.975 26.8588Z" fill="#F5F5F5"/>
<mask id="path-12-inside-1_2093_1060" fill="white">
<path fill-rule="evenodd" clip-rule="evenodd" d="M31.7932 16.8435L26.6618 19.0368L19.3698 28.7642C18.4464 29.996 16.5356 29.7663 15.9305 28.3506L10.0531 14.6001C9.448 13.1844 10.6024 11.6445 12.1309 11.8283L24.2004 13.2796L24.1786 13.2286L29.9871 10.7459L30.0339 10.8555L37.1091 1.41736C38.0326 0.185466 39.9433 0.415221 40.5484 1.83092L46.4258 15.5814C47.0309 16.9971 45.8766 18.537 44.348 18.3532L31.7932 16.8435Z"/>
</mask>
<path fill-rule="evenodd" clip-rule="evenodd" d="M31.7932 16.8435L26.6618 19.0368L19.3698 28.7642C18.4464 29.996 16.5356 29.7663 15.9305 28.3506L10.0531 14.6001C9.448 13.1844 10.6024 11.6445 12.1309 11.8283L24.2004 13.2796L24.1786 13.2286L29.9871 10.7459L30.0339 10.8555L37.1091 1.41736C38.0326 0.185466 39.9433 0.415221 40.5484 1.83092L46.4258 15.5814C47.0309 16.9971 45.8766 18.537 44.348 18.3532L31.7932 16.8435Z" fill="#FF216C"/>
<path d="M31.7932 16.8435L31.9126 15.8507L31.6465 15.8187L31.4001 15.924L31.7932 16.8435ZM26.6618 19.0368L26.2688 18.1173L26.0224 18.2226L25.8617 18.437L26.6618 19.0368ZM19.3698 28.7642L18.5697 28.1643H18.5697L19.3698 28.7642ZM15.9305 28.3506L15.011 28.7436L15.9305 28.3506ZM10.0531 14.6001L10.9726 14.207L10.9726 14.207L10.0531 14.6001ZM12.1309 11.8283L12.0116 12.8212H12.0116L12.1309 11.8283ZM24.2004 13.2796L24.081 14.2725L25.8007 14.4792L25.1199 12.8866L24.2004 13.2796ZM24.1786 13.2286L23.7855 12.309L22.866 12.7021L23.2591 13.6216L24.1786 13.2286ZM29.9871 10.7459L30.9066 10.3528L30.5135 9.4333L29.594 9.82633L29.9871 10.7459ZM30.0339 10.8555L29.1144 11.2485L29.7952 12.8412L30.8341 11.4553L30.0339 10.8555ZM37.1091 1.41736L36.309 0.817541V0.817542L37.1091 1.41736ZM40.5484 1.83092L39.6289 2.22396V2.22396L40.5484 1.83092ZM46.4258 15.5814L47.3454 15.1884V15.1884L46.4258 15.5814ZM44.348 18.3532L44.2286 19.3461H44.2286L44.348 18.3532ZM31.4001 15.924L26.2688 18.1173L27.0548 19.9564L32.1862 17.7631L31.4001 15.924ZM25.8617 18.437L18.5697 28.1643L20.17 29.364L27.4619 19.6367L25.8617 18.437ZM18.5697 28.1643C18.108 28.7803 17.1526 28.6654 16.85 27.9576L15.011 28.7436C15.9187 30.8672 18.7848 31.2118 20.17 29.364L18.5697 28.1643ZM16.85 27.9576L10.9726 14.207L9.13359 14.9931L15.011 28.7436L16.85 27.9576ZM10.9726 14.207C10.6701 13.4992 11.2473 12.7292 12.0116 12.8212L12.2503 10.8355C9.95744 10.5597 8.22592 12.8695 9.13359 14.9931L10.9726 14.207ZM12.0116 12.8212L24.081 14.2725L24.3198 12.2868L12.2503 10.8355L12.0116 12.8212ZM25.1199 12.8866L25.0981 12.8355L23.2591 13.6216L23.2809 13.6727L25.1199 12.8866ZM24.5716 14.1481L30.3801 11.6654L29.594 9.82633L23.7855 12.309L24.5716 14.1481ZM29.0675 11.1389L29.1144 11.2485L30.9534 10.4625L30.9066 10.3528L29.0675 11.1389ZM30.8341 11.4553L37.9093 2.01717L36.309 0.817542L29.2338 10.2557L30.8341 11.4553ZM37.9093 2.01717C38.371 1.40123 39.3264 1.51611 39.6289 2.22396L41.468 1.43789C40.5603 -0.685664 37.6942 -1.03029 36.309 0.817541L37.9093 2.01717ZM39.6289 2.22396L45.5063 15.9745L47.3454 15.1884L41.468 1.43789L39.6289 2.22396ZM45.5063 15.9745C45.8089 16.6823 45.2317 17.4523 44.4674 17.3604L44.2286 19.3461C46.5215 19.6218 48.253 17.312 47.3454 15.1884L45.5063 15.9745ZM44.4674 17.3604L31.9126 15.8507L31.6738 17.8364L44.2286 19.3461L44.4674 17.3604Z" fill="#F5F5F5" mask="url(#path-12-inside-1_2093_1060)"/>
<line x1="29.9193" y1="48.9612" x2="32.8971" y2="43.8035" stroke="#FF216C"/>
<line x1="84.6651" y1="48.9612" x2="87.643" y2="43.8035" stroke="#FF216C"/>
<line x1="33.514" y1="48.9612" x2="36.4918" y2="43.8035" stroke="#FF216C"/>
<line x1="88.2599" y1="48.9612" x2="91.2377" y2="43.8035" stroke="#FF216C"/>
<line x1="37.1085" y1="48.9612" x2="40.0863" y2="43.8035" stroke="#FF216C"/>
<line x1="91.8541" y1="48.9612" x2="94.8319" y2="43.8035" stroke="#FF216C"/>
<defs>
<filter id="filter0_i_2093_1060" x="78.9478" y="9.87964" width="34.9458" height="35.6387" filterUnits="userSpaceOnUse" color-interpolation-filters="sRGB">
<feFlood flood-opacity="0" result="BackgroundImageFix"/>
<feBlend mode="normal" in="SourceGraphic" in2="BackgroundImageFix" result="shape"/>
<feColorMatrix in="SourceAlpha" type="matrix" values="0 0 0 0 0 0 0 0 0 0 0 0 0 0 0 0 0 0 127 0" result="hardAlpha"/>
<feOffset dx="15" dy="-15"/>
<feGaussianBlur stdDeviation="2"/>
<feComposite in2="hardAlpha" operator="arithmetic" k2="-1" k3="1"/>
<feColorMatrix type="matrix" values="0 0 0 0 1 0 0 0 0 0.127821 0 0 0 0 0.424636 0 0 0 0.29 0"/>
<feBlend mode="normal" in2="shape" result="effect1_innerShadow_2093_1060"/>
</filter>
<filter id="filter1_i_2093_1060" x="0.873779" y="1.09961" width="96.854" height="96.854" filterUnits="userSpaceOnUse" color-interpolation-filters="sRGB">
<feFlood flood-opacity="0" result="BackgroundImageFix"/>
<feBlend mode="normal" in="SourceGraphic" in2="BackgroundImageFix" result="shape"/>
<feColorMatrix in="SourceAlpha" type="matrix" values="0 0 0 0 0 0 0 0 0 0 0 0 0 0 0 0 0 0 127 0" result="hardAlpha"/>
<feOffset dx="15" dy="-15"/>
<feGaussianBlur stdDeviation="2"/>
<feComposite in2="hardAlpha" operator="arithmetic" k2="-1" k3="1"/>
<feColorMatrix type="matrix" values="0 0 0 0 1 0 0 0 0 0.127821 0 0 0 0 0.424636 0 0 0 0.29 0"/>
<feBlend mode="normal" in2="shape" result="effect1_innerShadow_2093_1060"/>
</filter>
<filter id="filter2_i_2093_1060" x="3.41724" y="50.7629" width="34.9458" height="35.6387" filterUnits="userSpaceOnUse" color-interpolation-filters="sRGB">
<feFlood flood-opacity="0" result="BackgroundImageFix"/>
<feBlend mode="normal" in="SourceGraphic" in2="BackgroundImageFix" result="shape"/>
<feColorMatrix in="SourceAlpha" type="matrix" values="0 0 0 0 0 0 0 0 0 0 0 0 0 0 0 0 0 0 127 0" result="hardAlpha"/>
<feOffset dx="7" dy="-7"/>
<feGaussianBlur stdDeviation="2"/>
<feComposite in2="hardAlpha" operator="arithmetic" k2="-1" k3="1"/>
<feColorMatrix type="matrix" values="0 0 0 0 1 0 0 0 0 0.127821 0 0 0 0 0.424636 0 0 0 0.29 0"/>
<feBlend mode="normal" in2="shape" result="effect1_innerShadow_2093_1060"/>
</filter>
</defs>
</svg>
