<svg width="55" height="55" viewBox="0 0 55 55" fill="none" xmlns="http://www.w3.org/2000/svg">
<path d="M21.8855 34.7188L41.3074 15.2969C41.7657 14.8385 42.3004 14.6094 42.9115 14.6094C43.5227 14.6094 44.0574 14.8385 44.5157 15.2969C44.974 15.7552 45.2032 16.2999 45.2032 16.9308C45.2032 17.5618 44.974 18.1057 44.5157 18.5625L23.4897 39.6458C23.0313 40.1042 22.4966 40.3333 21.8855 40.3333C21.2744 40.3333 20.7397 40.1042 20.2813 39.6458L10.4272 29.7917C9.96884 29.3333 9.74884 28.7894 9.76717 28.16C9.7855 27.5306 10.0246 26.9859 10.4845 26.526C10.9443 26.0662 11.489 25.837 12.1184 25.8385C12.7479 25.8401 13.2918 26.0692 13.7501 26.526L21.8855 34.7188Z" fill="#6D57DE"/>
</svg>
