<svg width="14" height="19" viewBox="0 0 14 19" fill="none" xmlns="http://www.w3.org/2000/svg">
<path d="M1.98 19C1.436 19 0.97 18.8197 0.582 18.459C0.194 18.0977 0 17.651 0 17.119V3.766C0 3.24733 0.176667 2.79266 0.53 2.402C0.883334 2.01133 1.31867 1.762 1.836 1.654L8.664 0.216995C9.16467 0.109662 9.615 0.214329 10.015 0.530995C10.415 0.847662 10.615 1.265 10.615 1.783V13.11C10.615 13.4913 10.494 13.828 10.252 14.12C10.01 14.412 9.70667 14.5993 9.342 14.682L1.756 16.333C1.55467 16.3797 1.37833 16.4717 1.227 16.609C1.07567 16.7463 1 16.9167 1 17.12C1 17.38 1.09733 17.5917 1.292 17.755C1.48667 17.9183 1.71633 18 1.981 18H12.385C12.5643 18 12.7117 17.9423 12.827 17.827C12.9423 17.7117 13 17.564 13 17.384V3.5C13 3.358 13.0477 3.239 13.143 3.143C13.2383 3.047 13.3573 2.99933 13.5 3C13.6427 3.00066 13.7617 3.04833 13.857 3.143C13.9523 3.23766 14 3.35666 14 3.5V17.385C14 17.8317 13.8427 18.2127 13.528 18.528C13.2133 18.8427 12.8323 19 12.385 19H1.98ZM3.385 14.983L9.135 13.738C9.27567 13.7127 9.391 13.6423 9.481 13.527C9.571 13.4117 9.616 13.2833 9.616 13.142V1.808C9.616 1.61533 9.539 1.455 9.385 1.327C9.231 1.199 9.05767 1.154 8.865 1.192L3.386 2.36L3.385 14.983ZM2.385 15.19V2.568L1.952 2.663C1.67867 2.72166 1.452 2.852 1.272 3.054C1.09067 3.25533 1 3.49266 1 3.766V15.633C1.122 15.561 1.24467 15.4997 1.368 15.449C1.49133 15.3983 1.62067 15.3583 1.756 15.329L2.385 15.19Z" fill="#333333"/>
</svg>
