<svg width="37" height="38" viewBox="0 0 37 38" fill="none" xmlns="http://www.w3.org/2000/svg">
<g clip-path="url(#clip0_3105_1146)">
<path d="M32.0144 16.8207L32.0264 16.8087L31.991 16.7733L19.1438 3.92611L19.1437 3.926C18.9739 3.75717 18.7441 3.6624 18.5046 3.6624C18.2652 3.6624 18.0354 3.75717 17.8656 3.926L17.8655 3.92611L5.01825 16.7733L5.01814 16.7732L5.01563 16.7762C4.86712 16.9496 4.78952 17.1726 4.79833 17.4008C4.80714 17.6289 4.90172 17.8453 5.06316 18.0068C5.2246 18.1682 5.44101 18.2628 5.66915 18.2716C5.89729 18.2804 6.12035 18.2028 6.29377 18.0543L6.29386 18.0544L6.2966 18.0517L18.5003 5.84792L30.7041 18.0602L30.704 18.0603L30.707 18.0629C30.8804 18.2114 31.1034 18.289 31.3316 18.2802C31.5597 18.2713 31.7761 18.1768 31.9376 18.0153C32.099 17.8539 32.1936 17.6375 32.2024 17.4093C32.2106 17.1967 32.1437 16.9884 32.0144 16.8207Z" fill="#333333" stroke="#333333" stroke-width="0.1"/>
<path d="M15.9805 31.1204V22.6056H21.0194V31.1204V31.1704H21.0694H27.0648C27.5323 31.1704 27.9807 30.9847 28.3114 30.6541C28.642 30.3235 28.8277 29.875 28.8277 29.4075V18.9241V18.9034L28.8131 18.8888L27.1001 17.1758L27.0148 17.0905V17.2112V29.3575H22.8324V20.8427V20.7927H22.7824H14.2175H14.1675V20.8427V29.3575H9.98513V17.4167V17.296L9.89978 17.3814L8.18681 19.0943L8.17217 19.109V19.1297V29.4075C8.17217 29.875 8.35791 30.3235 8.68853 30.6541C9.01915 30.9847 9.46756 31.1704 9.93513 31.1704H15.9305H15.9805V31.1204Z" fill="#333333" stroke="#333333" stroke-width="0.1"/>
</g>
<defs>
<clipPath id="clip0_3105_1146">
<rect width="30.8333" height="30.8333" fill="white" transform="translate(3.0835 2)"/>
</clipPath>
</defs>
</svg>
