<svg width="24" height="24" viewBox="0 0 24 24" fill="none" xmlns="http://www.w3.org/2000/svg">
<g clip-path="url(#clip0_6_277)">
<path d="M20.7276 11.6055L12.3943 3.27221C12.2902 3.16874 12.1494 3.11066 12.0026 3.11066C11.8559 3.11066 11.7151 3.16874 11.611 3.27221L3.27763 11.6055C3.18662 11.7118 3.13906 11.8485 3.14446 11.9883C3.14986 12.1282 3.20782 12.2608 3.30676 12.3597C3.4057 12.4587 3.53834 12.5166 3.67816 12.522C3.81798 12.5274 3.95468 12.4799 4.06096 12.3889L11.9999 4.44999L19.9387 12.3944C20.045 12.4854 20.1817 12.533 20.3215 12.5276C20.4614 12.5222 20.594 12.4642 20.6929 12.3653C20.7919 12.2664 20.8498 12.1337 20.8552 11.9939C20.8606 11.8541 20.8131 11.7174 20.7221 11.6111L20.7276 11.6055Z" fill="#333333"/>
<path d="M17.5557 19.7778H14.7779V14.2222H9.22238V19.7778H6.44461V12L5.3335 13.1111V19.7778C5.3335 20.0725 5.45056 20.3551 5.65893 20.5635C5.86731 20.7718 6.14992 20.8889 6.44461 20.8889H10.3335V15.3333H13.6668V20.8889H17.5557C17.8504 20.8889 18.133 20.7718 18.3414 20.5635C18.5498 20.3551 18.6668 20.0725 18.6668 19.7778V12.9778L17.5557 11.8667V19.7778Z" fill="#333333"/>
</g>
<defs>
<clipPath id="clip0_6_277">
<rect width="20" height="20" fill="white" transform="translate(2 2)"/>
</clipPath>
</defs>
</svg>
