<svg width="35" height="35" viewBox="0 0 35 35" fill="none" xmlns="http://www.w3.org/2000/svg">
<path d="M22.3352 18.4275L15.4486 24.99C15.3208 25.1118 15.1691 25.2084 15.0021 25.2743C14.8351 25.3403 14.6561 25.3742 14.4753 25.3742C14.2945 25.3742 14.1156 25.3403 13.9486 25.2743C13.7816 25.2084 13.6298 25.1118 13.502 24.99C13.3742 24.8682 13.2728 24.7236 13.2036 24.5645C13.1345 24.4053 13.0989 24.2348 13.0989 24.0625C13.0989 23.8902 13.1345 23.7197 13.2036 23.5605C13.2728 23.4014 13.3742 23.2568 13.502 23.135L18.0361 18.8125H5.75231C5.38703 18.8125 5.0367 18.6742 4.77841 18.4281C4.52011 18.1819 4.375 17.8481 4.375 17.5C4.375 17.1519 4.52011 16.8181 4.77841 16.5719C5.0367 16.3258 5.38703 16.1875 5.75231 16.1875H18.0361L13.502 11.865C13.3742 11.7432 13.2728 11.5986 13.2036 11.4395C13.1345 11.2803 13.0989 11.1098 13.0989 10.9375C13.0989 10.5896 13.2439 10.256 13.502 10.01C13.7601 9.76401 14.1102 9.62582 14.4753 9.62582C14.8404 9.62582 15.1905 9.76401 15.4486 10.01L22.3352 16.5725C22.5931 16.8186 22.738 17.1522 22.738 17.5C22.738 17.8478 22.5931 18.1814 22.3352 18.4275ZM26.412 24.9375V10.0625C26.412 9.7144 26.5571 9.38056 26.8154 9.13442C27.0737 8.88828 27.4241 8.75 27.7894 8.75C28.1546 8.75 28.505 8.88828 28.7633 9.13442C29.0216 9.38056 29.1667 9.7144 29.1667 10.0625V24.9375C29.1667 25.2856 29.0216 25.6194 28.7633 25.8656C28.505 26.1117 28.1546 26.25 27.7894 26.25C27.4241 26.25 27.0737 26.1117 26.8154 25.8656C26.5571 25.6194 26.412 25.2856 26.412 24.9375Z" fill="#F5F5F5"/>
</svg>
