<svg width="174" height="163" viewBox="0 0 174 163" fill="none" xmlns="http://www.w3.org/2000/svg">
<path d="M29.64 0.360004C30.6 0.0400021 32.68 -0.0666664 35.88 0.0399989C39.1867 0.146671 41.4267 0.360004 42.6 0.68C43.6667 1.10667 45 1.32 46.6 1.32C49.9067 1.32 53.5867 2.6 57.64 5.16C61.6933 7.72001 64.2 10.3867 65.16 13.16C65.8 14.9733 66.4933 16.6267 67.24 18.12C68.84 21.4267 69.6933 24.04 69.8 25.96C70.0133 27.88 69.5867 30.44 68.52 33.64C67.4533 36.84 66.76 39.3467 66.44 41.16C65.9067 43.9333 63.4 47.1333 58.92 50.76C54.5467 54.28 50.44 56.4667 46.6 57.32C45.2133 57.64 44.36 58.0133 44.04 58.44C43.72 58.8667 43.5067 60.04 43.4 61.96C43.4 63.4533 43.4533 64.36 43.56 64.68C43.6667 64.8933 44.0933 64.9467 44.84 64.84C46.0133 64.7333 46.7067 64.5733 46.92 64.36C47.24 64.04 48.04 63.9333 49.32 64.04C50.7067 64.04 51.9867 64.2 53.16 64.52C54.5467 64.9467 57.9067 65.1067 63.24 65C66.9733 64.8933 69.2667 64.8933 70.12 65C71.08 65 71.88 65.2133 72.52 65.64C73.5867 66.28 74.4933 66.4933 75.24 66.28C76.2 66.0667 76.8933 66.3333 77.32 67.08C77.8533 67.72 78.1733 68.9467 78.28 70.76C78.4933 72.8933 78.44 74.3333 78.12 75.08C77.8 75.72 77 76.1467 75.72 76.36C74.44 76.4667 73.16 76.9467 71.88 77.8C69.64 79.4 67.4 79.72 65.16 78.76C64.0933 78.3333 62.8133 78.2267 61.32 78.44C59.8267 78.5467 58.3867 78.44 57 78.12C55.72 77.8 54.3333 77.8533 52.84 78.28C51.4533 78.6 48.7867 78.6533 44.84 78.44C41.8533 78.2267 40.04 78.1733 39.4 78.28C38.76 78.28 38.0133 78.6 37.16 79.24C34.4933 81.16 32.1467 81.6933 30.12 80.84C28.84 80.3067 26.4933 79.9867 23.08 79.88C19.6667 79.7733 17 79.88 15.08 80.2C13.2667 80.52 11.4 80.4133 9.48 79.88C7.56 79.24 6.28 78.92 5.64 78.92C4.46667 78.92 3.4 78.3333 2.44 77.16C1.48 75.88 1 74.4933 1 73C1 72.36 1.37333 71.4 2.12 70.12C2.97333 68.84 3.66667 68.0933 4.2 67.88C5.16 67.56 6.70667 67.3467 8.84 67.24C10.9733 67.0267 12.5733 67.0267 13.64 67.24C15.24 67.56 16.52 67.4533 17.48 66.92C18.3333 66.28 19.9867 65.96 22.44 65.96C24.5733 65.96 25.96 65.8 26.6 65.48C27.3467 65.0533 27.7733 64.0933 27.88 62.6C28.0933 61 27.4 59.4 25.8 57.8C24.2 56.2 22.0667 54.9733 19.4 54.12C18.0133 53.6933 17.0533 52.8933 16.52 51.72C15.9867 50.5467 15.1333 49.32 13.96 48.04C11.8267 45.8 10.44 43.1867 9.8 40.2C8.62667 35.1867 8.36 31.6667 9 29.64C9.32 28.1467 9.53333 26.3867 9.64 24.36C10.0667 20.4133 11.4533 16.5733 13.8 12.84C16.2533 9 18.7067 6.65334 21.16 5.8C22.76 5.26667 24.3067 4.30667 25.8 2.92C27.2933 1.64 28.5733 0.786672 29.64 0.360004ZM47.56 13.8C46.28 13.48 43.88 13.2133 40.36 13C36.84 12.7867 34.6 12.7867 33.64 13C31.72 13.5333 30.12 14.44 28.84 15.72C28.52 16.04 27.88 16.5733 26.92 17.32C26.0667 17.8533 25.48 18.44 25.16 19.08C24.84 19.6133 24.4133 20.7867 23.88 22.6C23.3467 24.6267 22.92 26.12 22.6 27.08C21.64 29.4267 21.5867 31.72 22.44 33.96C22.44 33.96 23.0267 35.6133 24.2 38.92C24.84 40.7333 25.32 41.9067 25.64 42.44C26.0667 42.8667 26.76 43.1867 27.72 43.4C28.2533 43.5067 29.32 43.88 30.92 44.52C33.5867 45.48 36.4667 45.7467 39.56 45.32C42.6533 44.7867 45.2133 43.6133 47.24 41.8C48.84 40.52 50.2267 39.5067 51.4 38.76C52.2533 38.2267 52.84 37.7467 53.16 37.32C53.48 36.7867 53.8533 35.88 54.28 34.6C54.92 32.68 55.4 31.5067 55.72 31.08C56.5733 30.2267 56.8933 28.68 56.68 26.44C56.4667 24.0933 55.9333 22.5467 55.08 21.8C54.0133 20.84 53.48 20.04 53.48 19.4C53.48 18.12 52.9467 17 51.88 16.04C50.8133 14.9733 49.3733 14.2267 47.56 13.8ZM7.72 86.28C9.53333 84.7867 11.4 84.68 13.32 85.96C14.1733 86.4933 14.9733 86.8667 15.72 87.08C17.1067 87.5067 17.4267 89.7467 16.68 93.8C16.4667 94.9733 16.5733 96.5733 17 98.6C17.5333 100.947 17.96 102.387 18.28 102.92C18.6 103.347 19.1867 103.613 20.04 103.72C21.1067 103.933 22.3867 104.253 23.88 104.68C27.5067 105.64 31.56 106.12 36.04 106.12C36.36 106.12 37.16 106.12 38.44 106.12C39.8267 106.013 40.7867 105.96 41.32 105.96C43.3467 105.96 45.1067 105.8 46.6 105.48C47.88 105.053 51.72 104.893 58.12 105C64.6267 105 68.2 105.213 68.84 105.64C69.48 105.96 70.28 107.027 71.24 108.84C72.2 110.76 72.68 112.147 72.68 113C72.68 114.813 71.6133 115.88 69.48 116.2C68.4133 116.413 67.24 116.787 65.96 117.32C64.7867 117.853 62.8133 118.12 60.04 118.12C57.3733 118.013 54.0667 118.067 50.12 118.28C46.4933 118.493 42.3867 118.653 37.8 118.76C33.32 118.76 30.4933 118.867 29.32 119.08C28.04 119.293 26.8133 119.187 25.64 118.76C24.36 118.333 22.9733 118.12 21.48 118.12C18.8133 118.12 16.7333 117.373 15.24 115.88C14.4933 115.24 13.48 114.6 12.2 113.96C9.85333 113 7.82667 111.187 6.12 108.52C4.52 105.853 3.72 103.347 3.72 101C3.82667 100.68 3.88 100.2 3.88 99.56C3.88 98.92 3.88 98.1733 3.88 97.32C3.88 96.4667 3.88 95.8267 3.88 95.4C3.98667 91.56 5.26667 88.52 7.72 86.28ZM162.309 22.28C163.589 21.7467 165.082 21.8 166.789 22.44C167.962 22.8667 168.922 23.08 169.669 23.08C172.762 23.08 173.829 29.5333 172.869 42.44C172.442 49.5867 172.229 55.4 172.229 59.88C172.229 62.0133 171.962 63.6667 171.429 64.84C170.789 66.0133 170.575 67.3467 170.789 68.84C171.215 71.5067 171.429 76.1467 171.429 82.76C171.535 89.3733 171.429 93 171.109 93.64C170.895 94.0667 169.989 94.8667 168.389 96.04C166.895 97.2133 165.882 97.8533 165.349 97.96C164.815 98.0667 163.962 97.8533 162.789 97.32C161.615 96.68 160.709 96.04 160.069 95.4C159.642 94.76 159.322 93.6933 159.109 92.2C159.002 90.6 158.629 89.2133 157.989 88.04C157.455 87.08 157.082 84.36 156.869 79.88C156.762 75.2933 156.922 72.04 157.349 70.12C157.562 68.9467 157.509 67.72 157.189 66.44C156.869 65.0533 156.869 63.72 157.189 62.44C157.509 61.16 157.455 59.72 157.029 58.12C156.602 56.52 156.602 54.8133 157.029 53C157.989 49.5867 158.522 43.7733 158.629 35.56C158.735 30.44 158.895 27.56 159.109 26.92C159.429 25.96 159.909 25 160.549 24.04C161.295 23.08 161.882 22.4933 162.309 22.28ZM106.149 24.2C107.109 23.7733 108.975 23.6133 111.749 23.72C114.629 23.8267 116.709 24.0933 117.989 24.52C118.949 24.7333 120.069 24.7867 121.349 24.68C123.589 24.36 125.509 25 127.109 26.6C128.282 27.56 129.295 28.2 130.149 28.52C131.109 28.84 131.962 29.4267 132.709 30.28C133.455 31.0267 133.935 31.8267 134.149 32.68C134.149 32.68 134.202 33 134.309 33.64C134.415 34.1733 134.522 34.5467 134.629 34.76C134.735 35.4 135.109 36.1467 135.749 37C136.175 37.64 136.442 38.44 136.549 39.4C136.655 40.36 136.762 43.56 136.869 49C136.975 50.28 136.922 51.24 136.709 51.88C136.495 52.52 135.749 53.9067 134.469 56.04C132.655 59.1333 131.375 61.48 130.629 63.08C129.669 64.8933 128.335 66.6533 126.629 68.36C125.029 70.0667 123.855 71.6133 123.109 73C122.575 73.96 121.722 74.92 120.549 75.88C119.482 76.7333 116.709 78.8133 112.229 82.12C110.309 83.5067 108.815 84.68 107.749 85.64C106.682 86.6 105.455 87.4 104.069 88.04C102.682 88.68 101.669 89.32 101.029 89.96C99.1087 91.6667 96.8154 92.1467 94.1488 91.4C91.5888 90.6533 89.9887 89.0533 89.3487 86.6C88.9221 84.8933 89.4554 82.92 90.9488 80.68C92.4421 78.3333 94.0954 77 95.9088 76.68C97.7221 76.2533 100.122 74.76 103.109 72.2C104.602 70.7067 106.202 69.48 107.909 68.52C111.002 66.6 113.882 63.7733 116.549 60.04C119.322 56.2 120.975 52.7333 121.509 49.64C121.722 47.9333 121.989 46.92 122.309 46.6C122.629 46.1733 122.789 45.2667 122.789 43.88C122.895 41.8533 122.149 40.36 120.549 39.4C118.949 38.44 116.442 37.96 113.029 37.96C103.002 38.0667 96.5488 38.44 93.6687 39.08C91.5354 39.5067 89.9354 39.5067 88.8688 39.08C87.9088 38.5467 87.3221 37.3733 87.1087 35.56C86.6821 32.5733 86.4688 30.8133 86.4688 30.28C86.4688 29.64 86.7887 29 87.4287 28.36C88.4954 26.9733 89.8288 26.0667 91.4287 25.64C93.1354 25.1067 95.5888 24.84 98.7887 24.84C102.522 24.84 104.975 24.6267 106.149 24.2Z" fill="#F5F5F5"/>
<path d="M14.0957 139.996C14.3944 139.847 14.6557 139.865 14.8797 140.052C14.9544 140.108 15.0851 140.164 15.2717 140.22C15.5144 140.313 15.6544 140.565 15.6917 140.976C15.7477 141.368 15.7571 142.516 15.7197 144.42C15.7197 144.924 15.7757 145.204 15.8877 145.26C15.9997 145.316 16.3731 145.26 17.0077 145.092C17.4744 144.961 17.8851 144.961 18.2397 145.092C18.4637 145.167 18.6504 145.185 18.7997 145.148C18.9864 145.129 19.1451 145.232 19.2757 145.456C19.4064 145.68 19.4624 145.932 19.4437 146.212C19.4437 146.492 19.3504 146.66 19.1637 146.716C19.0144 146.772 18.8744 146.837 18.7437 146.912C18.4264 147.099 18.1651 147.211 17.9597 147.248C17.7731 147.285 17.3531 147.313 16.6997 147.332C15.8411 147.351 15.4117 147.369 15.4117 147.388C15.3931 147.388 15.3837 147.547 15.3837 147.864C15.4024 148.163 15.3744 148.405 15.2997 148.592C15.2064 148.76 15.1784 148.993 15.2157 149.292C15.2531 149.553 15.2717 150.207 15.2717 151.252C15.2717 152.279 15.2531 152.848 15.2157 152.96C15.1784 153.091 14.8611 153.343 14.2637 153.716C14.0584 153.847 13.8251 153.837 13.5637 153.688C13.3211 153.52 13.1997 153.296 13.1997 153.016C13.1997 152.792 13.1437 152.531 13.0317 152.232C12.9011 151.933 12.8637 151.663 12.9197 151.42C12.9944 151.177 13.0131 150.776 12.9757 150.216C12.9384 149.656 12.9757 149.255 13.0877 149.012C13.1811 148.769 13.1904 148.508 13.1157 148.228C13.0597 147.929 13.0784 147.677 13.1717 147.472C13.2464 147.248 13.2744 146.931 13.2557 146.52C13.2184 146.091 13.2371 145.82 13.3117 145.708C13.3677 145.596 13.3677 145.428 13.3117 145.204C13.2744 144.961 13.3117 144.709 13.4237 144.448C13.5171 144.187 13.5637 143.851 13.5637 143.44C13.5637 141.947 13.6104 141.06 13.7037 140.78C13.7411 140.649 13.7784 140.491 13.8157 140.304C13.8344 140.173 13.9277 140.071 14.0957 139.996ZM5.94772 140.5C6.13439 140.425 6.47972 140.388 6.98372 140.388C7.50639 140.388 7.86105 140.416 8.04772 140.472C8.25305 140.528 8.55172 140.556 8.94372 140.556C9.33572 140.575 9.62505 140.649 9.81172 140.78C9.99839 140.911 10.1851 140.976 10.3717 140.976C10.6891 140.976 10.9411 141.163 11.1277 141.536C11.2024 141.723 11.3144 141.947 11.4637 142.208C11.6691 142.563 11.7717 143.216 11.7717 144.168C11.7717 145.717 11.5291 147.052 11.0437 148.172C10.8757 148.601 10.7731 148.881 10.7357 149.012C10.7171 149.143 10.7077 149.395 10.7077 149.768C10.7264 150.496 10.5491 151.056 10.1757 151.448C9.80239 151.84 9.36372 151.924 8.85972 151.7C8.72905 151.625 8.60772 151.597 8.49572 151.616C8.40239 151.616 8.19705 151.672 7.87972 151.784C7.52505 151.915 7.10505 151.961 6.61972 151.924C6.13439 151.868 5.69572 151.737 5.30372 151.532C5.09839 151.42 4.95839 151.364 4.88372 151.364C4.80905 151.345 4.67839 151.364 4.49172 151.42C4.30505 151.476 4.17439 151.504 4.09972 151.504C4.04372 151.504 3.93172 151.467 3.76372 151.392C3.52105 151.299 3.28772 151.261 3.06372 151.28C2.65305 151.336 2.32639 151.159 2.08372 150.748C1.99039 150.561 1.87839 150.403 1.74772 150.272C1.15039 149.6 0.814385 148.452 0.739719 146.828C0.702385 146.007 0.702385 145.54 0.739719 145.428C0.777052 145.316 0.795719 145.073 0.795719 144.7C0.795719 144.308 0.823719 143.991 0.879719 143.748C0.935719 143.487 0.935719 143.244 0.879719 143.02C0.786385 142.609 0.870385 142.245 1.13172 141.928C1.24372 141.797 1.32772 141.639 1.38372 141.452C1.45839 141.209 1.61705 141.013 1.85972 140.864C2.10239 140.715 2.32639 140.659 2.53172 140.696C2.64372 140.733 2.80239 140.715 3.00772 140.64C3.21305 140.584 3.70772 140.565 4.49172 140.584C5.27572 140.584 5.76105 140.556 5.94772 140.5ZM7.90772 142.768C7.49705 142.619 7.19839 142.581 7.01172 142.656C6.89972 142.693 6.64772 142.721 6.25572 142.74C5.84505 142.777 5.43439 142.843 5.02372 142.936C4.63172 143.029 4.32372 143.076 4.09972 143.076C3.72639 143.076 3.49305 143.207 3.39972 143.468C3.32505 143.711 3.27839 144.373 3.25972 145.456C3.25972 146.464 3.28772 147.136 3.34372 147.472C3.41839 147.789 3.61439 148.219 3.93172 148.76C4.08105 149.04 4.23039 149.227 4.37972 149.32C4.54772 149.395 4.78105 149.413 5.07972 149.376C5.34105 149.357 5.55572 149.376 5.72372 149.432C6.04105 149.525 6.32105 149.507 6.56372 149.376C6.71305 149.301 7.01172 149.255 7.45972 149.236C7.87039 149.217 8.14105 149.171 8.27172 149.096C8.40239 149.003 8.51439 148.835 8.60772 148.592C8.68239 148.387 8.76639 148.153 8.85972 147.892C9.08372 147.295 9.19572 146.557 9.19572 145.68C9.19572 145.568 9.19572 145.409 9.19572 145.204C9.19572 144.98 9.19572 144.793 9.19572 144.644C9.19572 144.476 9.19572 144.345 9.19572 144.252C9.19572 143.319 8.92505 142.852 8.38372 142.852C8.25305 142.852 8.09439 142.824 7.90772 142.768ZM26.9681 135.936C27.4721 135.899 27.7521 135.88 27.8081 135.88C27.9014 135.861 28.0507 135.889 28.2561 135.964C28.4614 136.039 28.7134 136.085 29.0121 136.104C29.3107 136.123 29.5721 136.197 29.7961 136.328C29.9641 136.403 30.4867 136.655 31.3641 137.084C31.7187 137.271 32.1201 137.933 32.5681 139.072C32.6241 139.221 32.6894 139.399 32.7641 139.604C32.8574 139.809 32.9227 139.968 32.9601 140.08C33.0161 140.192 33.0441 140.267 33.0441 140.304C33.2121 140.696 33.0721 141.312 32.6241 142.152C32.4747 142.432 32.4001 142.637 32.4001 142.768C32.4001 142.917 32.3441 143.076 32.2321 143.244C32.1201 143.393 31.9054 143.636 31.5881 143.972C30.9347 144.644 30.3001 145.101 29.6841 145.344C29.0681 145.587 28.2374 145.708 27.1921 145.708C26.4827 145.708 25.9787 145.708 25.6801 145.708C25.4001 145.727 25.1387 145.661 24.8961 145.512C24.6347 145.344 24.4201 145.232 24.2521 145.176C23.9161 145.027 23.7201 144.84 23.6641 144.616C23.6267 144.467 23.5147 144.28 23.3281 144.056C23.0294 143.701 22.7774 143.151 22.5721 142.404C22.3854 141.639 22.3574 141.079 22.4881 140.724C22.5814 140.537 22.6281 140.295 22.6281 139.996C22.6281 139.716 22.7961 139.221 23.1321 138.512C23.4121 137.933 23.6361 137.551 23.8041 137.364C23.9721 137.177 24.2241 137.028 24.5601 136.916C24.8214 136.841 25.0827 136.711 25.3441 136.524C25.6987 136.263 25.9601 136.104 26.1281 136.048C26.2961 135.992 26.5761 135.955 26.9681 135.936ZM27.9201 138.092C27.3974 137.887 26.8374 137.961 26.2401 138.316C25.6427 138.652 25.2974 139.119 25.2041 139.716C25.1667 139.94 25.0827 140.164 24.9521 140.388C24.7841 140.631 24.6907 140.845 24.6721 141.032C24.6721 141.2 24.7374 141.433 24.8681 141.732C24.9987 142.049 25.0921 142.32 25.1481 142.544C25.2227 142.768 25.2974 142.917 25.3721 142.992C25.4467 143.067 25.5961 143.123 25.8201 143.16C26.1001 143.197 26.3801 143.291 26.6601 143.44C27.0894 143.664 27.5467 143.729 28.0321 143.636C28.5361 143.543 28.9654 143.309 29.3201 142.936C29.5254 142.749 29.6934 142.619 29.8241 142.544C30.1227 142.376 30.3094 142.096 30.3841 141.704C30.4214 141.517 30.4867 141.34 30.5801 141.172C30.8041 140.724 30.7854 140.276 30.5241 139.828C30.3934 139.604 30.2721 139.38 30.1601 139.156C29.9921 138.783 29.7961 138.531 29.5721 138.4C29.3667 138.269 29.0587 138.204 28.6481 138.204C28.3307 138.204 28.0881 138.167 27.9201 138.092ZM28.2001 146.548C28.5921 146.567 28.8814 146.529 29.0681 146.436C29.2547 146.343 29.5067 146.305 29.8241 146.324C30.1041 146.361 30.5707 146.38 31.2241 146.38C31.8961 146.38 32.4561 146.361 32.9041 146.324C33.3147 146.287 33.6321 146.315 33.8561 146.408C34.0801 146.483 34.2667 146.529 34.4161 146.548C34.6961 146.585 34.8734 146.632 34.9481 146.688C35.0227 146.725 35.0974 146.819 35.1721 146.968C35.4521 147.64 35.3681 148.088 34.9201 148.312C34.4347 148.555 34.0427 148.695 33.7441 148.732C33.4641 148.769 33.1561 148.732 32.8201 148.62C32.5027 148.527 32.2881 148.489 32.1761 148.508C31.8774 148.601 30.9627 148.639 29.4321 148.62C29.0401 148.62 28.6387 148.657 28.2281 148.732C27.7427 148.807 27.2854 148.844 26.8561 148.844C26.4081 148.844 26.0627 148.872 25.8201 148.928C25.5774 148.984 25.2881 148.956 24.9521 148.844C24.5601 148.713 24.1587 148.676 23.7481 148.732C23.4867 148.769 23.1601 148.713 22.7681 148.564C22.3761 148.415 22.0587 148.349 21.8161 148.368C21.6107 148.405 21.4521 148.387 21.3401 148.312C21.2281 148.219 21.1067 148.032 20.9761 147.752C20.7707 147.341 20.8547 147.033 21.2281 146.828C21.6014 146.604 22.1894 146.539 22.9921 146.632C23.3094 146.651 23.5801 146.623 23.8041 146.548C24.0094 146.473 24.2614 146.464 24.5601 146.52C25.8667 146.744 26.7534 146.772 27.2201 146.604C27.4814 146.529 27.8081 146.511 28.2001 146.548ZM24.4201 149.516C24.9987 149.348 25.4747 149.339 25.8481 149.488C26.0907 149.581 26.7067 149.628 27.6961 149.628C28.6667 149.609 29.3854 149.656 29.8521 149.768C30.3561 149.88 30.7481 149.936 31.0281 149.936C31.2334 149.936 31.5227 150.001 31.8961 150.132C32.2881 150.244 32.6147 150.365 32.8761 150.496C33.1747 150.664 33.3987 151.289 33.5481 152.372C33.7347 153.473 33.6134 154.435 33.1841 155.256C33.0347 155.517 32.9601 155.713 32.9601 155.844C32.9601 156.143 32.8014 156.423 32.4841 156.684C32.1854 156.964 31.8961 157.085 31.6161 157.048C31.3734 157.011 31.1774 157.02 31.0281 157.076C30.5427 157.281 29.8521 157.384 28.9561 157.384C28.2467 157.384 27.7521 157.431 27.4721 157.524C26.9681 157.673 26.6134 157.692 26.4081 157.58C26.2961 157.524 25.9881 157.477 25.4841 157.44C24.9987 157.403 24.6067 157.337 24.3081 157.244C23.9907 157.132 23.7667 157.067 23.6361 157.048C23.3747 157.011 23.0201 156.787 22.5721 156.376C22.1241 155.984 21.8534 155.648 21.7601 155.368C21.6667 155.107 21.5827 154.873 21.5081 154.668C21.4334 154.425 21.3867 154.201 21.3681 153.996C21.3494 153.772 21.3494 153.277 21.3681 152.512C21.3867 152.12 21.3867 151.793 21.3681 151.532C21.3681 151.289 21.3961 151.112 21.4521 151C21.5081 150.869 21.6854 150.655 21.9841 150.356C22.1894 150.151 22.3201 150.029 22.3761 149.992C22.4507 149.955 22.5814 149.936 22.7681 149.936C23.0667 149.955 23.3934 149.88 23.7481 149.712C23.8787 149.637 24.1027 149.572 24.4201 149.516ZM29.9921 151.644C29.3761 151.513 28.9747 151.485 28.7881 151.56C28.6387 151.597 28.2934 151.625 27.7521 151.644C27.2294 151.663 26.8561 151.7 26.6321 151.756C26.4267 151.793 26.0161 151.821 25.4001 151.84C24.6161 151.84 24.1401 151.887 23.9721 151.98C23.8041 152.055 23.6734 152.307 23.5801 152.736C23.5241 152.997 23.5427 153.296 23.6361 153.632C23.7294 153.968 23.7761 154.183 23.7761 154.276C23.7761 154.743 24.5414 155.023 26.0721 155.116C26.7627 155.153 27.2667 155.2 27.5841 155.256C27.8827 155.293 28.2187 155.284 28.5921 155.228C28.9467 155.153 29.4227 155.097 30.0201 155.06C30.4867 155.041 30.7667 155.004 30.8601 154.948C30.9721 154.892 31.0561 154.752 31.1121 154.528C31.1121 154.528 31.1587 154.313 31.2521 153.884C31.3267 153.567 31.3454 153.203 31.3081 152.792C31.2707 152.381 31.1867 152.129 31.0561 152.036C30.9441 151.924 30.5894 151.793 29.9921 151.644ZM42.7988 135.348C43.3028 135.311 43.5828 135.292 43.6388 135.292C43.7321 135.292 43.9188 135.339 44.1988 135.432C44.4788 135.525 44.7028 135.563 44.8708 135.544C45.2254 135.469 45.7294 135.619 46.3828 135.992C46.5881 136.123 46.8121 136.225 47.0548 136.3C47.6334 136.487 48.1094 137.14 48.4828 138.26C48.6134 138.633 48.7348 138.932 48.8468 139.156C49.1828 139.884 49.1174 140.621 48.6508 141.368C48.5014 141.592 48.3988 141.816 48.3428 142.04C48.2868 142.301 48.2214 142.488 48.1468 142.6C48.0908 142.693 47.9788 142.796 47.8108 142.908C47.6054 143.02 47.4094 143.197 47.2228 143.44C47.0548 143.683 46.7188 143.935 46.2148 144.196C45.7108 144.439 45.1694 144.644 44.5908 144.812C44.4601 144.849 44.0121 144.877 43.2468 144.896C42.3881 144.915 41.9121 144.924 41.8188 144.924C41.4454 144.924 41.1188 144.803 40.8388 144.56C40.6334 144.392 40.4374 144.261 40.2508 144.168C40.0641 144.075 39.8961 143.925 39.7468 143.72C39.5974 143.515 39.4668 143.347 39.3548 143.216C39.0374 142.88 38.8228 142.423 38.7108 141.844C38.6174 141.359 38.5708 141.097 38.5708 141.06C38.5148 140.836 38.5054 140.593 38.5428 140.332C38.5614 140.145 38.5801 139.875 38.5988 139.52C38.6174 139.184 38.7854 138.689 39.1028 138.036C39.3641 137.457 39.5788 137.065 39.7468 136.86C39.9334 136.655 40.1854 136.505 40.5028 136.412C40.8014 136.319 41.0814 136.16 41.3428 135.936C41.6601 135.675 41.8841 135.516 42.0148 135.46C42.1641 135.404 42.4254 135.367 42.7988 135.348ZM43.6668 137.476C43.4054 137.383 43.2468 137.336 43.1908 137.336C43.1534 137.336 43.0228 137.364 42.7988 137.42C42.5748 137.495 42.2854 137.7 41.9308 138.036C41.5948 138.372 41.3988 138.652 41.3428 138.876C41.2868 139.081 41.2121 139.231 41.1188 139.324C40.9134 139.567 40.7828 139.847 40.7268 140.164C40.6894 140.481 40.7361 140.771 40.8668 141.032C40.9788 141.256 41.0721 141.471 41.1468 141.676C41.2214 141.919 41.3054 142.087 41.3988 142.18C41.4921 142.255 41.6508 142.311 41.8748 142.348C42.1548 142.385 42.4721 142.497 42.8268 142.684C43.6294 143.057 44.4788 142.88 45.3748 142.152C45.5801 141.965 45.7574 141.825 45.9068 141.732C46.0934 141.62 46.2708 141.368 46.4388 140.976C46.6254 140.565 46.7281 140.183 46.7468 139.828C46.7468 139.529 46.7374 139.343 46.7188 139.268C46.7001 139.193 46.6161 139.081 46.4668 138.932C46.2614 138.708 46.1308 138.521 46.0748 138.372C45.9814 138.148 45.7854 137.971 45.4868 137.84C45.1881 137.691 44.8521 137.616 44.4788 137.616C44.2174 137.616 43.9468 137.569 43.6668 137.476ZM45.2068 145.456C45.4494 145.363 46.1961 145.344 47.4468 145.4C48.6974 145.437 49.4441 145.503 49.6868 145.596C49.9481 145.727 50.1628 145.792 50.3308 145.792C50.5734 145.792 50.7788 145.988 50.9468 146.38C51.1148 146.753 51.1148 147.015 50.9468 147.164C50.7974 147.276 50.5174 147.397 50.1068 147.528C49.7148 147.64 49.3974 147.696 49.1548 147.696C47.9228 147.659 47.2134 147.621 47.0268 147.584C46.8401 147.528 46.6068 147.547 46.3268 147.64C46.0468 147.733 45.7761 147.752 45.5148 147.696C45.2348 147.64 44.8708 147.659 44.4228 147.752C43.9561 147.845 43.5921 147.864 43.3308 147.808C43.0694 147.752 42.7708 147.743 42.4348 147.78C41.9308 147.836 41.2868 147.864 40.5028 147.864C39.7188 147.864 39.2241 147.827 39.0188 147.752C38.7388 147.677 38.3934 147.649 37.9828 147.668C37.5908 147.668 37.3294 147.64 37.1988 147.584C37.0868 147.528 36.9654 147.379 36.8348 147.136C36.6294 146.707 36.7694 146.343 37.2548 146.044C37.7401 145.745 38.3748 145.643 39.1588 145.736C39.4388 145.773 39.6814 145.764 39.8868 145.708C40.0734 145.652 40.6521 145.652 41.6228 145.708C42.5934 145.764 43.1814 145.755 43.3868 145.68C43.5734 145.605 43.8908 145.559 44.3388 145.54C44.7494 145.54 45.0388 145.512 45.2068 145.456ZM44.3388 148.732C44.3761 148.695 44.5441 148.685 44.8428 148.704C45.1601 148.723 45.4214 148.76 45.6268 148.816C45.8881 148.891 46.1868 148.947 46.5228 148.984C46.8588 149.021 47.2134 149.105 47.5868 149.236C47.9601 149.385 48.2214 149.479 48.3708 149.516C48.5948 149.591 48.7721 149.852 48.9028 150.3C49.0334 150.748 49.0521 151.159 48.9588 151.532C48.9028 151.793 48.8561 151.999 48.8188 152.148C48.7441 152.671 48.2868 153.081 47.4468 153.38C46.4574 153.697 45.7108 153.809 45.2068 153.716C44.9641 153.679 44.7028 153.697 44.4228 153.772C44.1054 153.847 43.8721 153.903 43.7228 153.94C43.4988 153.996 43.3028 154.061 43.1348 154.136C42.9481 154.211 42.5281 154.248 41.8748 154.248C41.2961 154.248 40.9414 154.276 40.8108 154.332C40.6988 154.369 40.5961 154.519 40.5028 154.78C40.4281 155.041 40.4188 155.209 40.4748 155.284C40.5308 155.377 40.7081 155.461 41.0068 155.536C41.3801 155.648 41.5948 155.723 41.6508 155.76C41.7068 155.779 42.0241 155.807 42.6028 155.844C43.1254 155.881 43.5268 155.919 43.8068 155.956C44.0681 155.993 44.3574 155.975 44.6748 155.9C45.1601 155.788 45.9348 155.713 46.9988 155.676C48.0814 155.657 48.6694 155.695 48.7628 155.788C48.9494 155.956 49.0708 156.255 49.1268 156.684C49.1828 157.113 49.1361 157.356 48.9868 157.412C48.9868 157.431 48.7721 157.533 48.3428 157.72C48.1188 157.832 47.9134 157.897 47.7268 157.916C47.5588 157.953 47.0641 157.981 46.2428 158C45.1228 158.019 44.4134 158.065 44.1148 158.14C43.7601 158.215 43.4988 158.243 43.3308 158.224C43.1254 158.187 42.7801 158.149 42.2948 158.112C41.8094 158.075 41.4454 158.009 41.2028 157.916C40.9974 157.841 40.7828 157.804 40.5588 157.804C40.1481 157.804 39.7561 157.655 39.3828 157.356C39.1774 157.169 39.0468 157.076 38.9908 157.076C38.8788 157.076 38.7294 156.973 38.5428 156.768C38.3561 156.563 38.2348 156.367 38.1788 156.18C38.1041 155.919 38.0014 155.695 37.8708 155.508C37.7214 155.303 37.6561 154.957 37.6748 154.472C37.6934 153.987 37.7774 153.651 37.9268 153.464C38.0761 153.296 38.1508 153.184 38.1508 153.128C38.1508 153.016 38.2441 152.895 38.4308 152.764C38.6174 152.633 38.7761 152.568 38.9068 152.568C39.0748 152.568 39.3268 152.493 39.6628 152.344C39.9801 152.195 40.3348 152.12 40.7268 152.12C41.0814 152.139 41.5294 152.12 42.0708 152.064C42.6308 152.008 42.9854 151.952 43.1348 151.896C43.2841 151.84 43.5361 151.84 43.8908 151.896C44.3014 151.971 44.7214 151.943 45.1508 151.812C45.5988 151.681 45.9161 151.485 46.1028 151.224C46.2148 151.075 46.2241 150.972 46.1308 150.916C46.0561 150.841 45.8601 150.804 45.5428 150.804C45.1881 150.804 44.9921 150.785 44.9548 150.748C44.9174 150.673 44.7401 150.645 44.4228 150.664C44.1054 150.683 43.8721 150.72 43.7228 150.776C43.5361 150.869 42.6868 150.925 41.1748 150.944C39.6628 150.963 38.8694 150.935 38.7948 150.86C38.6454 150.655 38.5708 150.393 38.5708 150.076C38.5894 149.759 38.6828 149.507 38.8508 149.32C39.0561 149.096 39.3174 148.965 39.6348 148.928C39.9708 148.872 40.8481 148.835 42.2668 148.816C43.6294 148.779 44.3201 148.751 44.3388 148.732ZM73.6366 140.108C73.8793 139.903 74.1686 139.893 74.5046 140.08C74.654 140.173 74.822 140.248 75.0086 140.304C75.5126 140.472 75.69 141.732 75.5406 144.084C75.5033 144.625 75.5313 144.952 75.6246 145.064C75.7366 145.157 76.0073 145.129 76.4366 144.98C76.9593 144.793 77.4446 144.784 77.8926 144.952C78.1353 145.027 78.322 145.045 78.4526 145.008C78.6393 144.971 78.8073 145.064 78.9566 145.288C79.106 145.512 79.1713 145.764 79.1526 146.044C79.1526 146.305 79.0593 146.473 78.8726 146.548C78.7046 146.623 78.4713 146.735 78.1726 146.884C77.9673 146.996 77.7806 147.071 77.6126 147.108C77.4633 147.127 77.1086 147.145 76.5486 147.164C75.858 147.201 75.4566 147.239 75.3446 147.276C75.2513 147.313 75.2046 147.453 75.2046 147.696C75.2046 147.976 75.1673 148.191 75.0926 148.34C75.0366 148.508 75.018 149.255 75.0366 150.58C75.0553 151.681 75.046 152.353 75.0086 152.596C74.9713 152.839 74.8593 153.007 74.6726 153.1C74.5046 153.193 74.346 153.296 74.1966 153.408C73.9166 153.595 73.6273 153.613 73.3286 153.464C73.03 153.296 72.8806 153.035 72.8806 152.68C72.8806 152.475 72.8246 152.241 72.7126 151.98C72.6193 151.719 72.61 151.476 72.6846 151.252C72.7593 151.028 72.778 150.757 72.7406 150.44C72.6286 149.731 72.6566 149.189 72.8246 148.816C72.918 148.573 72.9366 148.34 72.8806 148.116C72.7686 147.724 72.7966 147.444 72.9646 147.276C73.058 147.183 73.0953 147.071 73.0766 146.94C72.9086 146.249 72.8993 145.689 73.0486 145.26C73.1233 145.017 73.1513 144.803 73.1326 144.616C73.0953 144.429 73.1046 144.243 73.1606 144.056C73.2353 143.869 73.2726 143.561 73.2726 143.132C73.2913 142.684 73.2726 142.292 73.2166 141.956C73.1793 141.62 73.198 141.265 73.2726 140.892C73.366 140.5 73.4873 140.239 73.6366 140.108ZM62.1846 140.612C62.4086 140.556 62.6606 140.593 62.9406 140.724C63.2393 140.836 63.4633 140.995 63.6126 141.2C63.6873 141.331 63.734 141.713 63.7526 142.348C63.7713 142.964 63.7433 143.468 63.6686 143.86C63.5753 144.215 63.5286 144.504 63.5286 144.728C63.5286 144.989 63.5006 145.316 63.4446 145.708C63.3886 146.119 63.398 146.445 63.4726 146.688C63.566 146.931 63.6313 147.183 63.6686 147.444C63.6873 147.761 63.7153 147.976 63.7526 148.088C63.79 148.2 63.8833 148.331 64.0326 148.48C64.2193 148.685 64.3873 148.825 64.5366 148.9C64.686 148.956 64.9193 148.984 65.2366 148.984C65.5726 148.965 65.8153 148.984 65.9646 149.04C66.114 149.096 66.31 149.096 66.5526 149.04C66.7953 148.965 67.2246 148.919 67.8406 148.9C68.4753 148.9 69.194 148.965 69.9966 149.096C70.1086 149.115 70.2486 149.311 70.4166 149.684C70.6033 150.039 70.678 150.3 70.6406 150.468C70.566 150.841 70.314 151.131 69.8846 151.336C69.4553 151.541 69.0446 151.579 68.6526 151.448C68.466 151.373 68.2886 151.355 68.1206 151.392C67.8593 151.467 67.4206 151.495 66.8046 151.476C66.2073 151.457 65.834 151.401 65.6846 151.308C65.5166 151.215 65.3206 151.187 65.0966 151.224C64.574 151.299 64.21 151.271 64.0046 151.14C63.874 151.065 63.7246 151.037 63.5566 151.056C63.3886 151.075 63.2393 151.047 63.1086 150.972C62.978 150.879 62.7073 150.627 62.2966 150.216C61.662 149.6 61.2326 148.816 61.0086 147.864C60.7846 146.893 60.7846 145.904 61.0086 144.896C61.102 144.504 61.1206 144.009 61.0646 143.412C61.0086 142.927 60.99 142.609 61.0086 142.46C61.0273 142.311 61.1113 142.059 61.2606 141.704C61.4286 141.256 61.5593 140.976 61.6526 140.864C61.7646 140.752 61.942 140.668 62.1846 140.612ZM82.1515 137.84C82.3568 137.747 82.4875 137.7 82.5435 137.7C82.6181 137.7 82.8235 137.784 83.1595 137.952C83.1781 137.952 83.1968 137.961 83.2155 137.98C83.4581 138.092 83.6075 138.185 83.6635 138.26C83.7381 138.335 83.7941 138.531 83.8315 138.848C83.8688 139.147 83.8501 139.595 83.7755 140.192C83.7755 140.267 83.7755 140.313 83.7755 140.332C83.7195 140.985 83.7008 141.471 83.7195 141.788C83.7568 142.105 83.8035 142.311 83.8595 142.404C83.9341 142.479 84.0741 142.544 84.2795 142.6C85.0821 142.861 85.7541 142.945 86.2955 142.852C86.6688 142.796 86.9768 142.787 87.2195 142.824C87.4808 142.861 87.7608 142.852 88.0595 142.796C88.3395 142.74 88.8435 142.731 89.5715 142.768C90.2995 142.824 90.7661 142.824 90.9715 142.768C91.1955 142.712 91.4568 142.693 91.7555 142.712C91.8115 142.712 91.9048 142.712 92.0355 142.712C92.9501 142.731 93.4915 142.768 93.6595 142.824C93.8275 142.861 93.9768 142.992 94.1075 143.216C94.1075 143.235 94.1168 143.253 94.1355 143.272C94.5835 144.131 94.5928 144.644 94.1635 144.812C94.1448 144.831 94.0888 144.859 93.9955 144.896C93.9208 144.933 93.8368 144.971 93.7435 145.008C93.6688 145.045 93.6035 145.083 93.5475 145.12C93.0061 145.363 92.5395 145.4 92.1475 145.232C91.9421 145.157 91.3541 145.139 90.3835 145.176C89.2448 145.251 87.6395 145.279 85.5675 145.26C85.3061 145.26 85.0635 145.232 84.8395 145.176C84.6341 145.101 84.3728 145.064 84.0555 145.064C83.7381 145.064 83.4581 144.98 83.2155 144.812C83.1408 144.775 83.0101 144.7 82.8235 144.588C82.6555 144.457 82.5341 144.364 82.4595 144.308C81.9928 144.009 81.6008 143.487 81.2835 142.74C80.9661 141.975 80.8821 141.349 81.0315 140.864C81.1248 140.584 81.1435 140.313 81.0875 140.052C81.0128 139.716 81.0968 139.305 81.3395 138.82C81.5821 138.335 81.8528 138.008 82.1515 137.84ZM81.6195 147.892C81.7128 147.855 82.2168 147.855 83.1315 147.892C84.0648 147.911 84.6435 147.939 84.8675 147.976C85.1475 148.013 85.4555 148.023 85.7915 148.004C86.1088 147.967 86.4355 147.976 86.7715 148.032C87.1261 148.088 87.4061 148.06 87.6115 147.948C87.9288 147.817 88.6381 147.836 89.7395 148.004C90.1128 148.06 90.7661 148.097 91.6995 148.116C92.6328 148.116 93.2021 148.088 93.4075 148.032C93.6128 147.976 93.9488 147.976 94.4155 148.032C94.9195 148.107 95.2275 148.172 95.3395 148.228C95.4515 148.265 95.5728 148.405 95.7035 148.648C95.9275 149.096 95.9835 149.469 95.8715 149.768C95.7595 150.067 95.4981 150.216 95.0875 150.216C94.9755 150.216 94.8168 150.272 94.6115 150.384C94.4435 150.459 94.2475 150.505 94.0235 150.524C93.7995 150.524 93.6315 150.496 93.5195 150.44C93.4075 150.365 92.6515 150.309 91.2515 150.272C90.8781 150.272 90.4395 150.291 89.9355 150.328C89.4688 150.365 89.1981 150.44 89.1235 150.552C89.0675 150.664 89.0208 151.103 88.9835 151.868C88.9835 151.961 88.9741 152.092 88.9555 152.26C88.8808 154.033 88.7968 155.069 88.7035 155.368C88.6288 155.685 88.3581 155.881 87.8915 155.956C87.8541 155.956 87.8261 155.956 87.8075 155.956C87.6768 155.993 87.4341 155.9 87.0795 155.676C86.7435 155.452 86.5475 155.265 86.4915 155.116C86.4355 155.004 86.4075 154.752 86.4075 154.36C86.4261 153.949 86.4635 153.595 86.5195 153.296C86.5755 152.904 86.6035 152.503 86.6035 152.092C86.6035 151.681 86.6408 151.327 86.7155 151.028C86.7901 150.748 86.8088 150.571 86.7715 150.496C86.7528 150.421 86.6408 150.356 86.4355 150.3C86.1928 150.244 85.3901 150.263 84.0275 150.356C83.5795 150.375 83.2715 150.356 83.1035 150.3C82.9168 150.225 82.6648 150.225 82.3475 150.3C81.9741 150.375 81.6848 150.375 81.4795 150.3C81.2928 150.225 81.0968 150.039 80.8915 149.74C80.6861 149.423 80.5741 149.189 80.5555 149.04C80.5368 148.872 80.6115 148.713 80.7795 148.564C81.2088 148.172 81.4888 147.948 81.6195 147.892ZM98.5492 137.252C98.7359 137.084 99.1092 137.112 99.6692 137.336C100.043 137.485 100.267 137.691 100.341 137.952C100.416 138.195 100.463 138.867 100.481 139.968C100.5 140.285 100.509 140.528 100.509 140.696C100.528 140.864 100.584 141.023 100.677 141.172C100.771 141.321 100.864 141.424 100.957 141.48C101.069 141.536 101.265 141.583 101.545 141.62C101.844 141.639 102.133 141.648 102.413 141.648C102.712 141.629 103.151 141.611 103.729 141.592C104.532 141.536 105.325 141.536 106.109 141.592C106.744 141.629 107.201 141.601 107.481 141.508C107.743 141.433 107.985 141.405 108.209 141.424C109.049 141.555 109.6 141.573 109.861 141.48C110.085 141.405 110.309 141.517 110.533 141.816C110.757 142.115 110.897 142.469 110.953 142.88C110.972 143.085 110.953 143.235 110.897 143.328C110.841 143.403 110.701 143.496 110.477 143.608C110.235 143.739 110.02 143.851 109.833 143.944C109.367 144.224 108.881 144.261 108.377 144.056C108.153 143.981 107.901 143.953 107.621 143.972C107.341 144.009 106.903 144.037 106.305 144.056C105.745 144.093 105.223 144.112 104.737 144.112C104.308 144.131 103.944 144.177 103.645 144.252C103.365 144.308 103.085 144.299 102.805 144.224C102.507 144.131 102.292 144.112 102.161 144.168C101.881 144.28 101.564 144.261 101.209 144.112C100.985 144 100.771 143.944 100.565 143.944C100.36 143.944 100.164 143.879 99.9772 143.748C99.7532 143.599 99.4825 143.421 99.1652 143.216C98.8852 143.029 98.6892 142.871 98.5772 142.74C98.4839 142.591 98.3999 142.348 98.3252 142.012C98.2319 141.713 98.1385 141.452 98.0452 141.228C97.9519 141.004 97.9052 140.715 97.9052 140.36C97.9052 140.248 97.9052 140.033 97.9052 139.716C97.9239 139.38 97.9332 139.175 97.9332 139.1C97.9519 138.223 98.1572 137.607 98.5492 137.252ZM109.553 146.688C109.609 146.632 109.815 146.623 110.169 146.66C110.543 146.679 110.804 146.725 110.953 146.8C111.159 146.893 111.345 146.921 111.513 146.884C111.737 146.847 111.905 146.949 112.017 147.192C112.148 147.416 112.185 147.677 112.129 147.976C112.073 148.275 111.933 148.48 111.709 148.592C111.261 148.835 110.813 149.012 110.365 149.124C109.917 149.217 109.581 149.227 109.357 149.152C109.059 149.04 108.807 149.012 108.601 149.068C108.377 149.124 108.097 149.124 107.761 149.068C107.425 149.012 107.164 149.012 106.977 149.068C106.791 149.124 106.455 149.161 105.969 149.18C104.644 149.199 103.841 149.283 103.561 149.432C103.393 149.525 103.207 149.563 103.001 149.544C101.769 149.357 100.873 149.311 100.313 149.404C99.9585 149.46 99.6692 149.441 99.4452 149.348C99.2212 149.255 98.9319 149.208 98.5772 149.208C98.0359 149.208 97.7652 149.096 97.7652 148.872C97.7652 148.816 97.6905 148.704 97.5412 148.536C97.2425 148.181 97.2705 147.827 97.6252 147.472C97.7932 147.323 97.9425 147.239 98.0732 147.22C98.2039 147.183 98.5772 147.145 99.1932 147.108C100.033 147.089 100.519 147.061 100.649 147.024C100.78 146.987 101.303 146.977 102.217 146.996C104.364 147.071 105.568 147.024 105.829 146.856C105.904 146.819 106.539 146.791 107.733 146.772C108.909 146.753 109.516 146.725 109.553 146.688ZM98.9692 150.664C99.1932 150.496 99.5572 150.515 100.061 150.72C100.341 150.832 100.509 150.953 100.565 151.084C100.64 151.196 100.64 151.411 100.565 151.728C100.509 151.952 100.481 152.101 100.481 152.176C100.5 152.251 100.547 152.4 100.621 152.624C100.752 152.923 100.817 153.109 100.817 153.184C100.817 153.315 100.855 153.408 100.929 153.464C101.023 153.52 101.172 153.567 101.377 153.604C101.583 153.66 101.853 153.735 102.189 153.828C102.451 153.903 102.675 153.931 102.861 153.912C103.067 153.875 103.319 153.884 103.617 153.94C103.897 153.996 104.149 153.987 104.373 153.912C104.616 153.837 104.831 153.828 105.017 153.884C105.204 153.94 105.428 153.921 105.689 153.828C105.951 153.753 106.744 153.725 108.069 153.744C109.133 153.763 109.768 153.8 109.973 153.856C110.197 153.893 110.309 154.015 110.309 154.22C110.309 154.332 110.365 154.453 110.477 154.584C110.683 154.827 110.729 155.079 110.617 155.34C110.524 155.601 110.319 155.769 110.001 155.844C109.777 155.881 109.535 155.947 109.273 156.04C108.993 156.115 108.723 156.115 108.461 156.04C108.181 155.947 107.836 155.937 107.425 156.012C106.959 156.087 106.567 156.115 106.249 156.096C105.913 156.059 105.615 156.068 105.353 156.124C105.092 156.161 104.812 156.217 104.513 156.292C104.233 156.348 103.963 156.329 103.701 156.236C103.515 156.18 103.384 156.152 103.309 156.152C103.253 156.152 103.132 156.189 102.945 156.264C102.497 156.451 102.189 156.46 102.021 156.292C101.928 156.18 101.751 156.124 101.489 156.124C101.153 156.124 100.752 155.956 100.285 155.62C100.024 155.433 99.8372 155.321 99.7252 155.284C99.5385 155.247 99.3799 155.153 99.2492 155.004C99.1185 154.836 98.9412 154.537 98.7172 154.108C98.3812 153.417 98.2319 152.755 98.2692 152.12C98.3065 151.485 98.5399 151 98.9692 150.664ZM133.519 135.516C134.265 135.46 134.695 135.451 134.807 135.488C134.956 135.581 135.115 135.787 135.283 136.104C135.469 136.403 135.553 136.655 135.535 136.86C135.535 137.289 135.413 137.579 135.171 137.728C134.928 137.877 134.583 137.877 134.135 137.728C133.78 137.597 133.416 137.597 133.043 137.728C132.819 137.784 132.688 137.859 132.651 137.952C132.613 138.027 132.623 138.195 132.679 138.456C132.735 138.717 132.753 139.221 132.735 139.968C132.716 140.659 132.735 141.051 132.791 141.144C132.865 141.237 133.211 141.312 133.827 141.368C133.957 141.387 134.116 141.405 134.303 141.424C134.489 141.443 134.62 141.461 134.695 141.48C134.788 141.48 134.844 141.48 134.863 141.48C134.881 141.48 134.928 141.583 135.003 141.788C135.096 141.993 135.189 142.133 135.283 142.208C135.339 142.264 135.367 142.385 135.367 142.572C135.367 142.871 135.133 143.113 134.667 143.3C134.219 143.487 133.724 143.524 133.183 143.412C132.847 143.375 132.455 143.403 132.007 143.496C130.943 143.757 130.289 143.907 130.047 143.944C129.823 143.963 129.561 143.935 129.263 143.86C129.001 143.804 128.712 143.804 128.395 143.86C127.667 143.991 126.78 144.112 125.735 144.224C125.473 144.243 125.231 144.224 125.007 144.168C124.839 144.131 124.521 144.084 124.055 144.028C123.401 143.972 122.907 143.757 122.571 143.384C122.253 142.992 122.225 142.6 122.487 142.208C122.729 141.835 123.075 141.648 123.523 141.648C123.821 141.648 124.083 141.611 124.307 141.536C124.549 141.443 124.736 141.396 124.867 141.396C125.016 141.396 125.109 141.359 125.147 141.284C125.203 141.172 125.24 140.873 125.259 140.388C125.277 139.884 125.268 139.548 125.231 139.38C125.175 139.193 125.203 138.979 125.315 138.736C125.464 138.437 125.473 138.223 125.343 138.092C125.231 137.943 124.932 137.812 124.447 137.7C124.111 137.644 123.896 137.635 123.803 137.672C123.579 137.803 123.364 137.821 123.159 137.728C122.953 137.635 122.813 137.457 122.739 137.196C122.627 136.86 122.599 136.58 122.655 136.356C122.729 136.132 122.86 136.02 123.047 136.02C123.121 136.02 123.271 135.955 123.495 135.824C123.644 135.749 123.793 135.712 123.943 135.712C124.111 135.693 124.512 135.684 125.147 135.684C126.005 135.703 126.621 135.675 126.995 135.6C127.349 135.525 127.676 135.497 127.975 135.516C128.255 135.553 128.479 135.572 128.647 135.572C129.151 135.572 129.617 135.581 130.047 135.6C131.633 135.619 132.791 135.591 133.519 135.516ZM130.103 137.644C129.991 137.569 129.907 137.541 129.851 137.56C129.832 137.56 129.776 137.56 129.683 137.56C129.608 137.56 129.487 137.569 129.319 137.588C129.169 137.588 129.039 137.597 128.927 137.616C128.628 137.635 128.432 137.644 128.339 137.644C128.245 137.644 128.124 137.681 127.975 137.756C127.825 137.831 127.741 137.887 127.723 137.924C127.704 137.961 127.667 138.101 127.611 138.344C127.573 138.587 127.555 138.792 127.555 138.96C127.555 139.109 127.545 139.427 127.527 139.912C127.508 140.901 127.573 141.499 127.723 141.704C127.872 141.909 128.264 141.975 128.899 141.9C129.645 141.807 130.093 141.639 130.243 141.396C130.411 141.153 130.476 140.537 130.439 139.548C130.42 138.839 130.383 138.363 130.327 138.12C130.289 137.877 130.215 137.719 130.103 137.644ZM134.191 145.176C134.247 145.12 134.433 145.111 134.751 145.148C135.087 145.167 135.32 145.213 135.451 145.288C135.619 145.381 135.777 145.428 135.927 145.428C136.095 145.428 136.225 145.484 136.319 145.596C136.431 145.689 136.515 145.848 136.571 146.072C136.664 146.427 136.673 146.679 136.599 146.828C136.543 146.977 136.356 147.089 136.039 147.164C135.833 147.22 135.563 147.304 135.227 147.416C134.984 147.491 134.825 147.528 134.751 147.528C134.676 147.528 134.536 147.491 134.331 147.416C134.032 147.341 133.733 147.332 133.435 147.388C133.136 147.425 132.847 147.435 132.567 147.416C132.305 147.379 132.035 147.407 131.755 147.5C131.493 147.575 131.223 147.584 130.943 147.528C130.644 147.472 130.345 147.472 130.047 147.528C129.767 147.565 129.02 147.584 127.807 147.584C126.929 147.565 126.388 147.565 126.183 147.584C125.977 147.603 125.763 147.649 125.539 147.724C125.296 147.817 125.137 147.864 125.063 147.864C124.988 147.864 124.82 147.817 124.559 147.724C124.204 147.612 123.784 147.565 123.299 147.584C122.627 147.603 122.235 147.5 122.123 147.276C121.843 146.716 121.871 146.296 122.207 146.016C122.561 145.717 123.243 145.568 124.251 145.568C124.568 145.568 124.857 145.531 125.119 145.456C125.305 145.4 125.66 145.381 126.183 145.4C126.724 145.419 127.163 145.465 127.499 145.54C128.059 145.671 128.535 145.661 128.927 145.512C129.132 145.456 129.403 145.428 129.739 145.428C130.093 145.428 130.345 145.381 130.495 145.288C130.663 145.213 130.868 145.195 131.111 145.232C131.372 145.269 131.932 145.279 132.791 145.26C133.668 145.241 134.135 145.213 134.191 145.176ZM128.115 148.62C128.171 148.564 128.656 148.545 129.571 148.564C130.504 148.583 131.204 148.629 131.671 148.704C132.903 148.891 133.733 149.171 134.163 149.544C134.611 149.917 134.751 150.477 134.583 151.224C134.321 152.307 133.976 152.848 133.547 152.848C133.416 152.848 133.211 152.913 132.931 153.044C132.333 153.305 131.633 153.436 130.831 153.436C130.308 153.436 129.888 153.473 129.571 153.548C128.805 153.716 128.395 153.828 128.339 153.884C128.152 154.033 127.667 154.052 126.883 153.94C126.509 153.903 126.267 153.903 126.155 153.94C126.043 153.959 125.949 154.052 125.875 154.22C125.669 154.705 125.66 155.013 125.847 155.144C126.164 155.349 126.864 155.499 127.947 155.592C129.029 155.704 129.795 155.695 130.243 155.564C130.56 155.452 130.989 155.396 131.531 155.396C132.053 155.396 132.427 155.377 132.651 155.34C132.837 155.284 133.155 155.275 133.603 155.312C134.069 155.349 134.331 155.396 134.387 155.452C134.443 155.508 134.527 155.704 134.639 156.04C134.751 156.376 134.807 156.609 134.807 156.74C134.807 156.908 134.685 157.057 134.443 157.188C134.275 157.281 134.116 157.384 133.967 157.496C133.705 157.664 133.435 157.72 133.155 157.664C132.949 157.608 132.725 157.608 132.483 157.664C131.848 157.813 130.793 157.879 129.319 157.86C127.844 157.86 126.939 157.785 126.603 157.636C126.416 157.561 126.22 157.524 126.015 157.524C125.604 157.524 125.119 157.337 124.559 156.964C124.017 156.591 123.719 156.255 123.663 155.956C123.625 155.732 123.523 155.499 123.355 155.256C123.168 154.976 123.075 154.621 123.075 154.192C123.075 153.763 123.159 153.436 123.327 153.212C123.457 153.063 123.569 152.904 123.663 152.736C123.793 152.475 123.999 152.344 124.279 152.344C124.409 152.344 124.661 152.26 125.035 152.092C125.389 151.905 125.725 151.821 126.043 151.84C126.36 151.877 126.621 151.859 126.827 151.784C126.995 151.747 127.443 151.719 128.171 151.7C128.899 151.663 129.524 151.663 130.047 151.7C130.551 151.719 131.008 151.513 131.419 151.084C131.624 150.86 131.708 150.729 131.671 150.692C131.633 150.636 131.447 150.589 131.111 150.552C130.98 150.552 130.784 150.543 130.523 150.524C130.28 150.487 130.131 150.468 130.075 150.468C129.776 150.449 129.477 150.477 129.179 150.552C128.899 150.627 128.012 150.673 126.519 150.692C125.044 150.692 124.269 150.655 124.195 150.58C124.064 150.487 124.008 150.272 124.027 149.936C124.045 149.581 124.129 149.329 124.279 149.18C124.484 148.937 124.68 148.797 124.867 148.76C125.072 148.704 125.604 148.676 126.463 148.676C127.527 148.657 128.077 148.639 128.115 148.62ZM141.979 137.056C142.166 137 142.539 136.981 143.099 137C143.678 137.019 144.098 137.056 144.359 137.112C144.565 137.168 144.714 137.168 144.807 137.112C145.143 136.925 145.573 136.991 146.095 137.308C146.618 137.607 146.991 138.027 147.215 138.568C147.421 139.016 147.495 139.725 147.439 140.696C147.383 141.648 147.234 142.301 146.991 142.656C146.786 142.955 146.291 143.235 145.507 143.496C144.723 143.739 144.126 143.813 143.715 143.72C143.473 143.664 142.735 143.692 141.503 143.804C141.018 143.841 140.738 143.897 140.663 143.972C140.589 144.047 140.486 144.355 140.355 144.896C140.318 145.139 140.337 145.381 140.411 145.624C140.486 145.848 140.607 145.997 140.775 146.072C140.943 146.147 141.503 146.156 142.455 146.1C143.407 146.044 144.275 145.941 145.059 145.792C145.47 145.717 145.787 145.717 146.011 145.792C146.235 145.848 146.459 145.857 146.683 145.82C146.926 145.783 147.122 145.829 147.271 145.96C147.533 146.165 147.645 146.361 147.607 146.548C147.589 146.735 147.411 146.996 147.075 147.332C146.814 147.612 146.599 147.789 146.431 147.864C146.263 147.939 146.058 147.948 145.815 147.892C145.554 147.836 145.255 147.855 144.919 147.948C144.509 148.079 144.033 148.163 143.491 148.2C142.969 148.237 142.605 148.219 142.399 148.144C142.194 148.069 141.914 148.032 141.559 148.032C141.223 148.032 140.962 147.995 140.775 147.92C140.589 147.864 140.393 147.827 140.187 147.808C140.019 147.808 139.879 147.78 139.767 147.724C139.655 147.668 139.431 147.509 139.095 147.248C138.106 146.445 137.826 145.475 138.255 144.336C138.405 143.944 138.479 143.692 138.479 143.58C138.479 143.188 138.666 142.787 139.039 142.376C139.431 141.947 139.814 141.732 140.187 141.732C141.251 141.676 141.914 141.601 142.175 141.508C142.306 141.452 142.782 141.405 143.603 141.368C144.275 141.331 144.658 141.293 144.751 141.256C144.863 141.219 144.947 141.051 145.003 140.752C145.022 140.547 145.069 140.369 145.143 140.22C145.293 139.921 145.283 139.669 145.115 139.464C144.947 139.259 144.658 139.128 144.247 139.072C143.837 139.016 143.342 139.044 142.763 139.156C142.203 139.268 141.625 139.324 141.027 139.324C140.449 139.343 140.047 139.371 139.823 139.408C139.394 139.483 139.049 139.315 138.787 138.904C138.75 138.848 138.685 138.764 138.591 138.652C138.517 138.521 138.47 138.447 138.451 138.428C138.19 138.055 138.358 137.691 138.955 137.336C139.142 137.243 139.637 137.187 140.439 137.168C141.223 137.149 141.737 137.112 141.979 137.056ZM149.483 138.148C149.745 138.017 150.118 138.045 150.603 138.232C150.939 138.363 151.154 138.493 151.247 138.624C151.359 138.755 151.415 138.96 151.415 139.24C151.453 140.211 151.499 140.808 151.555 141.032C151.63 141.237 151.789 141.331 152.031 141.312C152.33 141.275 152.535 141.219 152.647 141.144C152.759 141.069 152.825 140.939 152.843 140.752C152.862 140.547 152.918 140.341 153.011 140.136C153.086 139.949 153.114 139.707 153.095 139.408C153.058 139.147 153.095 138.885 153.207 138.624C153.319 138.344 153.459 138.176 153.627 138.12C153.945 137.989 154.29 138.045 154.663 138.288C155.055 138.531 155.251 138.811 155.251 139.128C155.251 139.371 155.289 139.585 155.363 139.772C155.438 139.959 155.457 140.248 155.419 140.64C155.382 141.051 155.373 141.377 155.391 141.62C155.391 141.695 155.401 142.255 155.419 143.3C155.438 144.159 155.466 144.747 155.503 145.064C155.541 145.475 155.447 146.184 155.223 147.192C155.13 147.584 154.831 147.808 154.327 147.864C153.823 147.92 153.534 147.752 153.459 147.36C153.441 147.229 153.347 146.987 153.179 146.632C153.086 146.389 153.03 146.221 153.011 146.128C152.993 146.035 153.011 145.848 153.067 145.568C153.123 145.176 153.095 144.849 152.983 144.588C152.909 144.383 152.871 144.252 152.871 144.196C152.871 144.14 152.899 144.056 152.955 143.944C153.142 143.627 153.002 143.477 152.535 143.496C152.442 143.496 152.33 143.505 152.199 143.524C151.733 143.599 151.415 143.776 151.247 144.056C151.098 144.317 151.061 144.756 151.135 145.372C151.173 145.652 151.173 145.988 151.135 146.38C151.098 146.753 151.042 147.024 150.967 147.192C150.855 147.472 150.547 147.603 150.043 147.584C149.558 147.547 149.222 147.379 149.035 147.08C148.886 146.819 148.765 146.24 148.671 145.344C148.597 144.429 148.615 143.869 148.727 143.664C148.802 143.515 148.821 143.337 148.783 143.132C148.709 142.721 148.755 142.357 148.923 142.04C149.017 141.835 149.045 141.536 149.007 141.144C148.97 140.733 148.989 140.463 149.063 140.332C149.138 140.183 149.129 139.968 149.035 139.688C148.923 139.371 148.905 139.072 148.979 138.792C149.073 138.493 149.241 138.279 149.483 138.148ZM147.047 150.076C147.421 149.908 147.701 149.917 147.887 150.104C147.999 150.216 148.13 150.309 148.279 150.384C148.559 150.533 148.634 150.869 148.503 151.392C148.429 151.635 148.401 151.812 148.419 151.924C148.438 152.036 148.503 152.157 148.615 152.288C148.709 152.419 148.979 152.624 149.427 152.904C149.875 153.165 150.221 153.333 150.463 153.408C150.706 153.483 151.098 153.651 151.639 153.912C152.162 154.173 152.479 154.304 152.591 154.304C152.871 154.304 153.086 154.547 153.235 155.032C153.403 155.517 153.385 155.881 153.179 156.124C152.563 156.777 151.425 156.572 149.763 155.508C149.297 155.209 148.998 155.032 148.867 154.976C148.737 154.901 148.541 154.743 148.279 154.5C148.018 154.239 147.822 154.089 147.691 154.052C147.579 154.015 147.383 153.94 147.103 153.828C146.749 153.697 146.478 153.641 146.291 153.66C146.123 153.679 145.937 153.781 145.731 153.968C145.47 154.192 145.209 154.379 144.947 154.528C144.649 154.715 144.387 154.911 144.163 155.116C143.883 155.359 143.622 155.508 143.379 155.564C143.155 155.62 142.978 155.695 142.847 155.788C142.549 155.975 142.25 155.993 141.951 155.844C141.485 155.62 141.27 155.256 141.307 154.752C141.345 154.229 141.615 153.837 142.119 153.576C142.325 153.483 142.511 153.361 142.679 153.212C142.847 153.063 143.155 152.885 143.603 152.68C144.051 152.475 144.397 152.269 144.639 152.064C144.882 151.859 145.199 151.625 145.591 151.364C145.983 151.103 146.273 150.841 146.459 150.58C146.665 150.319 146.861 150.151 147.047 150.076ZM169.217 135.824C169.87 135.749 170.262 135.721 170.393 135.74C170.524 135.759 170.682 135.852 170.869 136.02C171.429 136.524 171.597 137.019 171.373 137.504C171.149 137.971 170.673 138.157 169.945 138.064C169.217 137.952 168.75 137.971 168.545 138.12C168.34 138.269 168.321 138.587 168.489 139.072C168.601 139.333 168.648 139.613 168.629 139.912C168.592 141.125 168.601 141.76 168.657 141.816C168.713 141.853 169.04 141.881 169.637 141.9C170.141 141.919 170.44 141.956 170.533 142.012C170.645 142.068 170.766 142.273 170.897 142.628C171.084 143.151 171.028 143.543 170.729 143.804C170.43 144.065 169.889 144.205 169.105 144.224C168.396 144.224 167.91 144.261 167.649 144.336C167.35 144.392 166.94 144.42 166.417 144.42C165.969 144.42 165.708 144.448 165.633 144.504C165.558 144.56 165.577 144.7 165.689 144.924C165.764 145.111 165.81 145.344 165.829 145.624C165.866 145.904 165.922 146.072 165.997 146.128C166.09 146.184 166.277 146.184 166.557 146.128C166.837 146.072 167.173 146.072 167.565 146.128C167.938 146.203 168.153 146.221 168.209 146.184C168.265 146.147 168.545 146.137 169.049 146.156C169.553 146.156 169.964 146.128 170.281 146.072C170.617 146.016 170.906 146.053 171.149 146.184C171.41 146.296 171.634 146.361 171.821 146.38C172.008 146.399 172.129 146.464 172.185 146.576C172.26 146.688 172.297 146.912 172.297 147.248C172.297 147.528 172.26 147.724 172.185 147.836C172.129 147.929 171.98 148.004 171.737 148.06C171.494 148.135 171.261 148.219 171.037 148.312C170.832 148.387 170.552 148.387 170.197 148.312C169.842 148.219 169.534 148.2 169.273 148.256C169.012 148.312 168.694 148.34 168.321 148.34C166.156 148.321 164.933 148.359 164.653 148.452C164.354 148.527 163.449 148.555 161.937 148.536C161.713 148.536 161.517 148.573 161.349 148.648C160.882 148.891 160.472 148.928 160.117 148.76C159.912 148.667 159.622 148.62 159.249 148.62C158.932 148.62 158.708 148.592 158.577 148.536C158.446 148.461 158.334 148.312 158.241 148.088C158.148 147.845 158.129 147.575 158.185 147.276C158.241 146.977 158.353 146.781 158.521 146.688C158.596 146.632 158.885 146.595 159.389 146.576C159.893 146.557 160.276 146.567 160.537 146.604C160.742 146.641 160.976 146.613 161.237 146.52C161.498 146.408 161.816 146.361 162.189 146.38C162.562 146.38 162.805 146.343 162.917 146.268C163.048 146.175 163.178 145.969 163.309 145.652C163.477 145.241 163.496 144.989 163.365 144.896C163.234 144.784 162.842 144.747 162.189 144.784C161.61 144.821 161.162 144.812 160.845 144.756C160.546 144.7 160.229 144.663 159.893 144.644C159.37 144.644 158.988 144.457 158.745 144.084C158.502 143.692 158.474 143.309 158.661 142.936C158.848 142.544 159.193 142.348 159.697 142.348C160.257 142.348 160.602 142.255 160.733 142.068C160.882 141.881 160.948 141.443 160.929 140.752C160.929 140.043 160.976 139.557 161.069 139.296C161.218 138.941 161.181 138.68 160.957 138.512C160.733 138.325 160.322 138.241 159.725 138.26C159.352 138.26 159.109 138.223 158.997 138.148C158.904 138.055 158.829 137.831 158.773 137.476C158.698 136.953 158.81 136.617 159.109 136.468C159.426 136.3 160.098 136.216 161.125 136.216C162.077 136.235 162.628 136.216 162.777 136.16C162.945 136.067 164.168 136.001 166.445 135.964C167.789 135.945 168.713 135.899 169.217 135.824ZM166.193 138.064C166.137 137.971 166.016 137.924 165.829 137.924C165.661 137.905 165.25 137.924 164.597 137.98C163.906 138.017 163.486 138.185 163.337 138.484C163.281 138.615 163.244 139.277 163.225 140.472C163.206 141.667 163.234 142.301 163.309 142.376C163.402 142.488 163.664 142.553 164.093 142.572C164.541 142.572 164.896 142.516 165.157 142.404C165.474 142.273 165.708 142.208 165.857 142.208C166.1 142.208 166.268 142.021 166.361 141.648C166.473 141.275 166.482 140.808 166.389 140.248C166.333 139.875 166.333 139.613 166.389 139.464C166.445 139.315 166.445 139.147 166.389 138.96C166.333 138.773 166.305 138.605 166.305 138.456C166.305 138.307 166.268 138.176 166.193 138.064ZM162.525 149.572C162.73 149.535 162.973 149.525 163.253 149.544C163.533 149.581 164.14 149.591 165.073 149.572C166.025 149.572 166.678 149.6 167.033 149.656C167.313 149.693 167.752 149.74 168.349 149.796C168.853 149.815 169.161 149.861 169.273 149.936C169.385 149.992 169.581 150.057 169.861 150.132C170.16 150.207 170.365 150.3 170.477 150.412C170.608 150.505 170.738 150.692 170.869 150.972C171.149 151.588 171.298 152.4 171.317 153.408C171.336 154.416 171.205 155.06 170.925 155.34C170.813 155.471 170.729 155.676 170.673 155.956C170.561 156.721 170.104 157.104 169.301 157.104C168.984 157.123 168.694 157.197 168.433 157.328C168.041 157.496 167.714 157.589 167.453 157.608C167.21 157.645 166.809 157.636 166.249 157.58C165.558 157.524 165.045 157.543 164.709 157.636C164.373 157.711 164.084 157.739 163.841 157.72C162.516 157.571 161.741 157.449 161.517 157.356C161.293 157.263 161.134 157.216 161.041 157.216C160.892 157.216 160.686 157.123 160.425 156.936C160.164 156.768 159.921 156.563 159.697 156.32C158.913 155.499 158.633 154.267 158.857 152.624C158.894 152.381 158.894 152.167 158.857 151.98C158.764 151.569 158.904 151.112 159.277 150.608C159.52 150.309 159.688 150.123 159.781 150.048C159.893 149.973 160.052 149.936 160.257 149.936C160.481 149.936 160.705 149.889 160.929 149.796C161.172 149.703 161.442 149.647 161.741 149.628C162.04 149.628 162.301 149.609 162.525 149.572ZM167.033 151.532C166.697 151.439 166.408 151.448 166.165 151.56C166.034 151.597 165.689 151.625 165.129 151.644C163.617 151.681 162.46 151.756 161.657 151.868C161.097 151.943 160.92 152.615 161.125 153.884C161.218 154.463 161.396 154.836 161.657 155.004C161.918 155.153 162.544 155.247 163.533 155.284C164.205 155.321 164.672 155.359 164.933 155.396C165.157 155.452 165.409 155.452 165.689 155.396C165.95 155.359 166.305 155.34 166.753 155.34C167.537 155.321 168.078 155.256 168.377 155.144C168.694 155.013 168.853 154.799 168.853 154.5C168.853 154.313 168.881 154.061 168.937 153.744C168.993 153.408 168.984 153.128 168.909 152.904C168.834 152.68 168.797 152.493 168.797 152.344C168.797 152.139 168.722 151.989 168.573 151.896C168.442 151.803 168.209 151.728 167.873 151.672C167.481 151.635 167.201 151.588 167.033 151.532Z" fill="#F5F5F5"/>
</svg>
