<svg width="44" height="44" viewBox="0 0 44 44" fill="none" xmlns="http://www.w3.org/2000/svg">
<path d="M12.7967 38.5C11.7994 38.5 10.9451 38.1694 10.2337 37.5081C9.52241 36.8457 9.16675 36.0268 9.16675 35.0515V10.571C9.16675 9.62008 9.49064 8.78652 10.1384 8.0703C10.7862 7.35408 11.5843 6.89697 12.5327 6.69897L25.0507 4.06447C25.9686 3.86769 26.7942 4.05958 27.5276 4.64013C28.2609 5.22069 28.6276 5.9858 28.6276 6.93547V27.7016C28.6276 28.4007 28.4057 29.018 27.9621 29.5533C27.5184 30.0886 26.9623 30.4321 26.2937 30.5836L12.3861 33.6105C12.017 33.696 11.6937 33.8647 11.4162 34.1165C11.1388 34.3682 11.0001 34.6805 11.0001 35.0533C11.0001 35.53 11.1785 35.918 11.5354 36.2175C11.8923 36.5169 12.3134 36.6666 12.7986 36.6666H31.8726C32.2014 36.6666 32.4715 36.5609 32.6829 36.3495C32.8944 36.138 33.0001 35.8673 33.0001 35.5373V10.0833C33.0001 9.82297 33.0875 9.6048 33.2622 9.4288C33.437 9.2528 33.6552 9.16541 33.9167 9.16663C34.1783 9.16785 34.3965 9.25524 34.5712 9.4288C34.746 9.60235 34.8334 9.82052 34.8334 10.0833V35.5391C34.8334 36.358 34.545 37.0565 33.9681 37.6346C33.3912 38.2115 32.6927 38.5 31.8726 38.5H12.7967ZM15.3726 31.1355L25.9142 28.853C26.1721 28.8065 26.3836 28.6776 26.5486 28.4661C26.7136 28.2547 26.7961 28.0194 26.7961 27.7603V6.9813C26.7961 6.62808 26.6549 6.33413 26.3726 6.09947C26.0902 5.8648 25.7725 5.7823 25.4192 5.85197L15.3744 7.9933L15.3726 31.1355ZM13.5392 31.515V8.37463L12.7454 8.5488C12.2443 8.65635 11.8287 8.8953 11.4987 9.26563C11.1663 9.63474 11.0001 10.0699 11.0001 10.571V32.3271C11.2237 32.1951 11.4486 32.0827 11.6747 31.9898C11.9009 31.8969 12.138 31.8236 12.3861 31.7698L13.5392 31.515Z" fill="#333333"/>
</svg>
