<svg width="24" height="24" viewBox="0 0 24 24" fill="none" xmlns="http://www.w3.org/2000/svg">
<path d="M12.0002 12.708L6.75423 17.954C6.6609 18.0473 6.54623 18.0973 6.41023 18.104C6.27423 18.1107 6.1529 18.0607 6.04623 17.954C5.93956 17.8473 5.88623 17.7293 5.88623 17.6C5.88623 17.4707 5.93956 17.3527 6.04623 17.246L11.2922 12L6.04623 6.754C5.9529 6.66067 5.9029 6.546 5.89623 6.41C5.88956 6.274 5.93956 6.15267 6.04623 6.046C6.1529 5.93933 6.2709 5.886 6.40023 5.886C6.52956 5.886 6.64756 5.93933 6.75423 6.046L12.0002 11.292L17.2462 6.046C17.3396 5.95267 17.4546 5.90267 17.5912 5.896C17.7266 5.88933 17.8476 5.93933 17.9542 6.046C18.0609 6.15267 18.1142 6.27067 18.1142 6.4C18.1142 6.52933 18.0609 6.64733 17.9542 6.754L12.7082 12L17.9542 17.246C18.0476 17.3393 18.0976 17.4543 18.1042 17.591C18.1109 17.7263 18.0609 17.8473 17.9542 17.954C17.8476 18.0607 17.7296 18.114 17.6002 18.114C17.4709 18.114 17.3529 18.0607 17.2462 17.954L12.0002 12.708Z" fill="#333333"/>
</svg>
