<svg width="49" height="50" viewBox="0 0 49 50" fill="none" xmlns="http://www.w3.org/2000/svg">
<path d="M26.0313 14.5833C26.0313 14.1689 25.8699 13.7714 25.5828 13.4784C25.2956 13.1854 24.9061 13.0208 24.5 13.0208C24.0939 13.0208 23.7044 13.1854 23.4172 13.4784C23.1301 13.7714 22.9688 14.1689 22.9688 14.5833V24.9999C22.9686 25.2648 23.0345 25.5254 23.1603 25.7572C23.286 25.989 23.4674 26.1843 23.6874 26.3249L29.8124 30.2312C30.1568 30.4511 30.5727 30.5224 30.9686 30.4294C31.1646 30.3834 31.3499 30.2984 31.5137 30.1793C31.6775 30.0602 31.8168 29.9093 31.9235 29.7353C32.0302 29.5613 32.1023 29.3676 32.1356 29.1652C32.169 28.9627 32.1629 28.7556 32.1178 28.5556C32.0726 28.3555 31.9893 28.1665 31.8726 27.9993C31.7559 27.8321 31.6081 27.6901 31.4376 27.5812L26.0313 24.1333V14.5833Z" fill="#333333"/>
<path fill-rule="evenodd" clip-rule="evenodd" d="M24.5001 6.77075C19.7621 6.77075 15.2182 8.69132 11.8679 12.11C8.51765 15.5286 6.6355 20.1652 6.6355 24.9999C6.6355 29.8346 8.51765 34.4713 11.8679 37.8899C15.2182 41.3085 19.7621 43.2291 24.5001 43.2291C29.2381 43.2291 33.782 41.3085 37.1322 37.8899C40.4825 34.4713 42.3647 29.8346 42.3647 24.9999C42.3647 20.1652 40.4825 15.5286 37.1322 12.11C33.782 8.69132 29.2381 6.77075 24.5001 6.77075ZM9.698 24.9999C9.698 23.0164 10.0809 21.0523 10.8247 19.2198C11.5686 17.3873 12.6589 15.7222 14.0334 14.3197C15.4079 12.9171 17.0397 11.8045 18.8356 11.0455C20.6314 10.2864 22.5562 9.89575 24.5001 9.89575C26.4439 9.89575 28.3687 10.2864 30.1646 11.0455C31.9605 11.8045 33.5922 12.9171 34.9667 14.3197C36.3412 15.7222 37.4315 17.3873 38.1754 19.2198C38.9193 21.0523 39.3022 23.0164 39.3022 24.9999C39.3022 29.0058 37.7427 32.8476 34.9667 35.6802C32.1908 38.5128 28.4258 40.1041 24.5001 40.1041C20.5743 40.1041 16.8094 38.5128 14.0334 35.6802C11.2575 32.8476 9.698 29.0058 9.698 24.9999Z" fill="#333333"/>
</svg>
