<svg width="38" height="38" viewBox="0 0 38 38" fill="none" xmlns="http://www.w3.org/2000/svg">
<path d="M20.2263 28.6037L20.1391 28.615V28.7029V30.4113V30.5113H20.2391H23.9565C24.2591 30.5113 24.549 30.6298 24.7625 30.8402C24.976 31.0507 25.0957 31.3357 25.0957 31.6327C25.0957 31.9297 24.976 32.2147 24.7625 32.4252C24.549 32.6356 24.2591 32.7541 23.9565 32.7541H14.0435C13.7409 32.7541 13.451 32.6356 13.2375 32.4252C13.024 32.2147 12.9043 31.9297 12.9043 31.6327C12.9043 31.3357 13.024 31.0507 13.2375 30.8402C13.451 30.6298 13.7409 30.5113 14.0435 30.5113H17.7609H17.8609V30.4113V28.7029V28.615L17.7737 28.6037C15.5121 28.3104 13.4361 27.2167 11.9325 25.5267C10.4288 23.8367 9.59995 21.6658 9.6 19.4184C9.6 19.1215 9.71966 18.8364 9.93313 18.6259C10.1467 18.4155 10.4366 18.297 10.7391 18.297C11.0417 18.297 11.3316 18.4155 11.5451 18.6259C11.7586 18.8364 11.8783 19.1215 11.8783 19.4184C11.8783 21.2811 12.6289 23.0672 13.9647 24.3838C15.3004 25.7004 17.1117 26.4398 19 26.4398C20.8883 26.4398 22.6996 25.7004 24.0353 24.3838C25.3711 23.0672 26.1217 21.2811 26.1217 19.4184C26.1217 19.1215 26.2414 18.8364 26.4549 18.6259C26.6684 18.4155 26.9583 18.297 27.2609 18.297C27.5634 18.297 27.8533 18.4155 28.0669 18.6259C28.2803 18.8364 28.4 19.1215 28.4 19.4184C28.4 21.6658 27.5712 23.8367 26.0675 25.5267C24.5639 27.2167 22.4879 28.3104 20.2263 28.6037ZM13.7304 9.64698C13.7304 8.27022 14.2853 6.94955 15.2733 5.97559C16.2615 5.00157 17.602 4.45413 19 4.45413C20.398 4.45413 21.7385 5.00157 22.7267 5.97559C23.7147 6.94955 24.2696 8.27022 24.2696 9.64698V19.4184C24.2696 20.7952 23.7147 22.1158 22.7267 23.0898C21.7385 24.0638 20.398 24.6113 19 24.6113C17.602 24.6113 16.2615 24.0638 15.2733 23.0898C14.2853 22.1158 13.7304 20.7952 13.7304 19.4184V9.64698ZM19 6.69698C18.2071 6.69698 17.4464 7.00744 16.8853 7.56051C16.3242 8.11363 16.0087 8.86413 16.0087 9.64698V19.4184C16.0087 20.2013 16.3242 20.9518 16.8853 21.5049C17.4464 22.058 18.2071 22.3684 19 22.3684C19.7929 22.3684 20.5536 22.058 21.1147 21.5049C21.6758 20.9518 21.9913 20.2013 21.9913 19.4184V9.64698C21.9913 8.86413 21.6758 8.11363 21.1147 7.56051C20.5536 7.00744 19.7929 6.69698 19 6.69698Z" fill="#333333" stroke="white" stroke-width="0.2"/>
</svg>
