<svg width="38" height="38" viewBox="0 0 38 38" fill="none" xmlns="http://www.w3.org/2000/svg">
<path d="M8.76985 32.4667L8.76992 32.4667C9.4033 33.0555 10.1657 33.3501 11.0515 33.3501H27.5261C28.2607 33.3501 28.8895 33.0905 29.4065 32.5735L29.4066 32.5734C29.9236 32.0553 30.1832 31.4266 30.1832 30.693V8.70841C30.1832 8.4568 30.0984 8.24222 29.9272 8.07221C29.7564 7.9026 29.5423 7.81792 29.292 7.81675C29.0409 7.81558 28.8262 7.90056 28.6553 8.0727C28.4847 8.24444 28.3998 8.45864 28.3998 8.70841V30.6914C28.3998 30.9529 28.317 31.1603 28.1552 31.3221C27.9933 31.484 27.7864 31.5667 27.5261 31.5667H11.0531C10.6565 31.5667 10.3159 31.4451 10.0264 31.2022C9.74147 30.9631 9.59984 30.6563 9.59984 30.2734C9.59984 29.9798 9.70761 29.737 9.92646 29.5384C10.1531 29.3327 10.4167 29.195 10.7187 29.1249C10.719 29.1249 10.7192 29.1248 10.7194 29.1248L22.7293 26.511L22.7301 26.5108C23.3293 26.3749 23.8288 26.0663 24.2258 25.5872C24.624 25.1068 24.8236 24.5512 24.8236 23.9242V5.98983C24.8236 5.13966 24.4934 4.44979 23.8357 3.92909C23.1789 3.40914 22.4354 3.23641 21.6137 3.41251C21.6137 3.41253 21.6136 3.41254 21.6135 3.41255L10.8031 5.68769C9.96331 5.863 9.2552 6.26853 8.68151 6.90284C8.10572 7.53946 7.8165 8.28315 7.8165 9.12958V30.2718C7.8165 31.1418 8.13513 31.8756 8.76985 32.4667ZM22.3625 24.8202L22.3625 24.8201L22.3591 24.8208L13.3761 26.7659L13.3777 6.98435L21.9721 5.15219C21.9724 5.15214 21.9726 5.15209 21.9728 5.15205C22.2474 5.09809 22.4912 5.16103 22.7122 5.34474C22.9342 5.52926 23.0418 5.7554 23.0418 6.02941V23.9749C23.0418 24.1756 22.9786 24.3573 22.8492 24.523C22.7215 24.6867 22.5604 24.7845 22.3625 24.8202ZM9.59984 27.7473V9.12958C9.59984 8.72128 9.7344 8.36941 10.0048 8.06917L10.0052 8.06878C10.2755 7.76535 10.6154 7.56953 11.0282 7.48094L11.0286 7.48084L11.5928 7.35707V27.1373L10.6757 27.3399C10.6755 27.34 10.6754 27.34 10.6753 27.34C10.4556 27.3876 10.2453 27.4527 10.0445 27.5352C9.89547 27.5964 9.74724 27.6671 9.59984 27.7473Z" fill="#333333" stroke="#333333" stroke-width="0.2"/>
</svg>
