<svg width="24" height="24" viewBox="0 0 37 38" fill="none" xmlns="http://www.w3.org/2000/svg">
<g clip-path="url(#clip0_2411_1012)">
<path d="M32.0144 16.8206L32.0264 16.8086L31.991 16.7732L19.1438 3.92598L19.1437 3.92588C18.9739 3.75705 18.7441 3.66228 18.5046 3.66228C18.2652 3.66228 18.0354 3.75705 17.8656 3.92588L17.8655 3.92598L5.01825 16.7732L5.01814 16.7731L5.01563 16.776C4.86712 16.9495 4.78952 17.1725 4.79833 17.4007C4.80714 17.6288 4.90172 17.8452 5.06316 18.0066C5.2246 18.1681 5.44101 18.2627 5.66915 18.2715C5.89729 18.2803 6.12035 18.2027 6.29377 18.0542L6.29386 18.0543L6.2966 18.0516L18.5003 5.8478L30.7041 18.0601L30.704 18.0602L30.707 18.0627C30.8804 18.2112 31.1034 18.2888 31.3316 18.28C31.5597 18.2712 31.7761 18.1767 31.9376 18.0152C32.099 17.8538 32.1936 17.6374 32.2024 17.4092C32.2106 17.1966 32.1437 16.9883 32.0144 16.8206Z" fill="#6D57DE" stroke="#6D57DE" stroke-width="0.1"/>
<path d="M15.9805 31.1203V22.6055H21.0194V31.1203V31.1703H21.0694H27.0648C27.5323 31.1703 27.9807 30.9846 28.3114 30.654C28.642 30.3233 28.8277 29.8749 28.8277 29.4074V18.924V18.9033L28.8131 18.8887L27.1001 17.1757L27.0148 17.0903V17.2111V29.3574H22.8324V20.8425V20.7925H22.7824H14.2175H14.1675V20.8425V29.3574H9.98513V17.4166V17.2959L9.89978 17.3813L8.18681 19.0942L8.17217 19.1089V19.1296V29.4074C8.17217 29.8749 8.35791 30.3233 8.68853 30.654C9.01915 30.9846 9.46756 31.1703 9.93513 31.1703H15.9305H15.9805V31.1203Z" fill="#6D57DE" stroke="#6D57DE" stroke-width="0.1"/>
</g>
<defs>
<clipPath id="clip0_2411_1012">
<rect width="30.8333" height="30.8333" fill="white" transform="translate(3.0835 2)"/>
</clipPath>
</defs>
</svg>
