<svg width="24" height="24" viewBox="0 0 24 24" fill="none" xmlns="http://www.w3.org/2000/svg">
<path fill-rule="evenodd" clip-rule="evenodd" d="M7.62738 3.86977C7.68205 3.35629 7.92315 2.88131 8.30433 2.53615C8.68551 2.19099 9.17986 2.00004 9.69231 2H14.3077C14.8201 2.00004 15.3145 2.19099 15.6957 2.53615C16.0769 2.88131 16.318 3.35629 16.3726 3.86977C17.0778 3.88465 17.6862 3.92093 18.2068 4.01767C18.9065 4.14791 19.5018 4.39349 19.9865 4.88279C20.5422 5.44186 20.7803 6.14791 20.8929 6.98512C21 7.7907 21 8.81674 21 10.0884V15.7721C21 17.0437 21 18.0698 20.8929 18.8763C20.7803 19.7135 20.5422 20.4186 19.9865 20.9786C19.4308 21.5386 18.7311 21.7786 17.9003 21.8921C17.1 22 16.0818 22 14.82 22H9.18C7.91815 22 6.9 22 6.09969 21.8921C5.26892 21.7786 4.56923 21.5386 4.01354 20.9786C3.45785 20.4186 3.21969 19.7135 3.108 18.8763C3 18.0698 3 17.0437 3 15.7721V10.0884C3 8.81674 3 7.7907 3.108 6.98419C3.21877 6.14698 3.45877 5.44186 4.01354 4.88186C4.49815 4.39349 5.09354 4.14698 5.79323 4.01767C6.31385 3.92093 6.92308 3.88465 7.62738 3.86977ZM7.62923 5.26512C6.96646 5.28 6.45508 5.31349 6.04338 5.38977C5.52092 5.48651 5.21723 5.64279 4.99292 5.86884C4.73723 6.12651 4.57108 6.48744 4.47969 7.17116C4.38646 7.87256 4.38462 8.80465 4.38462 10.1395V15.7209C4.38462 17.0558 4.38646 17.987 4.47969 18.6902C4.57108 19.373 4.73815 19.734 4.99292 19.9916C5.24862 20.2493 5.60677 20.4167 6.28523 20.5088C6.98123 20.6028 7.90615 20.6047 9.23077 20.6047H14.7692C16.0938 20.6047 17.0178 20.6028 17.7157 20.5088C18.3932 20.4167 18.7514 20.2484 19.0071 19.9916C19.2628 19.734 19.4289 19.373 19.5203 18.6893C19.6135 17.987 19.6154 17.0558 19.6154 15.7209V10.1395C19.6154 8.80465 19.6135 7.87256 19.5203 7.17023C19.4289 6.48744 19.2618 6.12651 19.0071 5.86884C18.7818 5.64279 18.4791 5.48744 17.9566 5.38977C17.5449 5.31349 17.0335 5.28 16.3708 5.26605C16.3117 5.77568 16.0689 6.24569 15.6886 6.58679C15.3083 6.92789 14.8168 7.11632 14.3077 7.11628H9.69231C9.18302 7.1163 8.69148 6.92774 8.31112 6.58644C7.93075 6.24515 7.68808 5.77491 7.62923 5.26512ZM9.69231 3.39535C9.5087 3.39535 9.33261 3.46885 9.20277 3.59969C9.07294 3.73053 9 3.90799 9 4.09302V5.02326C9 5.40837 9.31015 5.72093 9.69231 5.72093H14.3077C14.4913 5.72093 14.6674 5.64743 14.7972 5.51659C14.9271 5.38575 15 5.20829 15 5.02326V4.09302C15 3.90799 14.9271 3.73053 14.7972 3.59969C14.6674 3.46885 14.4913 3.39535 14.3077 3.39535H9.69231ZM6.69231 10.6047C6.69231 10.4196 6.76525 10.2422 6.89508 10.1113C7.02491 9.98048 7.201 9.90698 7.38462 9.90698H7.84615C8.02977 9.90698 8.20586 9.98048 8.33569 10.1113C8.46552 10.2422 8.53846 10.4196 8.53846 10.6047C8.53846 10.7897 8.46552 10.9671 8.33569 11.098C8.20586 11.2288 8.02977 11.3023 7.84615 11.3023H7.38462C7.201 11.3023 7.02491 11.2288 6.89508 11.098C6.76525 10.9671 6.69231 10.7897 6.69231 10.6047ZM9.92308 10.6047C9.92308 10.4196 9.99602 10.2422 10.1258 10.1113C10.2557 9.98048 10.4318 9.90698 10.6154 9.90698H16.6154C16.799 9.90698 16.9751 9.98048 17.1049 10.1113C17.2348 10.2422 17.3077 10.4196 17.3077 10.6047C17.3077 10.7897 17.2348 10.9671 17.1049 11.098C16.9751 11.2288 16.799 11.3023 16.6154 11.3023H10.6154C10.4318 11.3023 10.2557 11.2288 10.1258 11.098C9.99602 10.9671 9.92308 10.7897 9.92308 10.6047ZM6.69231 13.8605C6.69231 13.6754 6.76525 13.498 6.89508 13.3671C7.02491 13.2363 7.201 13.1628 7.38462 13.1628H7.84615C8.02977 13.1628 8.20586 13.2363 8.33569 13.3671C8.46552 13.498 8.53846 13.6754 8.53846 13.8605C8.53846 14.0455 8.46552 14.223 8.33569 14.3538C8.20586 14.4846 8.02977 14.5581 7.84615 14.5581H7.38462C7.201 14.5581 7.02491 14.4846 6.89508 14.3538C6.76525 14.223 6.69231 14.0455 6.69231 13.8605ZM9.92308 13.8605C9.92308 13.6754 9.99602 13.498 10.1258 13.3671C10.2557 13.2363 10.4318 13.1628 10.6154 13.1628H16.6154C16.799 13.1628 16.9751 13.2363 17.1049 13.3671C17.2348 13.498 17.3077 13.6754 17.3077 13.8605C17.3077 14.0455 17.2348 14.223 17.1049 14.3538C16.9751 14.4846 16.799 14.5581 16.6154 14.5581H10.6154C10.4318 14.5581 10.2557 14.4846 10.1258 14.3538C9.99602 14.223 9.92308 14.0455 9.92308 13.8605ZM6.69231 17.1163C6.69231 16.9312 6.76525 16.7538 6.89508 16.6229C7.02491 16.4921 7.201 16.4186 7.38462 16.4186H7.84615C8.02977 16.4186 8.20586 16.4921 8.33569 16.6229C8.46552 16.7538 8.53846 16.9312 8.53846 17.1163C8.53846 17.3013 8.46552 17.4788 8.33569 17.6096C8.20586 17.7404 8.02977 17.814 7.84615 17.814H7.38462C7.201 17.814 7.02491 17.7404 6.89508 17.6096C6.76525 17.4788 6.69231 17.3013 6.69231 17.1163ZM9.92308 17.1163C9.92308 16.9312 9.99602 16.7538 10.1258 16.6229C10.2557 16.4921 10.4318 16.4186 10.6154 16.4186H16.6154C16.799 16.4186 16.9751 16.4921 17.1049 16.6229C17.2348 16.7538 17.3077 16.9312 17.3077 17.1163C17.3077 17.3013 17.2348 17.4788 17.1049 17.6096C16.9751 17.7404 16.799 17.814 16.6154 17.814H10.6154C10.4318 17.814 10.2557 17.7404 10.1258 17.6096C9.99602 17.4788 9.92308 17.3013 9.92308 17.1163Z" fill="#333333"/>
</svg>
