<svg width="82" height="82" viewBox="0 0 82 82" fill="none" xmlns="http://www.w3.org/2000/svg">
<path d="M24.4502 8.14778C28.2592 10.9237 31.225 14.7126 33.7577 18.3383L35.2306 20.4844L36.6202 22.5338C37.3153 23.5493 37.6125 24.785 37.4552 26.0055C37.2978 27.226 36.697 28.346 35.7671 29.152L29.2656 33.9807C28.9515 34.2075 28.7303 34.5406 28.6433 34.9181C28.5563 35.2957 28.6092 35.692 28.7924 36.0334C30.2653 38.7094 32.8846 42.6949 35.8837 45.6941C38.8829 48.6933 43.0584 51.4858 45.921 53.1254C46.2799 53.3269 46.7023 53.3832 47.1015 53.2828C47.5007 53.1824 47.8462 52.9329 48.067 52.5855L52.2992 46.144C53.0773 45.1104 54.2251 44.418 55.5023 44.2118C56.7794 44.0056 58.0868 44.3015 59.1507 45.0376L61.3601 46.5672C65.4889 49.4331 69.9244 52.6888 73.3168 57.031C73.8548 57.7235 74.197 58.5476 74.3078 59.4175C74.4186 60.2874 74.2938 61.1711 73.9466 61.9763C71.1573 68.4845 64.0993 74.0263 56.758 73.7564L55.7583 73.6997L54.9818 73.6331L54.122 73.5331L53.1856 73.4065L52.1693 73.2399L51.6361 73.1399L50.5164 72.8999L49.9299 72.7666L48.7102 72.4534L47.4272 72.0868L46.0876 71.6536C39.936 69.5675 32.1281 65.4687 24.117 57.4575C16.1058 49.4464 12.0103 41.6419 9.92422 35.4902L9.49101 34.1506L9.12444 32.8676L8.81119 31.648L8.55126 30.495C8.47628 30.1338 8.40629 29.7717 8.34132 29.4086L8.1747 28.3922L8.0414 27.4558L7.94476 26.596L7.87812 25.8196L7.8248 24.8199C7.55487 17.5019 13.1567 10.3938 19.6349 7.61792C20.4146 7.28124 21.2684 7.15305 22.1126 7.24594C22.9568 7.33883 23.7624 7.64961 24.4502 8.14778ZM51.5594 20.1278L51.946 20.1711C54.3717 20.599 56.5996 21.7838 58.3105 23.5558C60.0214 25.3278 61.1274 27.5959 61.47 30.0351C61.5922 30.8788 61.3863 31.7372 60.8948 32.4338C60.4033 33.1303 59.6636 33.612 58.8278 33.7798C57.9919 33.9476 57.1236 33.7886 56.4014 33.3357C55.6792 32.8827 55.158 32.1702 54.9451 31.3447L54.8685 30.9615C54.7344 30.0054 54.3264 29.1086 53.6936 28.3795C53.0608 27.6503 52.2305 27.12 51.3028 26.8526L50.7863 26.736C49.9495 26.5877 49.201 26.1253 48.6939 25.4434C48.1867 24.7614 47.9593 23.9115 48.058 23.0675C48.1568 22.2234 48.5743 21.449 49.2251 20.9025C49.876 20.3561 50.711 20.079 51.5594 20.1278ZM51.5861 9.99727C56.8889 9.99727 61.9746 12.1038 65.7243 15.8535C69.474 19.6032 71.5806 24.6889 71.5806 29.9918C71.5796 30.8411 71.2544 31.6581 70.6713 32.2757C70.0883 32.8933 69.2914 33.265 68.4435 33.3148C67.5955 33.3645 66.7606 33.0887 66.1093 32.5435C65.458 31.9984 65.0394 31.2251 64.9391 30.3817L64.9157 29.9918C64.9154 26.6079 63.6281 23.3508 61.3149 20.881C59.0017 18.4113 55.8358 16.9137 52.4592 16.6921L51.5861 16.6621C50.7023 16.6621 49.8547 16.311 49.2297 15.6861C48.6048 15.0611 48.2537 14.2135 48.2537 13.3297C48.2537 12.4459 48.6048 11.5983 49.2297 10.9733C49.8547 10.3484 50.7023 9.99727 51.5861 9.99727Z" fill="#ACACAC"/>
<path d="M22.8506 9.74739C26.6596 12.5233 29.6254 16.3122 32.158 19.9379L33.631 22.084L35.0206 24.1334C35.7157 25.1489 36.0129 26.3846 35.8555 27.6051C35.6982 28.8256 35.0974 29.9456 34.1675 30.7516L27.6659 35.5803C27.3518 35.8071 27.1307 36.1402 27.0437 36.5178C26.9567 36.8953 27.0096 37.2916 27.1927 37.633C28.6657 40.309 31.285 44.2945 34.2841 47.2937C37.2833 50.2929 41.4588 53.0855 44.3214 54.725C44.6803 54.9265 45.1027 54.9828 45.5019 54.8824C45.901 54.782 46.2466 54.5325 46.4674 54.1851L50.6996 47.7436C51.4777 46.71 52.6255 46.0176 53.9026 45.8114C55.1798 45.6052 56.4872 45.9011 57.5511 46.6372L59.7604 48.1668C63.8893 51.0327 68.3247 54.2885 71.7171 58.6306C72.2551 59.3231 72.5974 60.1473 72.7082 61.0171C72.819 61.887 72.6942 62.7707 72.347 63.5759C69.5577 70.0841 62.4997 75.6259 55.1584 75.356L54.1587 75.2993L53.3822 75.2327L52.5224 75.1327L51.586 75.0061L50.5696 74.8395L50.0365 74.7395L48.9168 74.4995L48.3303 74.3663L47.1106 74.053L45.8276 73.6864L44.488 73.2532C38.3363 71.1671 30.5285 67.0683 22.5174 59.0571C14.5062 51.046 10.4107 43.2415 8.32461 37.0899L7.8914 35.7502L7.52483 34.4672L7.21158 33.2476L6.95165 32.0946C6.87667 31.7334 6.80668 31.3713 6.74171 31.0082L6.57509 29.9918L6.4418 29.0554L6.34516 28.1956L6.27851 27.4192L6.22519 26.4195C5.95526 19.1015 11.5571 11.9934 18.0353 9.21753C18.815 8.88085 19.6688 8.75266 20.513 8.84555C21.3572 8.93844 22.1628 9.24922 22.8506 9.74739ZM49.9598 21.7274L50.3464 21.7707C52.7721 22.1986 55 23.3834 56.7109 25.1554C58.4218 26.9274 59.5278 29.1955 59.8704 31.6347C59.9926 32.4784 59.7867 33.3368 59.2952 34.0334C58.8037 34.7299 58.064 35.2116 57.2282 35.3794C56.3923 35.5472 55.524 35.3882 54.8018 34.9353C54.0796 34.4823 53.5584 33.7698 53.3455 32.9443L53.2689 32.5611C53.1348 31.605 52.7268 30.7082 52.094 29.9791C51.4612 29.2499 50.6309 28.7196 49.7032 28.4522L49.1867 28.3356C48.3499 28.1873 47.6014 27.7249 47.0943 27.043C46.5871 26.3611 46.3597 25.5112 46.4584 24.6671C46.5572 23.823 46.9747 23.0486 47.6255 22.5021C48.2764 21.9557 49.1114 21.6786 49.9598 21.7274ZM49.9865 11.5969C55.2893 11.5969 60.375 13.7034 64.1247 17.4531C67.8744 21.2028 69.981 26.2885 69.981 31.5914C69.98 32.4407 69.6548 33.2577 69.0717 33.8753C68.4886 34.4929 67.6917 34.8646 66.8438 34.9144C65.9959 34.9641 65.161 34.6883 64.5097 34.1431C63.8584 33.598 63.4398 32.8247 63.3395 31.9813L63.3161 31.5914C63.3158 28.2075 62.0285 24.9504 59.7153 22.4807C57.4021 20.0109 54.2362 18.5133 50.8596 18.2917L49.9865 18.2617C49.1027 18.2617 48.255 17.9106 47.6301 17.2857C47.0051 16.6607 46.6541 15.8131 46.6541 14.9293C46.6541 14.0455 47.0051 13.1979 47.6301 12.5729C48.255 11.948 49.1027 11.5969 49.9865 11.5969Z" fill="#F5F5F5"/>
</svg>
