<svg width="37" height="38" viewBox="0 0 37 38" fill="none" xmlns="http://www.w3.org/2000/svg">
<path d="M14.2836 21.5791H22.7166M18.5001 17.3626V25.7956M24.8249 11.0378V6.82128C24.8249 6.26213 24.6028 5.72588 24.2074 5.33051C23.812 4.93513 23.2758 4.71301 22.7166 4.71301H14.2836C13.7244 4.71301 13.1882 4.93513 12.7928 5.33051C12.3974 5.72588 12.1753 6.26213 12.1753 6.82128V11.0378M30.0955 11.0378H6.90465C6.3455 11.0378 5.80926 11.2599 5.41388 11.6553C5.01851 12.0507 4.79639 12.5869 4.79639 13.1461V30.0122C4.79639 30.5713 5.01851 31.1076 5.41388 31.5029C5.80926 31.8983 6.3455 32.1204 6.90465 32.1204H30.0955C30.6547 32.1204 31.1909 31.8983 31.5863 31.5029C31.9817 31.1076 32.2038 30.5713 32.2038 30.0122V13.1461C32.2038 12.5869 31.9817 12.0507 31.5863 11.6553C31.1909 11.2599 30.6547 11.0378 30.0955 11.0378Z" stroke="#333333" stroke-width="1.5" stroke-linecap="round" stroke-linejoin="round"/>
</svg>
