<svg width="37" height="38" viewBox="0 0 37 38" fill="none" xmlns="http://www.w3.org/2000/svg">
<path d="M14.2836 21.579H22.7166M18.5001 17.3625V25.7955M24.8249 11.0377V6.82115C24.8249 6.26201 24.6028 5.72576 24.2074 5.33039C23.812 4.93501 23.2758 4.71289 22.7166 4.71289H14.2836C13.7244 4.71289 13.1882 4.93501 12.7928 5.33039C12.3974 5.72576 12.1753 6.26201 12.1753 6.82115V11.0377M30.0955 11.0377H6.90465C6.3455 11.0377 5.80926 11.2598 5.41388 11.6552C5.01851 12.0505 4.79639 12.5868 4.79639 13.1459V30.012C4.79639 30.5712 5.01851 31.1074 5.41388 31.5028C5.80926 31.8982 6.3455 32.1203 6.90465 32.1203H30.0955C30.6547 32.1203 31.1909 31.8982 31.5863 31.5028C31.9817 31.1074 32.2038 30.5712 32.2038 30.012V13.1459C32.2038 12.5868 31.9817 12.0505 31.5863 11.6552C31.1909 11.2598 30.6547 11.0377 30.0955 11.0377Z" stroke="#6D57DE" stroke-width="1.5" stroke-linecap="round" stroke-linejoin="round"/>
</svg>
