<svg width="73" height="73" viewBox="0 0 73 73" fill="none" xmlns="http://www.w3.org/2000/svg">
<circle cx="36.0802" cy="36.0802" r="36.0802" fill="#AA60C8"/>
<circle cx="36.0806" cy="36.0801" r="32.4722" fill="#F5F5F5"/>
<path d="M36.08 19.3931C34.6446 19.3931 33.2681 20.0355 32.2531 21.179C31.2382 22.3225 30.668 23.8735 30.668 25.4906V36.7477C30.668 38.3648 31.2382 39.9158 32.2531 41.0593C33.2681 42.2028 34.6446 42.8452 36.08 42.8452C37.5154 42.8452 38.8919 42.2028 39.9069 41.0593C40.9218 39.9158 41.492 38.3648 41.492 36.7477V25.4906C41.492 23.8735 40.9218 22.3225 39.9069 21.179C38.8919 20.0355 37.5154 19.3931 36.08 19.3931Z" fill="#6D57DE"/>
<path d="M28.0795 36.9824C28.0795 36.6236 27.9308 36.2794 27.666 36.0257C27.4012 35.7719 27.0421 35.6294 26.6677 35.6294C26.2933 35.6294 25.9341 35.7719 25.6694 36.0257C25.4046 36.2794 25.2559 36.6236 25.2559 36.9824C25.2558 39.4992 26.2106 41.9302 27.9422 43.8223C29.6739 45.7145 32.0643 46.9388 34.6681 47.2671V49.1595H30.4326C30.0581 49.1595 29.699 49.302 29.4343 49.5558C29.1695 49.8095 29.0208 50.1536 29.0208 50.5125C29.0208 50.8713 29.1695 51.2155 29.4343 51.4692C29.699 51.7229 30.0581 51.8655 30.4326 51.8655H41.7273C42.1017 51.8655 42.4608 51.7229 42.7256 51.4692C42.9903 51.2155 43.1391 50.8713 43.1391 50.5125C43.1391 50.1536 42.9903 49.8095 42.7256 49.5558C42.4608 49.302 42.1017 49.1595 41.7273 49.1595H37.4918V47.2671C40.0955 46.9388 42.486 45.7145 44.2176 43.8223C45.9493 41.9302 46.904 39.4992 46.904 36.9824C46.904 36.6236 46.7552 36.2794 46.4905 36.0257C46.2257 35.7719 45.8666 35.6294 45.4922 35.6294C45.1177 35.6294 44.7586 35.7719 44.4938 36.0257C44.2291 36.2794 44.0803 36.6236 44.0803 36.9824C44.0803 39.0158 43.2374 40.966 41.7371 42.4038C40.2367 43.8417 38.2018 44.6494 36.0799 44.6494C33.9581 44.6494 31.9232 43.8417 30.4228 42.4038C28.9224 40.966 28.0795 39.0158 28.0795 36.9824Z" fill="#6D57DE"/>
</svg>
