<svg width="56" height="56" viewBox="0 0 56 56" fill="none" xmlns="http://www.w3.org/2000/svg">
<path d="M18.4616 7.15381C17.2375 7.15381 16.0636 7.64007 15.198 8.50562C14.3325 9.37118 13.8462 10.5451 13.8462 11.7692V39.4615C13.8462 40.6856 14.3325 41.8595 15.198 42.7251C16.0636 43.5906 17.2375 44.0769 18.4616 44.0769H28.2854C27.6976 43.3651 27.1892 42.5913 26.7693 41.7692H18.4616C17.8495 41.7692 17.2626 41.5261 16.8298 41.0933C16.397 40.6605 16.1539 40.0735 16.1539 39.4615V11.7692C16.1539 11.1572 16.397 10.5702 16.8298 10.1374C17.2626 9.70463 17.8495 9.4615 18.4616 9.4615H27.6923V17.5384C27.6923 18.4565 28.057 19.3369 28.7062 19.9861C29.3554 20.6353 30.2358 21 31.1539 21H39.2308V23.3584C40.0247 23.4307 40.7939 23.573 41.5385 23.7853V19.6477C41.5377 18.7299 41.1725 17.85 40.5231 17.2015L31.4908 8.16689C30.8419 7.51838 29.9621 7.154 29.0447 7.15381H18.4616ZM38.7531 18.6923H31.1539C30.8479 18.6923 30.5544 18.5707 30.338 18.3543C30.1216 18.1379 30 17.8444 30 17.5384V9.93919L38.7531 18.6923ZM25.3847 36C25.3847 35.6123 25.4016 35.2276 25.4354 34.8461H24.2308C23.9248 34.8461 23.6313 34.9677 23.4149 35.1841C23.1985 35.4005 23.077 35.6939 23.077 36C23.077 36.306 23.1985 36.5995 23.4149 36.8158C23.6313 37.0322 23.9248 37.1538 24.2308 37.1538H25.4354C25.4025 36.7701 25.3855 36.3851 25.3847 36ZM25.8623 32.5384C26.0916 31.7323 26.3939 30.963 26.7693 30.2307H24.2308C23.9248 30.2307 23.6313 30.3523 23.4149 30.5687C23.1985 30.7851 23.077 31.0786 23.077 31.3846C23.077 31.6906 23.1985 31.9841 23.4149 32.2005C23.6313 32.4169 23.9248 32.5384 24.2308 32.5384H25.8623ZM28.2854 27.923C29.0077 27.0461 29.8477 26.2707 30.7777 25.6153H24.2308C23.9248 25.6153 23.6313 25.7369 23.4149 25.9533C23.1985 26.1697 23.077 26.4632 23.077 26.7692C23.077 27.0752 23.1985 27.3687 23.4149 27.5851C23.6313 27.8015 23.9248 27.923 24.2308 27.923H28.2854ZM19.6154 25.6153C19.3094 25.6153 19.0159 25.7369 18.7995 25.9533C18.5831 26.1697 18.4616 26.4632 18.4616 26.7692C18.4616 27.0752 18.5831 27.3687 18.7995 27.5851C19.0159 27.8015 19.3094 27.923 19.6154 27.923C19.9214 27.923 20.2149 27.8015 20.4313 27.5851C20.6477 27.3687 20.7693 27.0752 20.7693 26.7692C20.7693 26.4632 20.6477 26.1697 20.4313 25.9533C20.2149 25.7369 19.9214 25.6153 19.6154 25.6153ZM18.4616 31.3846C18.4616 31.0786 18.5831 30.7851 18.7995 30.5687C19.0159 30.3523 19.3094 30.2307 19.6154 30.2307C19.9214 30.2307 20.2149 30.3523 20.4313 30.5687C20.6477 30.7851 20.7693 31.0786 20.7693 31.3846C20.7693 31.6906 20.6477 31.9841 20.4313 32.2005C20.2149 32.4169 19.9214 32.5384 19.6154 32.5384C19.3094 32.5384 19.0159 32.4169 18.7995 32.2005C18.5831 31.9841 18.4616 31.6906 18.4616 31.3846ZM18.4616 36C18.4616 35.6939 18.5831 35.4005 18.7995 35.1841C19.0159 34.9677 19.3094 34.8461 19.6154 34.8461C19.9214 34.8461 20.2149 34.9677 20.4313 35.1841C20.6477 35.4005 20.7693 35.6939 20.7693 36C20.7693 36.306 20.6477 36.5995 20.4313 36.8158C20.2149 37.0322 19.9214 37.1538 19.6154 37.1538C19.3094 37.1538 19.0159 37.0322 18.7995 36.8158C18.5831 36.5995 18.4616 36.306 18.4616 36ZM48.4616 36C48.4616 38.7541 47.3675 41.3955 45.42 43.343C43.4725 45.2905 40.8311 46.3846 38.077 46.3846C35.3228 46.3846 32.6814 45.2905 30.7339 43.343C28.7864 41.3955 27.6923 38.7541 27.6923 36C27.6923 33.2458 28.7864 30.6044 30.7339 28.6569C32.6814 26.7094 35.3228 25.6153 38.077 25.6153C40.8311 25.6153 43.4725 26.7094 45.42 28.6569C47.3675 30.6044 48.4616 33.2458 48.4616 36ZM39.2308 29.0769C39.2308 28.7709 39.1092 28.4774 38.8929 28.261C38.6765 28.0446 38.383 27.923 38.077 27.923C37.7709 27.923 37.4775 28.0446 37.2611 28.261C37.0447 28.4774 36.9231 28.7709 36.9231 29.0769V36C36.9231 36.306 37.0447 36.5995 37.2611 36.8158C37.4775 37.0322 37.7709 37.1538 38.077 37.1538H42.6923C42.9984 37.1538 43.2918 37.0322 43.5082 36.8158C43.7246 36.5995 43.8462 36.306 43.8462 36C43.8462 35.6939 43.7246 35.4005 43.5082 35.1841C43.2918 34.9677 42.9984 34.8461 42.6923 34.8461H39.2308V29.0769Z" fill="#333333"/>
</svg>
