<svg width="70" height="70" viewBox="0 0 70 70" fill="none" xmlns="http://www.w3.org/2000/svg">
<g clip-path="url(#clip0_2603_1142)">
<path d="M68.778 40.7165L56.9235 34.8963C59.6877 33.1071 61.5657 29.6062 61.5657 25.5813C61.5657 19.7348 57.6127 14.9996 52.734 14.9996C51.0574 14.9996 49.509 15.5885 48.176 16.5574C49.0019 18.7185 49.4246 21.0204 49.4219 23.3427C49.4219 26.9484 48.3884 30.3678 46.6203 33.1945C47.2158 33.8902 47.9093 34.4901 48.6777 34.974L48.6704 34.9763L56.3068 38.7244C58.4653 39.8004 59.8613 42.18 59.8613 44.7904V54.9996H68.0266C69.1172 54.9996 69.9998 53.9433 69.9998 52.6396V42.9099C69.9998 41.9433 69.5171 41.0852 68.778 40.7165ZM21.4991 34.8669C22.1361 34.4446 22.7188 33.9412 23.2335 33.3687C21.3921 30.5178 20.3242 27.0343 20.3242 23.3427C20.3242 20.8764 20.7974 18.5397 21.6258 16.4285C20.3367 15.5448 18.8623 14.9996 17.2692 14.9996C12.3868 14.9996 8.43453 19.7348 8.43453 25.5813C8.43453 29.6718 10.3762 33.2119 13.213 34.974L1.23831 40.712C0.491223 41.0731 -0.000244141 41.9403 -0.000244141 42.9099V52.6388C-0.000244141 53.9425 0.885275 54.9989 1.97295 54.9989H9.88696V44.7896C9.88696 42.1484 11.3064 39.7589 13.5074 38.6973L21.4991 34.8669Z" fill="#BFBFF6"/>
<path d="M54.5136 42.1473L44.3822 37.0339L40.0985 34.8713C41.9698 33.6248 43.4891 31.6997 44.4837 29.381C45.3142 27.4486 45.7434 25.3502 45.7425 23.2274C45.7425 21.9771 45.5554 20.7899 45.2941 19.6439C44.0195 14.0903 39.9208 9.99963 35.0008 9.99963C30.173 9.99963 26.1369 13.9449 24.7839 19.34C24.4715 20.5774 24.2563 21.8644 24.2563 23.2274C24.2563 25.5949 24.7795 27.8024 25.6677 29.7221C26.6947 31.9495 28.2169 33.7862 30.0694 34.9673L25.9656 36.9883L15.5054 42.142C14.5971 42.592 13.9998 43.6772 13.9998 44.8879V57.0489C13.9998 58.6785 15.0736 59.9996 16.3985 59.9996H53.601C54.9259 59.9996 55.9998 58.6785 55.9998 57.0489V44.8879C56.0005 43.6817 55.4132 42.6073 54.5136 42.1473Z" fill="#BFBFF6"/>
</g>
<defs>
<clipPath id="clip0_2603_1142">
<rect width="70" height="70" fill="white"/>
</clipPath>
</defs>
</svg>
