<svg width="60" height="60" viewBox="0 0 60 60" fill="none" xmlns="http://www.w3.org/2000/svg">
<path d="M50 42.5C51.4333 42.5 52.6416 43 53.625 44C54.6083 45 55.0916 46.1667 55.075 47.5L35 55L17.5 50V27.5H22.375L40.55 34.225C41.85 34.7417 42.5 35.675 42.5 37.025C42.5 37.8083 42.2166 38.4917 41.65 39.075C41.0833 39.6583 40.3666 39.9667 39.5 40H32.5L28.125 38.325L27.3 40.675L32.5 42.5H50ZM40 8.075C41.7666 6.025 44.0166 5 46.75 5C49.0166 5 50.9333 5.83333 52.5 7.5C54.0666 9.16667 54.9 11.0833 55 13.25C55 14.9667 54.1666 17.0167 52.5 19.4C50.8333 21.7833 49.1916 23.775 47.575 25.375C45.9583 26.975 43.4333 29.35 40 32.5C36.5333 29.35 33.9833 26.975 32.35 25.375C30.7166 23.775 29.075 21.7833 27.425 19.4C25.775 17.0167 24.9666 14.9667 25 13.25C25 10.9833 25.8083 9.06667 27.425 7.5C29.0416 5.93333 30.9916 5.1 33.275 5C35.9416 5 38.1833 6.025 40 8.075ZM2.45996 27.5H12.5V55H2.45996V27.5Z" fill="#BFBFF6"/>
</svg>
